<?xml version="1.0" standalone="no"?>
<!DOCTYPE svg PUBLIC "-//W3C//DTD SVG 1.1//EN" "http://www.w3.org/Graphics/SVG/1.1/DTD/svg11.dtd" >
<svg>
<metadata>
Created by FontForge 20090914 at Tue Jun 28 21:19:02 2016
 By www-data
Font data copyright Google 2011
</metadata>
<defs>
<font id="Roboto-BlackItalic" horiz-adv-x="1151" >
  <font-face 
    font-family="Roboto Bk"
    font-weight="400"
    font-style="italic"
    font-stretch="normal"
    units-per-em="2048"
    panose-1="0 0 0 0 0 0 0 0 0 0"
    ascent="1536"
    descent="-512"
    x-height="1082"
    cap-height="1456"
    bbox="-922 -555.001 2559 2179"
    underline-thickness="100"
    underline-position="-100"
    unicode-range="U+0009-U+FFFD"
  />
<missing-glyph horiz-adv-x="1024" 
d="M102 0v1024h820v-1024h-820zM204 102h616v820h-616v-820z" />
    <glyph glyph-name="fi" unicode="fi" horiz-adv-x="1302" 
d="M93 0l126.997 848.001h-157l35 234h157l8 52c22 149.333 82.5 261.166 181.5 335.499s231.167 111.5 396.5 111.5c54 0 108.833 -5.16699 164.5 -15.5s115.167 -24.5 178.5 -42.5l-85 -266c-55.333 14.667 -101.666 25.667 -138.999 33s-84.333 11 -141 11
c-59.333 0 -108.666 -14.667 -147.999 -44s-62.666 -70.333 -69.999 -123l-8 -52h212l-35 -234h-212l-127 -848h-338zM1111 0.000976562h-339l162 1082h339z" />
    <glyph glyph-name=".notdef" horiz-adv-x="1024" 
d="M102 0v1024h820v-1024h-820zM204 102h616v820h-616v-820z" />
    <glyph glyph-name="uni0002" horiz-adv-x="0" 
 />
    <glyph glyph-name="uni0002" horiz-adv-x="0" 
 />
    <glyph glyph-name="uni0009" unicode="&#x9;" horiz-adv-x="0" 
 />
    <glyph glyph-name="nonmarkingreturn" unicode="&#xd;" horiz-adv-x="510" 
 />
    <glyph glyph-name="space" unicode=" " horiz-adv-x="510" 
 />
    <glyph glyph-name="exclam" unicode="!" horiz-adv-x="565" 
d="M451 516h-339l141 940h339zM374 0h-339l42 283h339z" />
    <glyph glyph-name="quotedbl" unicode="&#x22;" horiz-adv-x="881" 
d="M485 1181l-137 -249h-144l33 235l41 289h246zM841 1181l-137 -249h-143l35 244l39 280h245z" />
    <glyph glyph-name="numbersign" unicode="#" horiz-adv-x="1190" 
d="M601 410h-162l-128 -410h-199l129 410h-222l27 183h252l83 264h-220l27 183h251l131 416h198l-131 -416h162l131 416h199l-131 -416h231l-27 -183h-262l-83 -264h229l-27 -183h-259l-129 -410h-199zM497 593h161l83 264h-161z" />
    <glyph glyph-name="dollar" unicode="$" horiz-adv-x="1227" 
d="M771 386c7.33301 54.667 0.332031 95.3281 -21.001 121.995s-66.333 55.334 -135 86.001c-152 56 -260.5 117.333 -325.5 184s-88.167 163.334 -69.5 290.001c16 118.667 67.333 213.334 154 284.001s197.334 111.334 332.001 122.001l30 211h158l-30 -215
c118.667 -17.333 209.167 -65 271.5 -143s85.5 -178.333 69.5 -301h-337c9.33301 69.333 1.83301 119.333 -22.5 150s-63.166 46 -116.499 46c-52 0 -92.167 -14.5 -120.5 -43.5s-45.5 -66.5 -51.5 -112.5c-6.66699 -46.667 0.166016 -82.5 20.499 -107.5
s65.5 -55.5 135.5 -91.5c147.333 -49.333 254.333 -110 321 -182s91.334 -171 74.001 -297c-17.333 -122 -67.5 -217.167 -150.5 -285.5s-190.167 -108.166 -321.5 -119.499l-28 -201h-159l28 201c-129.333 12 -232.833 55.5 -310.5 130.5s-104.834 184.5 -81.501 328.5l2 5
h330c-11.333 -80 -1 -135.5 31 -166.5s80 -46.5 144 -46.5c52.667 0 94 14 124 42s48.333 64.667 55 110z" />
    <glyph glyph-name="percent" unicode="%" horiz-adv-x="1521" 
d="M187 1176c13.333 89.333 52.168 161.833 116.501 217.5s148.5 83.5 252.5 83.5c100 0 174.667 -28.833 224 -86.5s67.666 -129.167 54.999 -214.5l-11 -77c-14 -89.333 -52.667 -161.5 -116 -216.5s-147.333 -82.5 -252 -82.5c-100 0 -175 28.667 -225 86
s-68.333 128.333 -55 213zM392.002 1099c-5.33301 -34 -0.331055 -62.001 15.002 -84.001s40.666 -33 75.999 -33c32.667 0 60.167 11.333 82.5 34s36.166 50.334 41.499 83.001l11 77c4.66699 34.667 -0.333008 63.167 -15 85.5s-39.667 33.5 -75 33.5
c-32.667 0 -60.5 -11.667 -83.5 -35s-36.833 -51.333 -41.5 -84zM756.004 356.999c12.667 88.667 51.501 160.833 116.501 216.5s149.5 83.5 253.5 83.5c100 0 174.5 -28.667 223.5 -86s67.5 -128.666 55.5 -213.999l-12 -77c-14 -90 -52.5 -162.5 -115.5 -217.5
s-146.833 -82.5 -251.5 -82.5c-100 0 -175.333 28.667 -226 86s-69.334 128.666 -56.001 213.999zM961.005 279.998c-5.33301 -32.667 1.00098 -60.5 19.001 -83.5s42.333 -34.5 73 -34.5c40 0 69.333 10.667 88 32s30.667 50 36 86l12 77
c4.66699 34 -0.833008 62.167 -16.5 84.5s-40.5 33.5 -74.5 33.5c-33.333 0 -61.333 -11.667 -84 -35s-36.334 -51 -41.001 -83zM398.006 108.998l-145 79l882 1138l145 -79z" />
    <glyph glyph-name="ampersand" unicode="&#x26;" horiz-adv-x="1380" 
d="M344 776c-32 58 -54.3369 111.332 -67.0039 159.999s-14.667 98 -6 148c19.333 130.667 70.333 228.834 153 294.501s188.667 98.5 318 98.5c101.333 0 181 -34.333 239 -103s80 -151 66 -247c-11.333 -74.667 -32.666 -137 -63.999 -187s-75 -95 -131 -135l-111 -70
l193 -269c29.333 38 53.833 79 73.5 123s33.167 90.333 40.5 139h260c-15.333 -102 -40.166 -192.833 -74.499 -272.5s-80.833 -150.167 -139.5 -211.5l176 -244h-376l-62 84c-62.667 -36 -124.167 -62.5 -184.5 -79.5s-125.166 -25.5 -194.499 -25.5
c-140 0 -248.667 38.5 -326 115.5s-106.666 175.833 -87.999 296.5c11.333 80 39.333 146.167 84 198.5s112 110.833 202 175.5zM514.996 238.999c28 0 56.833 3.16602 86.5 9.49902s59.5 15.833 89.5 28.5l-212 291c-30.667 -24.667 -53.5 -49.167 -68.5 -73.5
s-24.833 -51.166 -29.5 -80.499c-8 -53.333 1.16699 -95.833 27.5 -127.5s61.833 -47.5 106.5 -47.5zM562.996 1088c-4 -25.333 -2.1709 -50.668 5.49609 -76.001s20.834 -53 39.501 -83l49 29c41.333 24 70 47.5 86 70.5s26 47.833 30 74.5
c4.66699 32 0.333984 59 -12.999 81s-36.333 33 -69 33c-31.333 0 -59.166 -12.667 -83.499 -38s-39.166 -55.666 -44.499 -90.999z" />
    <glyph glyph-name="quotesingle" unicode="'" horiz-adv-x="440" 
d="M453 1164l-142 -283h-189l38 270l43 305h291z" />
    <glyph glyph-name="parenleft" unicode="(" horiz-adv-x="727" 
d="M128 592c37.333 270 117 492.331 239 666.998s254.667 288.334 398 341.001l6 -1l39 -159c-94 -62.667 -178.667 -164 -254 -304s-128.333 -320.667 -159 -542l-4 -32c-32.667 -231.333 -31.167 -414.166 4.5 -548.499s92.5 -233.5 170.5 -297.5l-84 -159h-5
c-126 51.333 -225.833 167 -299.5 347s-92.167 400 -55.5 660z" />
    <glyph glyph-name="parenright" unicode=")" horiz-adv-x="726" 
d="M634 564c-36.667 -259.333 -119.166 -479.168 -247.499 -659.501s-265.833 -296.5 -412.5 -348.5l-6 1l-39 159c92.667 63.333 176.834 164.833 252.501 304.5s129.167 320.167 160.5 541.5l4 32c32 230.667 30.167 413.334 -5.5 548.001s-92.167 234 -169.5 298l84 159
h6c129.333 -50.667 233.166 -169 311.499 -355s100.166 -403.333 65.499 -652z" />
    <glyph glyph-name="asterisk" unicode="*" horiz-adv-x="843" 
d="M273 649l-213 82l82 175l232 -72l45 248h182l-23 -258l240 73l29 -177l-243 -85l101 -205l-166 -109l-122 204l-180 -195l-135 105z" />
    <glyph glyph-name="plus" unicode="+" horiz-adv-x="1094" 
d="M746 826h341l-43 -289h-342l-58 -391h-315l58 391h-341l43 289h342l57 380h315z" />
    <glyph glyph-name="comma" unicode="," horiz-adv-x="590" 
d="M386 -8l-211 -318h-233l119 327l40 263h326z" />
    <glyph glyph-name="hyphen" unicode="-" horiz-adv-x="875" 
d="M719 497h-589l39 261h589z" />
    <glyph glyph-name="period" unicode="." horiz-adv-x="619" 
d="M393 0h-337l43 284h337z" />
    <glyph glyph-name="slash" unicode="/" horiz-adv-x="811" 
d="M213 -125h-341l734 1581h341z" />
    <glyph glyph-name="zero" unicode="0" horiz-adv-x="1186" 
d="M1100 535c-27.333 -181.333 -93.8359 -319.333 -199.503 -414s-235.5 -142 -389.5 -142c-147.333 0 -261.5 49.5 -342.5 148.5s-108.5 234.833 -82.5 407.5l58 386c26.667 180.667 92.834 318.5 198.501 413.5s236.167 142.5 391.5 142.5
c146.667 0 260.334 -49.667 341.001 -149s108.334 -235 83.001 -407zM824.997 944c13.333 92 8.50098 160.499 -14.499 205.499s-61.5 67.5 -115.5 67.5c-52 0 -96.833 -23.667 -134.5 -71s-62.834 -114.666 -75.501 -201.999l-65 -430
c-14.667 -94 -10.5 -163.333 12.5 -208s62.167 -67 117.5 -67c51.333 0 95.833 23.333 133.5 70s63.167 115 76.5 205z" />
    <glyph glyph-name="one" unicode="1" horiz-adv-x="1186" 
d="M759 0h-338l175 1167h-293l39 258l639 52z" />
    <glyph glyph-name="two" unicode="2" horiz-adv-x="1186" 
d="M1038 0l-1012 -0.000976562l31 220l517 492c69.333 68 121.666 128.5 156.999 181.5s56 99.5 62 139.5c7.33301 58.667 0.666016 104 -20.001 136s-59 48 -115 48c-50 0 -93.167 -21.667 -129.5 -65s-59.166 -98 -68.499 -164h-330l-2 6
c16.667 140 76.834 255.5 180.501 346.5s232.5 136.5 386.5 136.5c153.333 0 269.166 -39.667 347.499 -119s108.166 -186.666 89.499 -321.999c-14 -96 -48.333 -177.167 -103 -243.5s-158.334 -171.5 -311.001 -315.5l-208 -211l3 -6h561z" />
    <glyph glyph-name="three" unicode="3" horiz-adv-x="1186" 
d="M1183 1061c-10.667 -69.333 -39.8389 -131.5 -87.5059 -186.5s-108.5 -97.833 -182.5 -128.5c72.667 -29.333 126.334 -72.833 161.001 -130.5s46 -126.834 34 -207.501c-21.333 -138.667 -87.833 -244.834 -199.5 -318.501s-248.167 -110.5 -409.5 -110.5
c-132.667 0 -245.5 36 -338.5 108s-127.5 175.667 -103.5 311l2 6h330c-8 -49.333 2 -89.166 30 -119.499s67.667 -45.5 119 -45.5c58.667 0 110.5 17 155.5 51s71.167 75.667 78.5 125c10.667 73.333 0.333984 125.5 -30.999 156.5s-81.333 46.5 -150 46.5h-160l22 149
l15 102h160c58.667 0 107.334 16.5 146.001 49.5s62.334 78.167 71.001 135.5c6.66699 46.667 -4.16602 85.5 -32.499 116.5s-70.833 46.5 -127.5 46.5c-41.333 0 -79.166 -12.667 -113.499 -38s-54.5 -58 -60.5 -98h-327l-2 6c14.667 120.667 74.167 215.834 178.5 285.501
s225.5 104.5 363.5 104.5c152.667 0 272.167 -36.5 358.5 -109.5s119.833 -175.167 100.5 -306.5z" />
    <glyph glyph-name="four" unicode="4" horiz-adv-x="1186" 
d="M990 569h147l-39 -262h-147l-46 -307h-338l46 307h-579l11 208l739 938l1 3h338zM348 574l2 -5h302l68 452l-6 2l-48 -75z" />
    <glyph glyph-name="five" unicode="5" horiz-adv-x="1186" 
d="M137 640l206 815.997h853l-39 -262h-579l-82 -303c30 19.333 67 35 111 47s91.333 18.667 142 20c136 2.66699 233.833 -38.833 293.5 -124.5s77.834 -207.167 54.501 -364.5c-22 -145.333 -80 -263.333 -174 -354s-229 -136 -405 -136
c-134 0 -247.833 36.833 -341.5 110.5s-129.834 169.834 -108.501 288.501l2 5l335 21c-8.66699 -53.333 0.833008 -94.166 28.5 -122.499s68.834 -42.5 123.501 -42.5c60 0 105.833 19.333 137.5 58s53.167 95.334 64.5 170.001c12 82.667 7.16699 146.334 -14.5 191.001
s-63.5 67 -125.5 67c-43.333 0 -80.833 -9.83301 -112.5 -29.5s-54.834 -43.834 -69.501 -72.501z" />
    <glyph glyph-name="six" unicode="6" horiz-adv-x="1186" 
d="M825 1477c54 0 102.836 -4.99902 146.503 -14.999s90.5 -25.333 140.5 -46l-93 -246c-44.667 14.667 -83.5 25.334 -116.5 32.001s-71.5 10 -115.5 10c-80 0 -150.333 -29.833 -211 -89.5s-99.334 -146.834 -116.001 -261.501l-2 -10c42.667 36 91.834 63.5 147.501 82.5
s117.5 28.5 185.5 28.5c119.333 0 207.666 -45.833 264.999 -137.5s75.333 -209.167 54 -352.5c-22.667 -148.667 -87.834 -268 -195.501 -358s-237.167 -135 -388.5 -135c-154 0 -273.833 52.833 -359.5 158.5s-114.834 248.5 -87.501 428.5l44 293
c29.333 199.333 108.333 352.166 237 458.499s283.667 159.5 465 159.5zM640.003 704.001c-46.667 0 -88.166 -6.66699 -124.499 -20s-66.5 -32 -90.5 -56l-9 -62c-16.667 -110 -11.834 -192 14.499 -246s71.166 -81 134.499 -81c48.667 0 92.834 22.667 132.501 68
s64.5 100.333 74.5 165c11.333 76 4.83301 133.667 -19.5 173s-61.833 59 -112.5 59z" />
    <glyph glyph-name="seven" unicode="7" horiz-adv-x="1186" 
d="M1210 1196c-180.667 -176 -310.668 -338.167 -390.001 -486.5s-133.666 -321.166 -162.999 -518.499l-29 -191h-338l29 191c30 202 91.5 381.667 184.5 539s220.5 312.666 382.5 465.999h-729l39 260h1053z" />
    <glyph glyph-name="eight" unicode="8" horiz-adv-x="1186" 
d="M1160 1075c-11.333 -73.333 -38.5039 -137.332 -81.5039 -191.999s-98.167 -97.667 -165.5 -129c71.333 -34.667 125.333 -81.667 162 -141s49.667 -127 39 -203c-21.333 -141.333 -85.5 -248.5 -192.5 -321.5s-237.5 -109.5 -391.5 -109.5
c-151.333 0 -273.666 38.333 -366.999 115s-129.666 182 -108.999 316c11.333 80.667 44.833 151 100.5 211s126.834 106.333 213.501 139c-60 33.333 -104.833 77 -134.5 131s-39.167 115.333 -28.5 184c20 133.333 79.667 233.666 179 300.999s222.333 101 369 101
c134.667 0 240.834 -35 318.501 -105s107.167 -169 88.5 -297zM777.996 428.001c8.66699 60.667 -1.49902 108.668 -30.499 144.001s-69.833 53 -122.5 53c-55.333 0 -105.333 -18.5 -150 -55.5s-71.334 -84.167 -80.001 -141.5c-9.33301 -60 2.5 -106.5 35.5 -139.5
s79.167 -49.5 138.5 -49.5c50.667 0 96 17.167 136 51.5s64.333 80.166 73 137.499zM820.997 1057c7.33301 52.667 1.66992 92.5 -16.9971 119.5s-48.667 40.5 -90 40.5c-44.667 0 -82.834 -14 -114.501 -42s-50.834 -67.333 -57.501 -118
c-8.66699 -54.667 -1.83398 -97 20.499 -127s56.833 -45 103.5 -45c38 0 71.333 15.667 100 47s47 73 55 125z" />
    <glyph glyph-name="nine" unicode="9" horiz-adv-x="1186" 
d="M504 239c58.667 0 111.996 24.333 159.996 73s78.333 115.334 91 200.001l11 79c-38 -38.667 -80.167 -67.667 -126.5 -87s-94.166 -29 -143.499 -29c-127.333 0 -223.166 45 -287.499 135s-85.5 209 -63.5 357c22 149.333 87.333 271.666 196 366.999
s238.667 143 390 143c142 0 254 -51.667 336 -155s109.667 -243.666 83 -420.999l-55 -366c-26.667 -174.667 -98.5 -311 -215.5 -409s-255.167 -147 -414.5 -147c-47.333 0 -97.666 5.66699 -150.999 17s-102.666 26.666 -147.999 45.999l94 241
c40 -15.333 78.667 -26.5 116 -33.5s80 -10.5 128 -10.5zM606.996 718c37.333 0 72.334 7.49902 105.001 22.499s61.334 35.5 86.001 61.5l24 161c12.667 86 6.66699 149.833 -18 191.5s-62.334 62.5 -113.001 62.5s-95.834 -25.167 -135.501 -75.5
s-64.167 -108.5 -73.5 -174.5c-12 -77.333 -7.5 -138.166 13.5 -182.499s58.167 -66.5 111.5 -66.5z" />
    <glyph glyph-name="colon" unicode=":" horiz-adv-x="613" 
d="M393 0h-337l43 284h337zM524 876h-337l43 284h337z" />
    <glyph glyph-name="semicolon" unicode=";" horiz-adv-x="579" 
d="M525 876h-337l43 284h337zM437 -8l-211 -318h-233l119 327l40 263h326z" />
    <glyph glyph-name="less" unicode="&#x3c;" horiz-adv-x="1044" 
d="M379 544v-6l525 -181l-46 -307l-830 360l14 98l25 168l938 360l-45 -306z" />
    <glyph glyph-name="equal" unicode="=" horiz-adv-x="1195" 
d="M1084 732h-926l39 260h926zM1018 293h-926l39 260h926z" />
    <glyph glyph-name="greater" unicode="&#x3e;" horiz-adv-x="1050" 
d="M659 540v6l-519 182l46 306l825 -360l-25 -169h-1l-14 -97l-933 -360l46 306z" />
    <glyph glyph-name="question" unicode="?" horiz-adv-x="1043" 
d="M290 416c14.667 92.667 41.9971 162.331 81.9971 208.998s107.667 100.334 203 161.001c48.667 28 88.834 62.667 120.501 104s51.834 89 60.501 143c8 57.333 -0.166992 102.333 -24.5 135s-64.5 49 -120.5 49c-43.333 0 -82.5 -13.833 -117.5 -41.5
s-57.167 -68.167 -66.5 -121.5h-329l-1 6c19.333 138.667 79.333 242.834 180 312.501s225 104.5 373 104.5c152.667 0 269.834 -40.333 351.501 -121s112.5 -188.334 92.5 -323.001c-13.333 -86.667 -49.5 -164 -108.5 -232s-130.5 -122.333 -214.5 -163
c-47.333 -28 -81 -58.167 -101 -90.5s-34 -76.166 -42 -131.499h-338zM564.997 -0.00292969h-336l41 270h336z" />
    <glyph glyph-name="at" unicode="@" horiz-adv-x="1809" 
d="M1727 520c-28 -146.667 -91.002 -273.5 -189.002 -380.5s-228.333 -160.5 -391 -160.5c-52.667 0 -96.334 15.333 -131.001 46s-56.334 73.667 -65.001 129c-36 -57.333 -77.167 -100.166 -123.5 -128.499s-97.5 -42.5 -153.5 -42.5
c-95.333 0 -164.166 39.833 -206.499 119.5s-47.166 184.167 -14.499 313.5c42.667 167.333 111.667 301.333 207 402s200.333 151 315 151c77.333 0 140.5 -9 189.5 -27s99.167 -44.333 150.5 -79l-4 -4h6l-136 -566c-12 -58 -14.167 -97.833 -6.5 -119.5
s20.834 -32.5 39.501 -32.5c71.333 0 135.833 36.167 193.5 108.5s97.167 162.5 118.5 270.5c44 226 26 402.167 -54 528.5s-223.667 189.5 -431 189.5c-194 0 -362.5 -68.667 -505.5 -206s-236.833 -322 -281.5 -554c-45.333 -228.667 -24.166 -409.334 63.501 -542.001
s232.167 -199 433.5 -199c53.333 0 111.833 6.33301 175.5 19s118.5 28 164.5 46l13 -166c-48.667 -28 -108.667 -49.833 -180 -65.5s-140 -23.5 -206 -23.5c-258.667 0 -450.5 83.833 -575.5 251.5s-160.833 394.167 -107.5 679.5c54 286 173.833 512.833 359.5 680.5
s411.167 251.5 676.5 251.5c250.667 0 435.5 -80.167 554.5 -240.5s152.833 -376.833 101.5 -649.5zM700.998 416c-17.333 -80 -20.332 -140.499 -8.99902 -181.499s37 -61.5 77 -61.5c34.667 0 67.834 10 99.501 30s62.5 56.667 92.5 110l109 453
c-14 3.33301 -27.833 6.16602 -41.5 8.49902s-27.834 3.5 -42.501 3.5c-66.667 0 -123.334 -30.5 -170.001 -91.5s-85 -151.167 -115 -270.5z" />
    <glyph glyph-name="A" unicode="A" horiz-adv-x="1307" 
d="M840 283h-432l-127 -283h-356l693 1456h181v-1l1 1h181l258 -1456h-356zM524 543h277l-67 451l-6 1z" />
    <glyph glyph-name="B" unicode="B" horiz-adv-x="1306" 
d="M36 0l218 1456h477c174 0 308 -33.833 402 -101.5s131.333 -167.167 112 -298.5c-10.667 -71.333 -35.667 -133.666 -75 -186.999s-94.666 -93.333 -165.999 -120c82.667 -18.667 140.167 -57.167 172.5 -115.5s43.166 -125.833 32.499 -202.5
c-22.667 -146.667 -86.167 -255.167 -190.5 -325.5s-246.833 -105.5 -427.5 -105.5h-555zM467 624.999l-54.002 -365.001h217c69.333 0 124.833 14.5 166.5 43.5s66.834 72.167 75.501 129.5c8.66699 64.667 -0.166016 112.334 -26.499 143.001s-75.833 47 -148.5 49h-11
h-219zM500.998 848.998h133c78 0 140 14.333 186 43s73.333 70.667 82 126c9.33301 64 -3 109.667 -37 137s-91.667 41 -173 41h-139z" />
    <glyph glyph-name="C" unicode="C" horiz-adv-x="1307" 
d="M1227 491l1.99902 -5.99707c-23.333 -172.667 -88.666 -300.167 -195.999 -382.5s-250.666 -123.5 -429.999 -123.5c-173.333 0 -308 55.667 -404 167s-130.667 254.666 -104 429.999l46 304c27.333 184 101.166 329.5 221.499 436.5s267.833 160.5 442.5 160.5
c178 0 312.5 -43.333 403.5 -130s123.167 -211.334 96.5 -374.001l-3 -6h-330c13.333 92.667 4.33301 157.5 -27 194.5s-91 55.5 -179 55.5c-72.667 0 -135 -30.833 -187 -92.5s-85.333 -142.5 -100 -242.5l-46 -306c-16 -105.333 -6.16699 -187.833 29.5 -247.5
s95.5 -89.5 179.5 -89.5c74 0 132 19.667 174 59s69.667 103.666 83 192.999h328z" />
    <glyph glyph-name="D" unicode="D" horiz-adv-x="1338" 
d="M787 1456c164.667 0 297.831 -56.332 399.498 -168.999s139.834 -255.334 114.501 -428.001l-39 -262c-28 -182 -107.167 -327 -237.5 -435s-282.166 -162 -455.499 -162h-533l218 1456h533zM552.997 1196l-140 -936h195c73.333 0 140.333 31.667 201 95
s98.667 144 114 242l39 264c14.667 102 2 183.333 -38 244s-98.667 91 -176 91h-195z" />
    <glyph glyph-name="E" unicode="E" horiz-adv-x="1143" 
d="M980 623h-513l-54 -363h615l-39 -260h-953l218 1456h954l-39 -260h-616l-47 -313h513z" />
    <glyph glyph-name="F" unicode="F" horiz-adv-x="1143" 
d="M995 586h-534l-87 -586h-338l218 1456h973l-39 -260h-635l-53 -350h534z" />
    <glyph glyph-name="G" unicode="G" horiz-adv-x="1353" 
d="M1216 201c-59.333 -61.333 -138.171 -113.669 -236.504 -157.002s-220.166 -65 -365.499 -65c-173.333 0 -310 55.833 -410 167.5s-136.667 254.834 -110 429.501l46 304c27.333 182.667 103.5 327.834 228.5 435.501s274.833 161.5 449.5 161.5
c178.667 0 311 -42 397 -126s116.667 -197 92 -339l-2 -6h-318c10.667 74 -0.166016 127.667 -32.499 161s-87.166 50 -164.499 50c-76 0 -143.5 -31.333 -202.5 -94s-95.833 -143 -110.5 -241l-46 -306c-16 -104.667 -4.66699 -187 34 -247s101.334 -90 188.001 -90
c59.333 0 108.5 5 147.5 15s69.5 23.333 91.5 40l39 260h-258l34 224h596z" />
    <glyph glyph-name="H" unicode="H" horiz-adv-x="1446" 
d="M1250 0h-337l87 586h-539l-87 -586h-338l218 1456h338l-92 -610h539l92 610h337z" />
    <glyph glyph-name="I" unicode="I" horiz-adv-x="611" 
d="M394 0h-337l218 1456h337z" />
    <glyph glyph-name="J" unicode="J" horiz-adv-x="1144" 
d="M830 1456h338l-148 -989c-23.333 -154 -86.5 -273.833 -189.5 -359.5s-226.833 -128.5 -371.5 -128.5c-158 0 -280.167 39.833 -366.5 119.5s-116.833 193.5 -91.5 341.5l2 6h331c-11.333 -74.667 -1.5 -127.834 29.5 -159.501s75.833 -47.5 134.5 -47.5
c42 0 80.5 20.333 115.5 61s57.833 96.334 68.5 167.001z" />
    <glyph glyph-name="K" unicode="K" horiz-adv-x="1269" 
d="M558 578h-96l-86 -578h-338l218 1456h338l-87 -576h91l346 576h446l-527 -721l328 -735h-390z" />
    <glyph glyph-name="L" unicode="L" horiz-adv-x="1144" 
d="M413 260h625l-39 -260h-963l218 1456h338z" />
    <glyph glyph-name="M" unicode="M" horiz-adv-x="1783" 
d="M870 438l6 -1l482 1019h447l-218 -1456h-338l140 937l-6 1l-461 -938h-227l-177 924h-6l-138 -924h-338l218 1456h443z" />
    <glyph glyph-name="N" unicode="N" horiz-adv-x="1446" 
d="M1250 0h-337l-397 916l-6 -1l-136 -915h-338l218 1456h338l396 -915l6 1l137 914h337z" />
    <glyph glyph-name="O" unicode="O" horiz-adv-x="1416" 
d="M1336 597c-28.667 -186.667 -107.667 -336.332 -237 -448.999s-286.666 -169 -471.999 -169c-177.333 0 -316.5 58.833 -417.5 176.5s-137.833 264.834 -110.5 441.501l39 262c27.333 185.333 106.166 334.666 236.499 447.999s288.833 170 475.5 170
c176 0 314 -58.833 414 -176.5s137 -264.834 111 -441.501zM1038 861.002c16 108 4.66699 194.333 -34 259s-103 97 -193 97c-88 0 -162.167 -33.5 -222.5 -100.5s-98.166 -152.167 -113.499 -255.5l-39 -264c-16.667 -109.333 -5.5 -196.333 33.5 -261s104.5 -97 196.5 -97
c85.333 0 158.166 33.667 218.499 101s98.5 153 114.5 257z" />
    <glyph glyph-name="P" unicode="P" horiz-adv-x="1306" 
d="M448 499l-73.999 -499h-338l218 1456h556c166 0 294.667 -44.5 386 -133.5s126.666 -204.167 105.999 -345.5c-22.667 -148.667 -90.5 -265.5 -203.5 -350.5s-256.833 -127.5 -431.5 -127.5h-219zM487.001 759h219c70.667 0 129 20.5 175 61.5s73.667 92.5 83 154.5
c9.33301 66.667 -2 120.167 -34 160.5s-85 60.5 -159 60.5h-218z" />
    <glyph glyph-name="Q" unicode="Q" horiz-adv-x="1447" 
d="M1336 597c-12 -73.333 -31.9971 -141.83 -59.9971 -205.497s-63.333 -120.834 -106 -171.501l182 -218l-242 -167l-176 207c-46.667 -20.667 -95.834 -36.334 -147.501 -47.001s-104.834 -16 -159.501 -16c-177.333 0 -316.5 58.833 -417.5 176.5
s-137.833 264.834 -110.5 441.501l39 262c27.333 185.333 106.166 334.666 236.499 447.999s288.833 170 475.5 170c176 0 314 -58.833 414 -176.5s137 -264.834 111 -441.501zM1038 861.003c16 108 4.66699 194.333 -34 259s-103 97 -193 97
c-88 0 -162.167 -33.5 -222.5 -100.5s-98.166 -152.167 -113.499 -255.5l-39 -264c-16.667 -109.333 -5.5 -196.333 33.5 -261s104.5 -97 196.5 -97c85.333 0 158.166 33.667 218.499 101s98.5 153 114.5 257z" />
    <glyph glyph-name="R" unicode="R" horiz-adv-x="1306" 
d="M457 558l-83.001 -557.999h-338l218 1456h507c162.667 0 289 -39.333 379 -118s125 -185 105 -319c-12.667 -78.667 -42.667 -144.667 -90 -198s-112.666 -96.333 -195.999 -129c82.667 -26 139.834 -68.833 171.501 -128.5s41.5 -132.167 29.5 -217.5l-14 -92
c-6 -39.333 -6.83301 -83 -2.5 -131s18.833 -82.333 43.5 -103l-3 -20h-349c-23.333 20.667 -35.333 56.667 -36 108s2.66602 100.666 9.99902 147.999l14 88c10.667 72 0.666992 125.667 -30 161s-82 53 -154 53h-182zM495.999 818.001l171.999 0.00195312
c65.333 0 118.833 15.667 160.5 47s67.167 75.666 76.5 132.999c8.66699 61.333 -2.66602 109.666 -33.999 144.999s-81 53 -149 53h-169z" />
    <glyph glyph-name="S" unicode="S" horiz-adv-x="1267" 
d="M867 363c8.66699 59.333 -4 103.5 -38 132.5s-100 61.833 -198 98.5c-172.667 56.667 -302 124 -388 202s-120 176.333 -102 295c18 119.333 80.833 213.5 188.5 282.5s237.5 103.5 389.5 103.5c165.333 0 295 -39.667 389 -119s129 -188.333 105 -327l-2 -6h-329
c8 57.333 -6.83301 103.666 -44.5 138.999s-90.167 53 -157.5 53c-49.333 0 -93.666 -12 -132.999 -36s-61.666 -53.333 -66.999 -88c-8 -54 7 -94.333 45 -121s118.667 -61.667 242 -105c157.333 -51.333 274.333 -116.333 351 -195s105.667 -181 87 -307
c-19.333 -124.667 -81.833 -220.167 -187.5 -286.5s-236.5 -99.5 -392.5 -99.5c-160 0 -295.5 36.333 -406.5 109s-153.167 185 -126.5 337l2 6h328c-11.333 -71.333 8.16699 -121.166 58.5 -149.499s111.5 -42.5 183.5 -42.5c49.333 0 94.166 11.833 134.499 35.5
s63.166 53.167 68.499 88.5z" />
    <glyph glyph-name="T" unicode="T" horiz-adv-x="1150" 
d="M1228 1196h-385l-179 -1196h-338l179 1196h-378l39 260h1101z" />
    <glyph glyph-name="U" unicode="U" horiz-adv-x="1417" 
d="M1447 1456l-140.998 -944.001c-26.667 -173.333 -101.5 -305.5 -224.5 -396.5s-274.5 -136.5 -454.5 -136.5c-172.667 0 -309.334 47.667 -410.001 143s-138.334 225.333 -113.001 390l141 944h339l-141 -944c-14.667 -93.333 -2.16699 -162.166 37.5 -206.499
s101.5 -66.5 185.5 -66.5c79.333 0 145.833 23 199.5 69s87.5 114 101.5 204l141 944h339z" />
    <glyph glyph-name="V" unicode="V" horiz-adv-x="1307" 
d="M617 395l2 -53l6 -1l18 50l448 1065h354l-690 -1456h-365l-252 1456h353z" />
    <glyph glyph-name="W" unicode="W" horiz-adv-x="1825" 
d="M1283 513l6 -1l318 944h342l-552 -1456h-318l-110 899l-6 1l-378 -900h-318l-117 1456h343l34 -945l6 -1l389 946h255z" />
    <glyph glyph-name="X" unicode="X" horiz-adv-x="1307" 
d="M711 972l6 -1l309 485h390l-525 -722l339 -734h-410l-173 501l-323 -501h-390l538 734l-309 722h387z" />
    <glyph glyph-name="Y" unicode="Y" horiz-adv-x="1307" 
d="M692 819l6 -1l386 638h366l-636 -944l-76 -512h-337l79 528l-347 928h366z" />
    <glyph glyph-name="Z" unicode="Z" horiz-adv-x="1160" 
d="M445 260h631l-39 -260h-1022l-21 152l713 1044h-534l39 260h972l-21 -146z" />
    <glyph glyph-name="bracketleft" unicode="[" horiz-adv-x="577" 
d="M693 1460h-118l-219 -1564h118l-34 -245h-456l288 2055h456z" />
    <glyph glyph-name="backslash" unicode="\" horiz-adv-x="871" 
d="M122 1456h338l371 -1581h-339z" />
    <glyph glyph-name="bracketright" unicode="]" horiz-adv-x="577" 
d="M178 1706h456l-288 -2055h-456l34 245h119l219 1564h-119z" />
    <glyph glyph-name="asciicircum" unicode="^" horiz-adv-x="916" 
d="M318 729h-253l408 727h249l191 -727h-254l-103 413l-1 17l-6 1l-7 -18z" />
    <glyph glyph-name="underscore" unicode="_" horiz-adv-x="904" 
d="M785 -251h-903l38 251h903z" />
    <glyph glyph-name="grave" unicode="`" horiz-adv-x="695" 
d="M720 1252h-297l-246 260l3 6h370z" />
    <glyph glyph-name="a" unicode="a" horiz-adv-x="1086" 
d="M641 1c-8.66699 22.667 -15.499 48.334 -20.499 77.001s-7.5 58.667 -7.5 90c-38 -57.333 -81 -103.166 -129 -137.499s-106.667 -51.5 -176 -51.5c-109.333 0 -192 29.5 -248 88.5s-76.667 138.167 -62 237.5c16.667 111.333 69 195.166 157 251.499s215 84.5 381 84.5
h139l12 77c6.66699 48 1 83.833 -17 107.5s-50 35.5 -96 35.5c-38 0 -68.333 -9.33301 -91 -28s-36.667 -47 -42 -85l-328 1l-1 6c11.333 102.667 64.833 186.167 160.5 250.5s215.5 96.5 359.5 96.5c129.333 0 231.666 -33.667 306.999 -101s103.666 -162.333 84.999 -285
l-61 -408c-9.33301 -59.333 -12.666 -112.833 -9.99902 -160.5s10 -96.834 22 -147.501zM436.001 220c39.333 0 76.833 9.83105 112.5 29.498s61.834 42.834 78.501 69.501l21 142h-136c-51.333 0 -91.666 -13.167 -120.999 -39.5s-47 -59.166 -53 -98.499
c-4.66699 -32 2.16602 -57.167 20.499 -75.5s44.166 -27.5 77.499 -27.5z" />
    <glyph glyph-name="b" unicode="b" 
d="M1096 518c-26 -170.667 -81 -303.167 -165 -397.5s-196 -141.5 -336 -141.5c-57.333 0 -106 13.167 -146 39.5s-72.333 64.5 -97 114.5l-41 -133h-295l234 1560h338l-88 -583c36 40 75.5 70.833 118.5 92.5s90.5 32.5 142.5 32.5c134 0 230 -51.5 288 -154.5
s74.667 -239.167 50 -408.5zM762 539c14.667 99.333 13.999 174.668 -2.00098 226.001s-57 77 -123 77c-36 0 -68.167 -7.16699 -96.5 -21.5s-52.833 -34.833 -73.5 -61.5l-67 -452c12 -22.667 30.5 -39.667 55.5 -51s56.167 -17 93.5 -17c64 0 111.333 23.667 142 71
s53.334 116.666 68.001 207.999z" />
    <glyph glyph-name="c" unicode="c" horiz-adv-x="1048" 
d="M515 239c44 0 79.666 12.667 106.999 38s44.666 61.333 51.999 108h307l2 -6c-16 -122.667 -71.167 -220 -165.5 -292s-208.166 -108 -341.499 -108c-158 0 -275.667 51.5 -353 154.5s-103.666 234.833 -78.999 395.5l4 23c24.667 168.667 88.5 302.5 191.5 401.5
s237.167 148.5 402.5 148.5c132.667 0 235.5 -38.667 308.5 -116s98.5 -181.666 76.5 -312.999l-2 -5h-309c8 53.333 2.83301 95.666 -15.5 126.999s-50.833 47 -97.5 47c-62.667 0 -111.5 -26.667 -146.5 -80s-58.833 -123.333 -71.5 -210l-4 -23
c-14 -94 -12 -165.833 6 -215.5s60.667 -74.5 128 -74.5z" />
    <glyph glyph-name="d" unicode="d" 
d="M52 539c26 174.667 82.999 312.166 170.999 412.499s199.667 150.5 335 150.5c48.667 0 91.667 -12.167 129 -36.5s68.666 -59.166 93.999 -104.499l90 599h338l-234 -1560h-296l-3 131c-39.333 -48.667 -83.166 -86.167 -131.499 -112.5s-100.5 -39.5 -156.5 -39.5
c-128 0 -222.667 50 -284 150s-79.666 229.667 -54.999 389zM386.999 517.999c-14 -90.667 -11.8311 -159.834 6.50195 -207.501s58.166 -71.5 119.499 -71.5c34 0 65.667 6.83301 95 20.5s54.666 33.5 75.999 59.5l66 434c-12.667 28.667 -31.334 50.667 -56.001 66
s-54.334 23 -89.001 23c-57.333 0 -104.166 -28.167 -140.499 -84.5s-61.166 -129.166 -74.499 -218.499z" />
    <glyph glyph-name="e" unicode="e" horiz-adv-x="1070" 
d="M493 -21c-157.333 0 -276.666 50.167 -357.999 150.5s-110.666 225.5 -87.999 375.5l5 38c25.333 171.333 89.166 307.5 191.499 408.5s237.166 151.167 404.499 150.5c140 0 245 -44.167 315 -132.5s94 -207.5 72 -357.5l-27 -177h-621l-2 -6
c-3.33301 -58 10.667 -104.167 42 -138.5s81.666 -51.5 150.999 -51.5c62 0 116.333 5.5 163 16.5s98.667 27.833 156 50.5l50 -206c-51.333 -34 -118.166 -62.667 -200.499 -86s-166.833 -35 -253.5 -35zM609 842c-52 0 -93.5 -17.167 -124.5 -51.5
s-53.5 -80.5 -67.5 -138.5l2 -6h291l4 26c8.66699 58 5.16699 100.833 -10.5 128.5s-47.167 41.5 -94.5 41.5z" />
    <glyph glyph-name="f" unicode="f" horiz-adv-x="734" 
d="M89 0l127 848.001h-156l35 234h156l17 112c19.333 129.333 70.833 226.166 154.5 290.499s194.5 96.5 332.5 96.5c24.667 0 50.5 -2 77.5 -6s55.833 -9 86.5 -15l-62 -249c-18 3.33301 -34 5.83301 -48 7.5s-31 2.5 -51 2.5c-41.333 0 -75.5 -11.167 -102.5 -33.5
s-43.167 -53.5 -48.5 -93.5l-17 -112h214l-35 -234h-214l-127 -848h-339z" />
    <glyph glyph-name="g" unicode="g" 
d="M51 539c26 174.667 82.999 312.166 170.999 412.499s199.667 150.5 335 150.5c55.333 0 102.5 -14 141.5 -42s70.833 -67.667 95.5 -119l44 141h298l-160 -1070c-22.667 -148 -88 -259.833 -196 -335.5s-248.667 -113.5 -422 -113.5c-54 0 -111.333 7.66699 -172 23
s-116.334 36 -167.001 62l96 250c45.333 -21.333 89.333 -37.166 132 -47.499s92.667 -15.5 150 -15.5c69.333 0 124.333 14.5 165 43.5s65.667 74.167 75 135.5l12 83c-36.667 -38.667 -76.667 -68 -120 -88s-90.666 -30 -141.999 -30c-128 0 -222.667 50 -284 150
s-79.666 229.667 -54.999 389zM384.999 517.999c-14 -90.667 -11.833 -159.834 6.5 -207.501s58.5 -71.5 120.5 -71.5c36 0 68.167 6 96.5 18s52.5 30 72.5 54l68 451c-12.667 26 -31 45.833 -55 59.5s-54 20.5 -90 20.5c-57.333 0 -104.333 -28.167 -141 -84.5
s-61.667 -129.166 -75 -218.499z" />
    <glyph glyph-name="h" unicode="h" 
d="M487 955c40 47.333 85.168 83.667 135.501 109s104.166 38 161.499 38c108 0 189.167 -39.5 243.5 -118.5s69.166 -199.5 44.499 -361.5l-93 -622h-338l94 624c12 86 9.83301 143.833 -6.5 173.5s-46.5 44.5 -90.5 44.5c-37.333 0 -70.666 -5.83301 -99.999 -17.5
s-55.333 -28.167 -78 -49.5l-116 -775h-338l234 1560h338z" />
    <glyph glyph-name="i" unicode="i" horiz-adv-x="561" 
d="M370 0h-339l162 1082h339zM570 1333h-339l34 227h339z" />
    <glyph glyph-name="j" unicode="j" horiz-adv-x="548" 
d="M536 1082l-164 -1097c-21.333 -140 -73.166 -245.333 -155.499 -316s-188.5 -106 -318.5 -106c-28 0 -54.333 1.33301 -79 4s-50.334 7 -77.001 13l52 255c18.667 -4 34.667 -7 48 -9s30.333 -3 51 -3c36.667 0 67.167 13.833 91.5 41.5s40.5 67.834 48.5 120.501
l164 1097h339zM568 1334h-339l34 226h339z" />
    <glyph glyph-name="k" unicode="k" horiz-adv-x="1119" 
d="M479 430h-61l-64 -430h-338l234 1560h338l-132 -875h49l287 397h380l2 -5l-400 -483l298 -594h-385z" />
    <glyph glyph-name="l" unicode="l" horiz-adv-x="561" 
d="M370 0h-339l234 1560h339z" />
    <glyph glyph-name="m" unicode="m" horiz-adv-x="1764" 
d="M487 944c41.333 50.667 89.834 89.666 145.501 116.999s117.167 41 184.5 41c64 0 118.333 -14.5 163 -43.5s75.334 -73.167 92.001 -132.5c41.333 56.667 90.666 100.167 147.999 130.5s121.666 45.5 192.999 45.5c101.333 0 177.5 -38.167 228.5 -114.5
s64.833 -192.5 41.5 -348.5l-96 -639h-339l96 639c12 80.667 9.5 134.667 -7.5 162s-47.833 41 -92.5 41c-32 0 -61.5 -6.16699 -88.5 -18.5s-50.833 -29.166 -71.5 -50.499l-6 -51l-108 -722h-338l96 639c12 80.667 9.5 134.667 -7.5 162s-48.167 41 -93.5 41
c-29.333 0 -57.333 -6 -84 -18s-51 -28.667 -73 -50l-116 -774h-338l162 1082h318z" />
    <glyph glyph-name="n" unicode="n" 
d="M480 935c43.333 53.333 93.168 94.499 149.501 123.499s116.5 43.5 180.5 43.5c102 0 178.333 -36.333 229 -109s64.667 -186.667 42 -342l-98 -651h-338l98 652c10.667 71.333 7.16699 120.833 -10.5 148.5s-47.834 41.5 -90.501 41.5
c-35.333 0 -68.333 -6.66699 -99 -20s-57.667 -31.666 -81 -54.999l-115 -767h-337l162 1082h317z" />
    <glyph glyph-name="o" unicode="o" 
d="M54 551c24.667 168.667 89.998 302.667 195.998 402s242.333 149 409 149c158.667 0 277.834 -51.667 357.501 -155s107.834 -235.333 84.501 -396l-3 -21c-26 -169.333 -91.833 -303.5 -197.5 -402.5s-241.5 -148.5 -407.5 -148.5c-159.333 0 -279 51.5 -359 154.5
s-107.667 235.167 -83 396.5zM388.998 530c-14.667 -93.333 -11.667 -165.169 9 -215.502s65.334 -75.5 134.001 -75.5c63.333 0 113.833 26.333 151.5 79s63.5 123.334 77.5 212.001l3 21c13.333 90.667 9.66602 161.834 -11.001 213.501s-65 77.5 -133 77.5
c-64 0 -115 -27 -153 -81s-63 -124 -75 -210z" />
    <glyph glyph-name="p" unicode="p" 
d="M1096 518c-26 -168.667 -82.334 -300.667 -169.001 -396s-197.334 -143 -332.001 -143c-51.333 0 -95.666 10.5 -132.999 31.5s-68.333 51.833 -93 92.5l-77 -519h-338l224 1498h319l-7 -118c36.667 44 77.5 78 122.5 102s94.5 36 148.5 36
c128.667 0 223.334 -52.167 284.001 -156.5s78.667 -239.833 54 -406.5zM761.999 539c13.333 94 10.835 167.998 -7.49805 221.998s-56.833 81 -115.5 81c-36.667 0 -69.334 -7.33301 -98.001 -22s-53.334 -36 -74.001 -64l-67 -448
c12.667 -23.333 31.5 -40.666 56.5 -51.999s56.5 -17 94.5 -17c57.333 0 102.833 24.833 136.5 74.5s57.5 117.834 71.5 204.501z" />
    <glyph glyph-name="q" unicode="q" 
d="M52 539c26 174.667 82.999 312.167 170.999 412.5s199.667 150.5 335 150.5c54.667 0 101.667 -13.833 141 -41.5s71.333 -67.167 96 -118.5l48 140h295l-224 -1498h-338l77 516c-37.333 -39.333 -77.833 -69.333 -121.5 -90s-91.5 -31 -143.5 -31
c-128 0 -222.667 50 -284 150s-79.666 229.667 -54.999 389zM386.999 518c-14 -90.667 -11.8359 -159.834 6.49707 -207.501s58.166 -71.5 119.499 -71.5c36.667 0 69.334 6.16699 98.001 18.5s53.334 30.833 74.001 55.5l67 447c-12.667 26.667 -31.167 47 -55.5 61
s-54.833 21 -91.5 21c-57.333 0 -104.166 -28.167 -140.499 -84.5s-61.166 -129.166 -74.499 -218.499z" />
    <glyph glyph-name="r" unicode="r" horiz-adv-x="722" 
d="M733 794l-110.001 0.999023c-37.333 0 -69.666 -7.5 -96.999 -22.5s-49.333 -35.833 -66 -62.5l-106 -710h-338l162 1082h318l-11 -148l5 -3c28 54.667 62.667 96.834 104 126.501s87.333 44.5 138 44.5c14.667 0 28.167 -1 40.5 -3s24.833 -5 37.5 -9z" />
    <glyph glyph-name="s" unicode="s" horiz-adv-x="1048" 
d="M628 304c3.33301 27.333 -8.50195 51.3301 -35.502 71.9971s-79.833 39.334 -158.5 56.001c-122.667 24.667 -212.334 62.834 -269.001 114.501s-78.667 122.834 -66 213.501c13.333 98.667 64.333 180.334 153 245.001s202 97 340 97
c138.667 0 247.334 -32.5 326.001 -97.5s109.334 -147.833 92.001 -248.5l-2 -6h-329c6 44 -0.166992 76.667 -18.5 98s-51.833 32 -100.5 32c-34.667 0 -65.667 -9.66699 -93 -29s-42.666 -44 -45.999 -74c-4.66699 -29.333 5.5 -53.833 30.5 -73.5s78.5 -37.5 160.5 -53.5
c128.667 -26 221 -64.833 277 -116.5s77.667 -124.834 65 -219.501c-14.667 -101.333 -68.834 -182.5 -162.501 -243.5s-212.5 -91.5 -356.5 -91.5c-140.667 0 -250 37.667 -328 113s-108.667 158.333 -92 249l2 6h306c-6 -51.333 4.16699 -88.333 30.5 -111
s66.833 -34 121.5 -34c44 0 79.333 9 106 27s42.334 43 47.001 75z" />
    <glyph glyph-name="t" unicode="t" horiz-adv-x="723" 
d="M607 1351l-40.999 -268.999h171l-35 -234h-171l-74 -496c-6.66699 -40.667 -3.5 -69 9.5 -85s33.167 -24 60.5 -24c16.667 0 30.667 0.666992 42 2s25 4 41 8l-15 -250c-34.667 -8.66699 -66 -14.834 -94 -18.501s-60.667 -5.5 -98 -5.5c-107.333 0 -186.333 30 -237 90
s-66.334 153.667 -47.001 281l74 498h-151l35 234h151l41 269h338z" />
    <glyph glyph-name="u" unicode="u" 
d="M693 157c-41.333 -58 -89.667 -102.167 -145 -132.5s-116.666 -45.5 -183.999 -45.5c-108 0 -189 39.667 -243 119s-68.667 200.666 -44 363.999l93 620h337l-93 -622c-13.333 -88 -11.5 -146.833 5.5 -176.5s48.5 -44.5 94.5 -44.5c35.333 0 67.666 5.33301 96.999 16
s55 26.334 77 47.001l117 780h338l-162 -1082h-272z" />
    <glyph glyph-name="v" unicode="v" horiz-adv-x="1053" 
d="M488 446l3 -115l6 -1l39 116l238 636h355l-514 -1082h-343l-190 1082h356z" />
    <glyph glyph-name="w" unicode="w" horiz-adv-x="1485" 
d="M1016 477h6l198 605h322l-416 -1082h-286l-92 554l-6 1l-261 -555h-285l-93 1082h322l17 -608l6 -1l268 609h213z" />
    <glyph glyph-name="x" unicode="x" horiz-adv-x="1053" 
d="M558 764l6 -1l185 319h379l-394 -535l243 -547h-379l-95 329h-6l-193 -329h-379l407 547l-235 535h377z" />
    <glyph glyph-name="y" unicode="y" horiz-adv-x="1053" 
d="M507 477l-0.000976562 -5l6 -2l270 612h360l-617 -1243c-44.667 -80 -97.5 -146 -158.5 -198s-148.833 -78 -263.5 -78c-28 0 -51.667 2 -71 6s-47.666 10.667 -84.999 20l78 241c8 -2 14.5 -3.5 19.5 -4.5s11.167 -1.5 18.5 -1.5c50.667 0 90.167 8 118.5 24
s50.833 39.333 67.5 70l37 70l-210 1094h359z" />
    <glyph glyph-name="z" unicode="z" horiz-adv-x="1053" 
d="M456 265l2 -5h485l-39 -260h-919l28 188l571 629l-2 5h-453l39 260h888l-27 -182z" />
    <glyph glyph-name="braceleft" unicode="{" horiz-adv-x="665" 
d="M437 -360c-125.333 36.667 -210.004 94.9971 -254.004 174.997s-57.667 177 -41 291l28 203c8.66699 64 2.33398 112.667 -18.999 146s-59.666 50 -114.999 50l8 61l23 166c52.667 0 95.167 17.333 127.5 52s53.166 83 62.499 145l28 203
c16 118 56.833 215.833 122.5 293.5s166.834 134.834 303.501 171.501l38 -176c-51.333 -19.333 -90.166 -53.666 -116.499 -102.999s-44.833 -111.333 -55.5 -186l-28 -203c-10.667 -72.667 -35 -135.667 -73 -189s-90.667 -94.666 -158 -123.999
c56.667 -31.333 97 -73.833 121 -127.5s31.667 -113.5 23 -179.5l-28 -203c-11.333 -77.333 -10.666 -139.833 2.00098 -187.5s42 -81.5 88 -101.5z" />
    <glyph glyph-name="bar" unicode="|" horiz-adv-x="523" 
d="M268 -270h-246l258 1726h246z" />
    <glyph glyph-name="braceright" unicode="}" horiz-adv-x="665" 
d="M-60 -183c50.667 19.333 89.333 53.6689 116 103.002s45.334 111.333 56.001 186l28 203c9.33301 72 33.166 134.667 71.499 188s91.5 95 159.5 125c-57.333 30.667 -98 72.667 -122 126s-31.333 113.666 -22 180.999l28 203c10.667 76.667 9.66699 139 -3 187
s-41.667 82 -87 102l88 176c124 -36.667 208 -94.834 252 -174.501s58 -176.5 42 -290.5l-28 -203c-9.33301 -64.667 -3.33301 -113.667 18 -147s60 -50 116 -50l-9 -61h1l-23 -166c-53.333 0 -96.166 -17.5 -128.499 -52.5s-52.833 -82.833 -61.5 -143.5l-28 -203
c-16.667 -118 -57.834 -216 -123.501 -294s-166.167 -135.333 -301.5 -172z" />
    <glyph glyph-name="asciitilde" unicode="~" horiz-adv-x="1295" 
d="M1230 769c-17.333 -120.667 -60.4971 -217.832 -129.497 -291.499s-149.833 -110.5 -242.5 -110.5c-53.333 0 -102.833 10.333 -148.5 31s-89.834 53.667 -132.501 99c-27.333 28.667 -51 49 -71 61s-43.667 18 -71 18c-28 0 -54.833 -16.833 -80.5 -50.5
s-41.5 -73.834 -47.5 -120.501l-227 30c16.667 121.333 59 218.5 127 291.5s148.667 109.5 242 109.5c52 0 102.167 -11 150.5 -33s93.166 -54 134.499 -96c25.333 -28.667 48.166 -49 68.499 -61s43.5 -18 69.5 -18c28 0 55 16.833 81 50.5s42.333 74.167 49 121.5z" />
    <glyph glyph-name="nonbreakingspace" unicode="&#xa0;" horiz-adv-x="510" 
 />
    <glyph glyph-name="exclamdown" unicode="&#xa1;" horiz-adv-x="615" 
d="M344 -374h-339l141 940h339zM520 799h-339l42 283h339z" />
    <glyph glyph-name="cent" unicode="&#xa2;" horiz-adv-x="1210" 
d="M515 239c44 0 79.666 12.665 106.999 37.998s44.666 61.333 51.999 108h308l3 -6c-13.333 -97.333 -51.833 -179.166 -115.5 -245.499s-143.5 -111.5 -239.5 -135.5l-36 -243h-200l34 226c-142.667 11.333 -248 67.5 -316 168.5s-90.667 227.5 -68 379.5l4 23
c23.333 160 82.333 289 177 387s218.334 151.667 371.001 161l33 218h200l-36 -237c87.333 -27.333 152.833 -76.666 196.5 -147.999s57.834 -159.666 42.501 -264.999h-316c8 53.333 2.83301 95.666 -15.5 126.999s-50.833 47 -97.5 47
c-62.667 0 -111.5 -26.667 -146.5 -80s-58.833 -123.333 -71.5 -210l-4 -23c-14 -94 -12 -165.833 6 -215.5s60.667 -74.5 128 -74.5z" />
    <glyph glyph-name="sterling" unicode="&#xa3;" horiz-adv-x="1227" 
d="M617 575l-5.00098 -50.999c-8 -50.667 -26.5 -98.5 -55.5 -143.5s-67.167 -85.167 -114.5 -120.5h689l-39 -260h-1006l39 260h10c32.667 8 60.334 36.833 83.001 86.5s38.334 101.834 47.001 156.501l8 72h-164l39 261h154l21 185
c21.333 147.333 79.166 260.166 173.499 338.499s212.166 117.5 353.499 117.5c142.667 0 250.334 -38.667 323.001 -116s98.334 -178.333 77.001 -303l-3 -6h-330c8.66699 59.333 2.66699 101.666 -18 126.999s-50.334 38 -89.001 38c-36.667 0 -68.5 -17.167 -95.5 -51.5
s-44.833 -82.5 -53.5 -144.5l-19 -185h325l-39 -261h-311z" />
    <glyph glyph-name="currency" unicode="&#xa4;" horiz-adv-x="1397" 
d="M1000 105c-56.667 -40.667 -117.672 -71.667 -183.005 -93s-132 -32 -200 -32c-65.333 0 -126.833 11 -184.5 33s-109.167 54 -154.5 96l-152 -135l-119 144l158 140c-25.333 50.667 -42.5 105.667 -51.5 165s-8.5 121 1.5 185c10 70 28.833 136 56.5 198
s62.5 118.667 104.5 170l-119 144l163 144l118 -142c54.667 36 113.334 63.667 176.001 83s126.334 29 191.001 29c62 0 121 -10.5 177 -31.5s106.333 -50.5 151 -88.5l170 151l120 -145l-173 -153c26.667 -52 44.834 -108.333 54.501 -169s9.83398 -124 0.500977 -190
c-10.667 -66.667 -28.667 -129.5 -54 -188.5s-56.666 -113.5 -93.999 -163.5l116 -138l-164 -145zM300.995 608c-19.333 -127.333 4.33398 -231.666 71.001 -312.999s158 -122 274 -122c109.333 0 211 42.167 305 126.5s150.333 187.166 169 308.499
c18.667 126.667 -5.33301 230.667 -72 312s-157.334 122 -272.001 122c-110.667 0 -213 -42.167 -307 -126.5s-150 -186.833 -168 -307.5z" />
    <glyph glyph-name="yen" unicode="&#xa5;" horiz-adv-x="1258" 
d="M680 878l6 -1l330 579h366l-473 -714h213l-27 -184h-296l-15 -106h295l-28 -183h-295l-40 -269h-337l40 269h-323l28 183h323l15 106h-322l27 184h249l-260 714h367z" />
    <glyph glyph-name="brokenbar" unicode="&#xa6;" horiz-adv-x="524" 
d="M-2 -270l120 795h292l-119 -795h-293zM436 698h-292l113 758h292z" />
    <glyph glyph-name="section" unicode="&#xa7;" horiz-adv-x="1301" 
d="M1191 500c-9.33301 -62 -30.3281 -115.502 -62.9951 -160.502s-75.667 -81.833 -129 -110.5c39.333 -34.667 66.666 -75.5 81.999 -122.5s18.333 -102.833 9 -167.5c-19.333 -124.667 -81 -219.5 -185 -284.5s-238.333 -97.5 -403 -97.5
c-153.333 0 -278.666 32.833 -375.999 98.5s-133.666 170.167 -108.999 313.5l2 6h329c-9.33301 -60.667 4.16699 -102 40.5 -124s87.166 -33 152.499 -33c60 0 108.667 10.833 146 32.5s59 50.834 65 87.501c5.33301 39.333 -8.16699 70.333 -40.5 93
s-97.833 48.667 -196.5 78c-158 42.667 -272 95 -342 157s-96.667 149.333 -80 262c9.33301 60.667 30.5 113.834 63.5 159.501s76.833 83.167 131.5 112.5c-40.667 34 -69 74.5 -85 121.5s-19 103.167 -9 168.5c17.333 121.333 79.333 216.166 186 284.499
s242 102.5 406 102.5c160 0 282.667 -37.167 368 -111.5s116.666 -177.166 93.999 -308.499l-2 -6h-329c6.66699 50.667 -4.33301 91 -33 121s-74.334 45 -137.001 45c-63.333 0 -113.666 -11.833 -150.999 -35.5s-58.333 -53.5 -63 -89.5
c-6.66699 -44 4.66602 -76.5 33.999 -97.5s95.666 -45.833 198.999 -74.5c159.333 -41.333 274.166 -93.5 344.499 -156.5s97.166 -150.833 80.499 -263.5zM615.005 651.998c-18 4.66699 -35.667 9.83398 -53 15.501l-57 19.5c-19.333 -14 -34.833 -31.333 -46.5 -52
s-19.167 -43 -22.5 -67c-8 -48.667 2.16699 -84.5 30.5 -107.5s94.833 -51.167 199.5 -84.5l59 -18l52 -16c20.667 14 37.5 31.167 50.5 51.5s21.5 43.166 25.5 68.499c6 42.667 -7.5 77 -40.5 103s-98.833 55 -197.5 87z" />
    <glyph glyph-name="dieresis" unicode="&#xa8;" horiz-adv-x="1123" 
d="M1053 1252h-290l29 204h290zM538 1252h-290l29 204h290z" />
    <glyph glyph-name="copyright" unicode="&#xa9;" horiz-adv-x="1608" 
d="M1116 596l2.00195 -6c-12.667 -104 -51.834 -181.333 -117.501 -232s-151.5 -76 -257.5 -76c-102.667 0 -181.167 35.833 -235.5 107.5s-72.833 164.834 -55.5 279.501l18 119c17.333 119.333 62.5 213.666 135.5 282.999s163.5 104 271.5 104
c101.333 0 178.333 -26.833 231 -80.5s70.334 -129.834 53.001 -228.501l-2 -5h-149c9.33301 64.667 1.33301 110.667 -24 138s-68.333 41 -129 41s-111.834 -23.167 -153.501 -69.5s-67.834 -106.833 -78.501 -181.5l-18 -120c-12 -79.333 -4.66699 -141.166 22 -185.499
s71.667 -66.5 135 -66.5c58 0 104.333 14 139 42s56.667 73.667 66 137h147zM236.002 729c-27.333 -182.667 7.00195 -332.5 103.002 -449.5s226.667 -175.5 392 -175.5c156.667 0 302.5 60.667 437.5 182s215.833 269 242.5 443
c27.333 182 -6.83398 331.167 -102.501 447.5s-225.834 174.5 -390.501 174.5c-158 0 -304.667 -60.333 -440 -181s-216 -267.667 -242 -441zM114.004 729c32.667 218 127.83 396.999 285.497 536.999s336.5 210 536.5 210c188.667 0 343.334 -72.667 464.001 -218
s165.334 -321.666 134.001 -528.999c-32.667 -218.667 -128.167 -398.334 -286.5 -539.001s-336.833 -211 -535.5 -211c-189.333 0 -344.166 72.833 -464.499 218.5s-164.833 322.834 -133.5 531.501z" />
    <glyph glyph-name="ordfeminine" unicode="&#xaa;" horiz-adv-x="904" 
d="M626 706c-3.33301 14 -5.50293 28.832 -6.50293 44.499s-1.16699 32.167 -0.5 49.5c-26.667 -31.333 -60.167 -57.166 -100.5 -77.499s-86.166 -30.5 -137.499 -30.5c-76 0 -133.5 20.667 -172.5 62s-53.167 96.666 -42.5 165.999c11.333 76 47.833 133.5 109.5 172.5
s147.167 58.5 256.5 58.5h136l8 51c6 42.667 1 74.5 -15 95.5s-43.333 31.5 -82 31.5c-42 0 -76.833 -8.66699 -104.5 -26s-43.5 -41.666 -47.5 -72.999l-162 13l-1 6c6 68 40.167 123 102.5 165s140.833 63 235.5 63c86 0 152.333 -24 199 -72s63.334 -116 50.001 -204
l-47 -314c-5.33301 -34.667 -8.16602 -66.5 -8.49902 -95.5s2.16699 -57.5 7.5 -85.5h-177zM444.997 835.999c32 0 67.833 9.83301 107.5 29.5s67.167 41.167 82.5 64.5l16 104h-136c-47.333 0 -87 -10.833 -119 -32.5s-50 -47.5 -54 -77.5
c-4.66699 -29.333 1.33301 -51.333 18 -66s45 -22 85 -22z" />
    <glyph glyph-name="guillemotleft" unicode="&#xab;" horiz-adv-x="1054" 
d="M341 515l172 -399h-206l-214 390l1 6l1 7l1 6l331 390h206zM676 515l172 -399h-206l-214 390l1 6l1 7l1 6l331 390h206z" />
    <glyph glyph-name="logicalnot" unicode="&#xac;" horiz-adv-x="1124" 
d="M975 634l-39 -260h-200l39 260h-635l26 171h835z" />
    <glyph glyph-name="uni00AD" unicode="&#xad;" horiz-adv-x="875" 
d="M719 497h-589l39 261h589z" />
    <glyph glyph-name="registered" unicode="&#xae;" horiz-adv-x="1608" 
d="M114 729c32.667 218 127.83 396.999 285.497 536.999s336.5 210 536.5 210c188.667 0 343.334 -72.667 464.001 -218s165.334 -321.666 134.001 -528.999c-32.667 -218.667 -128.167 -398.334 -286.5 -539.001s-336.833 -211 -535.5 -211
c-189.333 0 -344.166 72.833 -464.499 218.5s-164.833 322.834 -133.5 531.501zM235.996 728.999c-27.333 -182.667 7.00195 -332.5 103.002 -449.5s226.667 -175.5 392 -175.5c156.667 0 302.5 60.667 437.5 182s215.833 269 242.5 443
c27.333 182 -6.83398 331.167 -102.501 447.5s-225.834 174.5 -390.501 174.5c-158 0 -304.667 -60.333 -440 -181s-216 -267.667 -242 -441zM668.998 652.999l-50.998 -337h-151l128 850h281c96.667 0 171.334 -23.167 224.001 -69.5s73 -111.166 61 -194.499
c-6 -39.333 -20.333 -73.166 -43 -101.499s-53 -51.833 -91 -70.5c32.667 -21.333 54.667 -50.333 66 -87s13.666 -79.334 6.99902 -128.001l-8 -56c-4.66699 -28.667 -7.33398 -53.5 -8.00098 -74.5s1.33301 -38.5 6 -52.5l-3 -16h-155
c-3.33301 14 -3.83301 33.667 -1.5 59s5.83301 53.666 10.5 84.999l8 54c7.33301 49.333 1.66602 84.833 -17.001 106.5s-53.667 32.5 -105 32.5h-158zM689 786.999h128c48 0 91 10.167 129 30.5s59.667 48.833 65 85.5c7.33301 50 -0.166992 84.167 -22.5 102.5
s-66.5 27.5 -132.5 27.5h-130z" />
    <glyph glyph-name="macron" unicode="&#xaf;" horiz-adv-x="1065" 
d="M1000 1285h-734l24 173h734z" />
    <glyph glyph-name="macron" unicode="&#x2c9;" horiz-adv-x="1065" 
d="M1000 1285h-734l24 173h734z" />
    <glyph glyph-name="degree" unicode="&#xb0;" horiz-adv-x="813" 
d="M225 1197c11.333 80 48.5 146.833 111.5 200.5s133.5 80.5 211.5 80.5c72 0 131.667 -27.833 179 -83.5s65.333 -121.5 54 -197.5c-12.667 -80 -49.667 -146.167 -111 -198.5s-130 -78.5 -206 -78.5c-74.667 0 -136.167 27.167 -184.5 81.5s-66.5 119.5 -54.5 195.5z
M380 1197c-6 -36.667 1.50098 -66.5 22.501 -89.5s49.167 -34.5 84.5 -34.5c32.667 0 62.667 11.667 90 35s44 53 50 89c5.33301 37.333 -1.83398 68 -21.501 92s-46.5 36 -80.5 36c-33.333 0 -64.5 -12.5 -93.5 -37.5s-46.167 -55.167 -51.5 -90.5z" />
    <glyph glyph-name="plusminus" unicode="&#xb1;" horiz-adv-x="1103" 
d="M752 994h312l-38 -271h-312l-51 -368h-293l51 368h-311l38 271h311l48 339h293zM854 -66h-834l39 264h834z" />
    <glyph glyph-name="twosuperior" unicode="&#xb2;" horiz-adv-x="856" 
d="M766 667h-636.997l25 167l350 247c42.667 30.667 70.667 56.5 84 77.5s22.333 45.167 27 72.5c2.66699 24 -1.83301 43.667 -13.5 59s-32.834 23 -63.501 23c-31.333 0 -57 -9.66699 -77 -29s-32 -44.333 -36 -75h-218l-2 6c8 75.333 45.667 138.166 113 188.499
s151.666 75.5 252.999 75.5c94.667 0 166.5 -22.167 215.5 -66.5s67.833 -105.166 56.5 -182.499c-9.33301 -58 -35.833 -108 -79.5 -150s-114.834 -97.667 -213.501 -167l-97 -73l1 -6h337z" />
    <glyph glyph-name="threesuperior" unicode="&#xb3;" horiz-adv-x="846" 
d="M390 1139h100.997c38.667 0 68.834 7.83301 90.501 23.5s34.834 37.834 39.501 66.501c3.33301 24 -1.66699 43.833 -15 59.5s-36.666 23.5 -69.999 23.5c-31.333 0 -56.833 -7 -76.5 -21s-30.834 -30 -33.501 -48h-218l-1 6c6.66699 72.667 42.667 129 108 169
s144.666 60 237.999 60c99.333 0 177 -20 233 -60s78.667 -96.333 68 -169c-6 -38 -22.833 -72.167 -50.5 -102.5s-63.167 -53.833 -106.5 -70.5c43.333 -16 75.333 -39.833 96 -71.5s28 -69.5 22 -113.5c-12 -78 -50.333 -136.833 -115 -176.5s-149.667 -59.5 -255 -59.5
c-99.333 0 -178.666 21.833 -237.999 65.5s-81 103.5 -65 179.5l2 6h220c-4.66699 -28.667 1.5 -49.834 18.5 -63.501s45.167 -20.5 84.5 -20.5c31.333 0 58.333 7.16699 81 21.5s36.334 35.5 41.001 63.5c4 30.667 -4 54.667 -24 72s-51.333 26 -94 26h-101l14 94z" />
    <glyph glyph-name="acute" unicode="&#xb4;" horiz-adv-x="762" 
d="M451 1518h370l2 -6l-318 -260h-291l-2 5z" />
    <glyph glyph-name="mu" unicode="&#xb5;" horiz-adv-x="1313" 
d="M552 1082l-92.999 -619.998c-13.333 -88 -9.33301 -146.5 12 -175.5s60.666 -43.5 117.999 -43.5c43.333 0 81.166 8.16699 113.499 24.5s59.833 40.166 82.5 71.499l111 743h337l-162 -1082h-317l3 49c-32 -23.333 -66.5 -40.833 -103.5 -52.5
s-76.167 -17.5 -117.5 -17.5c-27.333 0 -53.166 3.16699 -77.499 9.5s-46.5 15.166 -66.5 26.499l-64 -431h-338l224 1498h338z" />
    <glyph glyph-name="paragraph" unicode="&#xb6;" horiz-adv-x="1113" 
d="M555 0l77.999 520h-83c-149.333 0 -262.166 43.667 -338.499 131s-104.166 199.666 -83.499 336.999c21.333 142.667 81.166 256.334 179.499 341.001s225.833 127 382.5 127h422l-218 -1456h-339z" />
    <glyph glyph-name="periodcentered" unicode="&#xb7;" horiz-adv-x="657" 
d="M497 539h-338l42 284h338z" />
    <glyph glyph-name="cedilla" unicode="&#xb8;" horiz-adv-x="569" 
d="M295 10l-20.001 -60.999c41.333 -7.33301 74.333 -24.833 99 -52.5s33 -67.834 25 -120.501c-12 -78.667 -53.167 -139.667 -123.5 -183s-166.166 -65 -287.499 -65l21 186c26 0 48 6.33301 66 19s29.333 32 34 58c3.33301 26 -4 44 -22 54s-51.667 16.333 -101 19
l53 146h256z" />
    <glyph glyph-name="onesuperior" unicode="&#xb9;" horiz-adv-x="579" 
d="M445 665h-228l93 619h-127l25 170l359 23z" />
    <glyph glyph-name="ordmasculine" unicode="&#xba;" horiz-adv-x="938" 
d="M208 1142c15.333 102 58.835 183.333 130.502 244s160.5 91 266.5 91c101.333 0 179.666 -31.5 234.999 -94.5s75.666 -143.167 60.999 -240.5l-17 -117c-16 -103.333 -59.333 -184.833 -130 -244.5s-159 -89.5 -265 -89.5c-102 0 -180.833 31.167 -236.5 93.5
s-76.167 142.5 -61.5 240.5zM366.002 1025c-9.33301 -58.667 -1.83301 -104.667 22.5 -138s65.166 -50 122.499 -50c52.667 0 96.667 17.333 132 52s57.333 80 66 136l17 117c8.66699 57.333 0.833984 102.833 -23.499 136.5s-64.5 50.5 -120.5 50.5
c-53.333 0 -97.833 -17.667 -133.5 -53s-57.5 -80 -65.5 -134z" />
    <glyph glyph-name="guillemotright" unicode="&#xbb;" horiz-adv-x="1054" 
d="M333 551l-172 399h207l213 -390l-2 -13l-1 -6l-330 -390h-207zM679 551l-172 399h207l213 -390l-2 -13l-1 -6l-330 -390h-207z" />
    <glyph glyph-name="onequarter" unicode="&#xbc;" horiz-adv-x="1441" 
d="M534 664h-228l93 619h-127l25 170l359 23zM389 117l-145 79l882 1138l145 -79zM1369 302h89l-25 -168h-89l-20 -134h-230l20 134h-407l5 137l501 527l1 3h230zM952 308l3 -6h184l34 233l-5 2l-16 -19z" />
    <glyph glyph-name="onehalf" unicode="&#xbd;" horiz-adv-x="1473" 
d="M402 117l-145 79l882 1138l145 -79zM534 664h-228l93 619h-127l25 170l359 23zM1477 0h-636.999l25 167l350 247c42 30.667 69.833 56.667 83.5 78s22.834 45.333 27.501 72c2.66699 24 -1.83301 43.667 -13.5 59s-32.834 23 -63.501 23c-31.333 0 -57 -9.66699 -77 -29
s-32 -44.333 -36 -75h-218l-2 6c8 75.333 45.667 138.166 113 188.499s151.666 75.5 252.999 75.5c94.667 0 166.334 -22.167 215.001 -66.5s67.334 -105.166 56.001 -182.499c-8.66699 -58 -34.834 -108 -78.501 -150s-114.834 -97.667 -213.501 -167l-97 -73l1 -6h337z
" />
    <glyph glyph-name="threequarters" unicode="&#xbe;" horiz-adv-x="1683" 
d="M572 117l-145 79l882 1138l145 -79zM1558 302h89l-25 -168h-89l-20 -134h-230l20 134h-407l5 137l501 527l1 3h230zM1141 308l3 -6h184l34 233l-5 2l-16 -19zM406 1140h100.995c38.667 0 68.834 7.83301 90.501 23.5s34.834 37.834 39.501 66.501
c3.33301 24 -1.66699 43.833 -15 59.5s-36.666 23.5 -69.999 23.5c-31.333 0 -56.666 -7 -75.999 -21s-30.333 -30 -33 -48h-218l-1 6c6.66699 72.667 42.5 129 107.5 169s144.167 60 237.5 60c99.333 0 177 -20 233 -60s78.667 -96.333 68 -169
c-6 -38 -22.833 -72.167 -50.5 -102.5s-63.167 -53.833 -106.5 -70.5c43.333 -16 75.333 -39.833 96 -71.5s28 -69.5 22 -113.5c-12 -78 -50.333 -136.833 -115 -176.5s-149.667 -59.5 -255 -59.5c-99.333 0 -178.5 21.833 -237.5 65.5s-80.833 103.5 -65.5 179.5l2 6h220
c-4.66699 -28.667 1.5 -49.834 18.5 -63.501s45.167 -20.5 84.5 -20.5c31.333 0 58.333 7.16699 81 21.5s36.334 35.5 41.001 63.5c4 30.667 -4 54.667 -24 72s-51.333 26 -94 26h-101l14 94z" />
    <glyph glyph-name="questiondown" unicode="&#xbf;" horiz-adv-x="1047" 
d="M786 666c-15.333 -93.333 -42.832 -163.333 -82.499 -210s-107.167 -100 -202.5 -160c-49.333 -28.667 -89.833 -63.667 -121.5 -105s-51.5 -88.666 -59.5 -141.999c-8.66699 -57.333 -0.5 -102.333 24.5 -135s65.833 -49 122.5 -49c42 0 80.333 13.833 115 41.5
s57 68.167 67 121.5h329l1 -6c-19.333 -138.667 -79.333 -242.834 -180 -312.501s-224.334 -104.5 -371.001 -104.5c-154 0 -271.667 40.333 -353 121s-112.333 188.334 -93 323.001c12.667 86 48.667 163 108 231s131.333 122.667 216 164c46 27.333 79 57.166 99 89.499
s34.333 76.5 43 132.5h338zM511.001 1082h336l-40 -270h-336z" />
    <glyph glyph-name="Agrave" unicode="&#xc0;" horiz-adv-x="1307" 
d="M840 283h-432l-127 -283h-356l693 1456h181v-1l1 1h181l258 -1456h-356zM524 543h277l-67 451l-6 1zM976 1599h-297l-246 260l3 6h370z" />
    <glyph glyph-name="Aacute" unicode="&#xc1;" horiz-adv-x="1307" 
d="M840 283h-432l-127 -283h-356l693 1456h181v-1l1 1h181l258 -1456h-356zM524 543h277l-67 451l-6 1zM885 1867h370l2 -6l-318 -260h-291l-2 5z" />
    <glyph glyph-name="Acircumflex" unicode="&#xc2;" horiz-adv-x="1307" 
d="M840 283h-432l-127 -283h-356l693 1456h181v-1l1 1h181l258 -1456h-356zM524 543h277l-67 451l-6 1zM1218 1609l-3 -22h-265l-118 126l-155 -126h-260l4 26l336 240h193z" />
    <glyph glyph-name="Atilde" unicode="&#xc3;" horiz-adv-x="1307" 
d="M840 283h-432l-127 -283h-356l693 1456h181v-1l1 1h181l258 -1456h-356zM524 543h277l-67 451l-6 1zM1232 1861c-9.33301 -66 -36.8311 -121.333 -82.498 -166s-98.834 -67 -159.501 -67c-44 0 -96.333 14 -157 42s-108.334 42 -143.001 42
c-21.333 0 -41.166 -10.833 -59.499 -32.5s-29.166 -47.5 -32.499 -77.5l-171 50c8.66699 64.667 36 119.667 82 165s99.333 68 160 68c35.333 0 85.166 -13.833 149.499 -41.5s114.166 -41.5 149.499 -41.5c20 0 39.5 10.833 58.5 32.5s30.5 47.5 34.5 77.5z" />
    <glyph glyph-name="Adieresis" unicode="&#xc4;" horiz-adv-x="1307" 
d="M840 283h-432l-127 -283h-356l693 1456h181v-1l1 1h181l258 -1456h-356zM524 543h277l-67 451l-6 1zM1210 1601h-290l29 204h290zM695 1601h-290l29 204h290z" />
    <glyph glyph-name="Aring" unicode="&#xc5;" horiz-adv-x="1307" 
d="M840 283h-432l-127 -283h-356l693 1456h181v-1l1 1h181l258 -1456h-356zM524 543h277l-67 451l-6 1zM647 1751c7.33301 50.667 31.833 92.167 73.5 124.5s90.5 48.5 146.5 48.5c52 0 94.167 -16.833 126.5 -50.5s45.166 -74.5 38.499 -122.5
c-8 -51.333 -32.5 -92.5 -73.5 -123.5s-88.833 -46.5 -143.5 -46.5c-53.333 0 -96.666 16.167 -129.999 48.5s-46 72.833 -38 121.5zM770 1751c-4 -21.333 -0.331055 -38.332 11.002 -50.999s27.666 -19 48.999 -19c18.667 0 35.167 6.5 49.5 19.5s23.5 29.833 27.5 50.5
c2.66699 22 -1 39.5 -11 52.5s-25 19.5 -45 19.5s-37.833 -6.83301 -53.5 -20.5s-24.834 -30.834 -27.501 -51.501z" />
    <glyph glyph-name="AE" unicode="&#xc6;" horiz-adv-x="1916" 
d="M1767 0h-897l35 329h-382l-202 -329h-390l953 1456h1040l-39 -264h-550l-34 -316h455l-39 -264h-444l-38 -348h572zM934 599l52 473l-6 2l-292 -475h246z" />
    <glyph glyph-name="Ccedilla" unicode="&#xc7;" horiz-adv-x="1307" 
d="M1227 491l1.99902 -5.99707c-23.333 -172.667 -88.666 -300.167 -195.999 -382.5s-250.666 -123.5 -429.999 -123.5c-173.333 0 -308 55.667 -404 167s-130.667 254.666 -104 429.999l46 304c27.333 184 101.166 329.5 221.499 436.5s267.833 160.5 442.5 160.5
c178 0 312.5 -43.333 403.5 -130s123.167 -211.334 96.5 -374.001l-3 -6h-330c13.333 92.667 4.33301 157.5 -27 194.5s-91 55.5 -179 55.5c-72.667 0 -135 -30.833 -187 -92.5s-85.333 -142.5 -100 -242.5l-46 -306c-16 -105.333 -6.16699 -187.833 29.5 -247.5
s95.5 -89.5 179.5 -89.5c74 0 132 19.667 174 59s69.667 103.666 83 192.999h328zM714.999 10.0029l-20.001 -60.999c41.333 -7.33301 74.333 -24.833 99 -52.5s33 -67.834 25 -120.501c-12 -78.667 -53.167 -139.667 -123.5 -183s-166.166 -65 -287.499 -65l21 186
c26 0 48 6.33301 66 19s29.333 32 34 58c3.33301 26 -4 44 -22 54s-51.667 16.333 -101 19l53 146h256z" />
    <glyph glyph-name="Egrave" unicode="&#xc8;" horiz-adv-x="1143" 
d="M980 623h-513l-54 -363h615l-39 -260h-953l218 1456h954l-39 -260h-616l-47 -313h513zM914 1599h-297l-246 260l3 6h370z" />
    <glyph glyph-name="Eacute" unicode="&#xc9;" horiz-adv-x="1143" 
d="M980 623h-513l-54 -363h615l-39 -260h-953l218 1456h954l-39 -260h-616l-47 -313h513zM823 1867h370l2 -6l-318 -260h-291l-2 5z" />
    <glyph glyph-name="Ecircumflex" unicode="&#xca;" horiz-adv-x="1143" 
d="M980 623h-513l-54 -363h615l-39 -260h-953l218 1456h954l-39 -260h-616l-47 -313h513zM1156 1609l-3 -22h-265l-118 126l-155 -126h-260l4 26l336 240h193z" />
    <glyph glyph-name="Edieresis" unicode="&#xcb;" horiz-adv-x="1143" 
d="M980 623h-513l-54 -363h615l-39 -260h-953l218 1456h954l-39 -260h-616l-47 -313h513zM1148 1601h-290l29 204h290zM633 1601h-290l29 204h290z" />
    <glyph glyph-name="Igrave" unicode="&#xcc;" horiz-adv-x="611" 
d="M394 0h-337l218 1456h337zM627 1599h-297l-246 260l3 6h370z" />
    <glyph glyph-name="Iacute" unicode="&#xcd;" horiz-adv-x="611" 
d="M394 0h-337l218 1456h337zM535 1867h370l2 -6l-318 -260h-291l-2 5z" />
    <glyph glyph-name="Icircumflex" unicode="&#xce;" horiz-adv-x="611" 
d="M394 0h-337l218 1456h337zM869 1609l-3 -22h-265l-118 126l-155 -126h-260l4 26l336 240h193z" />
    <glyph glyph-name="Idieresis" unicode="&#xcf;" horiz-adv-x="611" 
d="M394 0h-337l218 1456h337zM861 1601h-290l29 204h290zM346 1601h-290l29 204h290z" />
    <glyph glyph-name="Eth" unicode="&#xd0;" horiz-adv-x="1338" 
d="M787 1456c164.667 0 297.831 -56.332 399.498 -168.999s139.834 -255.334 114.501 -428.001l-39 -262c-28 -182 -107.167 -327 -237.5 -435s-282.166 -162 -455.499 -162h-533l97 647h-120l29 191h119l93 618h533zM698.997 647.001h-228l-58 -387h195
c73.333 0 140.333 31.667 201 95s98.667 144 114 242l39 264c14.667 102 2 183.333 -38 244s-98.667 91 -176 91h-195l-54 -358h229z" />
    <glyph glyph-name="Ntilde" unicode="&#xd1;" horiz-adv-x="1446" 
d="M1250 0h-337l-397 916l-6 -1l-136 -915h-338l218 1456h338l396 -915l6 1l137 914h337zM1300 1861c-9.33301 -66 -36.8311 -121.333 -82.498 -166s-98.834 -67 -159.501 -67c-44 0 -96.333 14 -157 42s-108.334 42 -143.001 42c-21.333 0 -41.166 -10.833 -59.499 -32.5
s-29.166 -47.5 -32.499 -77.5l-171 50c8.66699 64.667 36 119.667 82 165s99.333 68 160 68c35.333 0 85.166 -13.833 149.499 -41.5s114.166 -41.5 149.499 -41.5c20 0 39.5 10.833 58.5 32.5s30.5 47.5 34.5 77.5z" />
    <glyph glyph-name="Ograve" unicode="&#xd2;" horiz-adv-x="1416" 
d="M1336 597c-28.667 -186.667 -107.667 -336.332 -237 -448.999s-286.666 -169 -471.999 -169c-177.333 0 -316.5 58.833 -417.5 176.5s-137.833 264.834 -110.5 441.501l39 262c27.333 185.333 106.166 334.666 236.499 447.999s288.833 170 475.5 170
c176 0 314 -58.833 414 -176.5s137 -264.834 111 -441.501zM1038 861.002c16 108 4.66699 194.333 -34 259s-103 97 -193 97c-88 0 -162.167 -33.5 -222.5 -100.5s-98.166 -152.167 -113.499 -255.5l-39 -264c-16.667 -109.333 -5.5 -196.333 33.5 -261s104.5 -97 196.5 -97
c85.333 0 158.166 33.667 218.499 101s98.5 153 114.5 257zM1032 1620h-297l-246 260l3 6h370z" />
    <glyph glyph-name="Oacute" unicode="&#xd3;" horiz-adv-x="1416" 
d="M1336 597c-28.667 -186.667 -107.667 -336.332 -237 -448.999s-286.666 -169 -471.999 -169c-177.333 0 -316.5 58.833 -417.5 176.5s-137.833 264.834 -110.5 441.501l39 262c27.333 185.333 106.166 334.666 236.499 447.999s288.833 170 475.5 170
c176 0 314 -58.833 414 -176.5s137 -264.834 111 -441.501zM1038 861.002c16 108 4.66699 194.333 -34 259s-103 97 -193 97c-88 0 -162.167 -33.5 -222.5 -100.5s-98.166 -152.167 -113.499 -255.5l-39 -264c-16.667 -109.333 -5.5 -196.333 33.5 -261s104.5 -97 196.5 -97
c85.333 0 158.166 33.667 218.499 101s98.5 153 114.5 257zM942 1888h370l2 -6l-318 -260h-291l-2 5z" />
    <glyph glyph-name="Ocircumflex" unicode="&#xd4;" horiz-adv-x="1416" 
d="M1336 597c-28.667 -186.667 -107.667 -336.332 -237 -448.999s-286.666 -169 -471.999 -169c-177.333 0 -316.5 58.833 -417.5 176.5s-137.833 264.834 -110.5 441.501l39 262c27.333 185.333 106.166 334.666 236.499 447.999s288.833 170 475.5 170
c176 0 314 -58.833 414 -176.5s137 -264.834 111 -441.501zM1038 861.002c16 108 4.66699 194.333 -34 259s-103 97 -193 97c-88 0 -162.167 -33.5 -222.5 -100.5s-98.166 -152.167 -113.499 -255.5l-39 -264c-16.667 -109.333 -5.5 -196.333 33.5 -261s104.5 -97 196.5 -97
c85.333 0 158.166 33.667 218.499 101s98.5 153 114.5 257zM1274 1630l-3 -22h-265l-118 126l-155 -126h-260l4 26l336 240h193z" />
    <glyph glyph-name="Otilde" unicode="&#xd5;" horiz-adv-x="1416" 
d="M1336 597c-28.667 -186.667 -107.667 -336.332 -237 -448.999s-286.666 -169 -471.999 -169c-177.333 0 -316.5 58.833 -417.5 176.5s-137.833 264.834 -110.5 441.501l39 262c27.333 185.333 106.166 334.666 236.499 447.999s288.833 170 475.5 170
c176 0 314 -58.833 414 -176.5s137 -264.834 111 -441.501zM1038 861.002c16 108 4.66699 194.333 -34 259s-103 97 -193 97c-88 0 -162.167 -33.5 -222.5 -100.5s-98.166 -152.167 -113.499 -255.5l-39 -264c-16.667 -109.333 -5.5 -196.333 33.5 -261s104.5 -97 196.5 -97
c85.333 0 158.166 33.667 218.499 101s98.5 153 114.5 257zM1288 1882c-9.33301 -66 -36.8311 -121.333 -82.498 -166s-98.834 -67 -159.501 -67c-44 0 -96.333 14 -157 42s-108.334 42 -143.001 42c-21.333 0 -41.166 -10.833 -59.499 -32.5s-29.166 -47.5 -32.499 -77.5
l-171 50c8.66699 64.667 36 119.667 82 165s99.333 68 160 68c35.333 0 85.166 -13.833 149.499 -41.5s114.166 -41.5 149.499 -41.5c20 0 39.5 10.833 58.5 32.5s30.5 47.5 34.5 77.5z" />
    <glyph glyph-name="Odieresis" unicode="&#xd6;" horiz-adv-x="1416" 
d="M1336 597c-28.667 -186.667 -107.667 -336.332 -237 -448.999s-286.666 -169 -471.999 -169c-177.333 0 -316.5 58.833 -417.5 176.5s-137.833 264.834 -110.5 441.501l39 262c27.333 185.333 106.166 334.666 236.499 447.999s288.833 170 475.5 170
c176 0 314 -58.833 414 -176.5s137 -264.834 111 -441.501zM1038 861.002c16 108 4.66699 194.333 -34 259s-103 97 -193 97c-88 0 -162.167 -33.5 -222.5 -100.5s-98.166 -152.167 -113.499 -255.5l-39 -264c-16.667 -109.333 -5.5 -196.333 33.5 -261s104.5 -97 196.5 -97
c85.333 0 158.166 33.667 218.499 101s98.5 153 114.5 257zM1267 1622h-290l29 204h290zM752 1622h-290l29 204h290z" />
    <glyph glyph-name="multiply" unicode="&#xd7;" horiz-adv-x="1083" 
d="M30 381l346 305l-254 306l220 183l248 -299l338 299l166 -183l-346 -306l254 -305l-220 -183l-249 299l-337 -299z" />
    <glyph glyph-name="Oslash" unicode="&#xd8;" horiz-adv-x="1416" 
d="M1336 597c-28.667 -186.667 -107.665 -336.332 -236.998 -448.999s-286.666 -169 -471.999 -169c-50.667 0 -98.834 5.16699 -144.501 15.5s-87.834 25.833 -126.501 46.5l-99 -136h-140l145 199c-66.667 55.333 -114.5 125.833 -143.5 211.5s-35.5 179.5 -19.5 281.5
l39 262c27.333 185.333 106.166 334.666 236.499 447.999s288.833 170 475.5 170c65.333 0 126.5 -9 183.5 -27s108.167 -43.667 153.5 -77l105 145h140l-163 -223c46 -56 78.333 -121.333 97 -196s21.667 -154.667 9 -240zM436.002 597.002
c-7.33301 -46 -9.50098 -88 -6.50098 -126s10.833 -69.667 23.5 -95l6 -2l544 748c-20 30 -46 53.333 -78 70s-70 25 -114 25c-88 0 -162.167 -33.5 -222.5 -100.5s-98.166 -152.167 -113.499 -255.5zM1038 861.002c3.33301 22 5.33301 43 6 63s0.333984 37 -0.999023 51
l-5 2l-511 -701c18 -12.667 38.5 -22 61.5 -28s48.833 -9 77.5 -9c85.333 0 158.166 33.667 218.499 101s98.5 153 114.5 257z" />
    <glyph glyph-name="Ugrave" unicode="&#xd9;" horiz-adv-x="1417" 
d="M1447 1456l-140.998 -944.001c-26.667 -173.333 -101.5 -305.5 -224.5 -396.5s-274.5 -136.5 -454.5 -136.5c-172.667 0 -309.334 47.667 -410.001 143s-138.334 225.333 -113.001 390l141 944h339l-141 -944c-14.667 -93.333 -2.16699 -162.166 37.5 -206.499
s101.5 -66.5 185.5 -66.5c79.333 0 145.833 23 199.5 69s87.5 114 101.5 204l141 944h339zM1029 1599h-297l-246 260l3 6h370z" />
    <glyph glyph-name="Uacute" unicode="&#xda;" horiz-adv-x="1417" 
d="M1447 1456l-140.998 -944.001c-26.667 -173.333 -101.5 -305.5 -224.5 -396.5s-274.5 -136.5 -454.5 -136.5c-172.667 0 -309.334 47.667 -410.001 143s-138.334 225.333 -113.001 390l141 944h339l-141 -944c-14.667 -93.333 -2.16699 -162.166 37.5 -206.499
s101.5 -66.5 185.5 -66.5c79.333 0 145.833 23 199.5 69s87.5 114 101.5 204l141 944h339zM938.002 1867h370l2 -6l-318 -260h-291l-2 5z" />
    <glyph glyph-name="Ucircumflex" unicode="&#xdb;" horiz-adv-x="1417" 
d="M1447 1456l-140.998 -944.001c-26.667 -173.333 -101.5 -305.5 -224.5 -396.5s-274.5 -136.5 -454.5 -136.5c-172.667 0 -309.334 47.667 -410.001 143s-138.334 225.333 -113.001 390l141 944h339l-141 -944c-14.667 -93.333 -2.16699 -162.166 37.5 -206.499
s101.5 -66.5 185.5 -66.5c79.333 0 145.833 23 199.5 69s87.5 114 101.5 204l141 944h339zM1271 1609l-3 -22h-265l-118 126l-155 -126h-260l4 26l336 240h193z" />
    <glyph glyph-name="Udieresis" unicode="&#xdc;" horiz-adv-x="1417" 
d="M1447 1456l-140.998 -944.001c-26.667 -173.333 -101.5 -305.5 -224.5 -396.5s-274.5 -136.5 -454.5 -136.5c-172.667 0 -309.334 47.667 -410.001 143s-138.334 225.333 -113.001 390l141 944h339l-141 -944c-14.667 -93.333 -2.16699 -162.166 37.5 -206.499
s101.5 -66.5 185.5 -66.5c79.333 0 145.833 23 199.5 69s87.5 114 101.5 204l141 944h339zM1263 1601h-290l29 204h290zM748.002 1601h-290l29 204h290z" />
    <glyph glyph-name="Yacute" unicode="&#xdd;" horiz-adv-x="1307" 
d="M692 819l6 -1l386 638h366l-636 -944l-76 -512h-337l79 528l-347 928h366zM892 1867h370l2 -6l-318 -260h-291l-2 5z" />
    <glyph glyph-name="Thorn" unicode="&#xde;" horiz-adv-x="1266" 
d="M593 1456l-39 -258h199c170 0 299.5 -42.667 388.5 -128s123.5 -196 103.5 -332c-21.333 -142.667 -87 -255 -197 -337s-254.333 -123 -433 -123h-199l-41 -278h-339l218 1456h339zM515 938l-60.002 -400h199c72 0 129.667 19 173 57s69.333 85 78 141
c8.66699 60 -2.16602 108.667 -32.499 146s-83.166 56 -158.499 56h-198h-1z" />
    <glyph glyph-name="germandbls" unicode="&#xdf;" horiz-adv-x="1330" 
d="M392 0l-338.003 0.00195312l167 1112c23.333 156.667 85 274 185 352s232 117 396 117c122.667 0 222.5 -33.833 299.5 -101.5s106.5 -160.5 88.5 -278.5c-11.333 -72 -37.166 -137.333 -77.499 -196s-64.166 -113 -71.499 -163c-4.66699 -31.333 32 -93.333 110 -186
s110.333 -185.667 97 -279c-21.333 -138 -76.166 -238.833 -164.499 -302.5s-212.5 -95.5 -372.5 -95.5c-51.333 0 -101.833 4.16699 -151.5 12.5s-86.167 20.166 -109.5 35.499l97 256c22 -12.667 50.333 -23.167 85 -31.5s74.667 -12.5 120 -12.5
c39.333 0 74 11.167 104 33.5s48 52.833 54 91.5c6.66699 46.667 -29.833 112.5 -109.5 197.5s-112.5 173.5 -98.5 265.5c10 68 35.333 132.667 76 194s64.667 116.666 72 165.999c5.33301 36.667 -4.16699 68.334 -28.5 95.001s-54.833 40 -91.5 40
c-39.333 0 -75.5 -19.833 -108.5 -59.5s-54.167 -91.834 -63.5 -156.501z" />
    <glyph glyph-name="agrave" unicode="&#xe0;" horiz-adv-x="1086" 
d="M641 1c-8.66699 22.667 -15.499 48.334 -20.499 77.001s-7.5 58.667 -7.5 90c-38 -57.333 -81 -103.166 -129 -137.499s-106.667 -51.5 -176 -51.5c-109.333 0 -192 29.5 -248 88.5s-76.667 138.167 -62 237.5c16.667 111.333 69 195.166 157 251.499s215 84.5 381 84.5
h139l12 77c6.66699 48 1 83.833 -17 107.5s-50 35.5 -96 35.5c-38 0 -68.333 -9.33301 -91 -28s-36.667 -47 -42 -85l-328 1l-1 6c11.333 102.667 64.833 186.167 160.5 250.5s215.5 96.5 359.5 96.5c129.333 0 231.666 -33.667 306.999 -101s103.666 -162.333 84.999 -285
l-61 -408c-9.33301 -59.333 -12.666 -112.833 -9.99902 -160.5s10 -96.834 22 -147.501zM436.001 220c39.333 0 76.833 9.83105 112.5 29.498s61.834 42.834 78.501 69.501l21 142h-136c-51.333 0 -91.666 -13.167 -120.999 -39.5s-47 -59.166 -53 -98.499
c-4.66699 -32 2.16602 -57.167 20.499 -75.5s44.166 -27.5 77.499 -27.5zM814.001 1277h-297l-246 260l3 6h370z" />
    <glyph glyph-name="aacute" unicode="&#xe1;" horiz-adv-x="1086" 
d="M641 1c-8.66699 22.667 -15.499 48.334 -20.499 77.001s-7.5 58.667 -7.5 90c-38 -57.333 -81 -103.166 -129 -137.499s-106.667 -51.5 -176 -51.5c-109.333 0 -192 29.5 -248 88.5s-76.667 138.167 -62 237.5c16.667 111.333 69 195.166 157 251.499s215 84.5 381 84.5
h139l12 77c6.66699 48 1 83.833 -17 107.5s-50 35.5 -96 35.5c-38 0 -68.333 -9.33301 -91 -28s-36.667 -47 -42 -85l-328 1l-1 6c11.333 102.667 64.833 186.167 160.5 250.5s215.5 96.5 359.5 96.5c129.333 0 231.666 -33.667 306.999 -101s103.666 -162.333 84.999 -285
l-61 -408c-9.33301 -59.333 -12.666 -112.833 -9.99902 -160.5s10 -96.834 22 -147.501zM436.001 220c39.333 0 76.833 9.83105 112.5 29.498s61.834 42.834 78.501 69.501l21 142h-136c-51.333 0 -91.666 -13.167 -120.999 -39.5s-47 -59.166 -53 -98.499
c-4.66699 -32 2.16602 -57.167 20.499 -75.5s44.166 -27.5 77.499 -27.5zM723.001 1545h370l2 -6l-318 -260h-291l-2 5z" />
    <glyph glyph-name="acircumflex" unicode="&#xe2;" horiz-adv-x="1086" 
d="M641 1c-8.66699 22.667 -15.499 48.334 -20.499 77.001s-7.5 58.667 -7.5 90c-38 -57.333 -81 -103.166 -129 -137.499s-106.667 -51.5 -176 -51.5c-109.333 0 -192 29.5 -248 88.5s-76.667 138.167 -62 237.5c16.667 111.333 69 195.166 157 251.499s215 84.5 381 84.5
h139l12 77c6.66699 48 1 83.833 -17 107.5s-50 35.5 -96 35.5c-38 0 -68.333 -9.33301 -91 -28s-36.667 -47 -42 -85l-328 1l-1 6c11.333 102.667 64.833 186.167 160.5 250.5s215.5 96.5 359.5 96.5c129.333 0 231.666 -33.667 306.999 -101s103.666 -162.333 84.999 -285
l-61 -408c-9.33301 -59.333 -12.666 -112.833 -9.99902 -160.5s10 -96.834 22 -147.501zM436.001 220c39.333 0 76.833 9.83105 112.5 29.498s61.834 42.834 78.501 69.501l21 142h-136c-51.333 0 -91.666 -13.167 -120.999 -39.5s-47 -59.166 -53 -98.499
c-4.66699 -32 2.16602 -57.167 20.499 -75.5s44.166 -27.5 77.499 -27.5zM1056 1287l-3 -22h-265l-118 126l-155 -126h-260l4 26l336 240h193z" />
    <glyph glyph-name="atilde" unicode="&#xe3;" horiz-adv-x="1086" 
d="M641 1c-8.66699 22.667 -15.499 48.334 -20.499 77.001s-7.5 58.667 -7.5 90c-38 -57.333 -81 -103.166 -129 -137.499s-106.667 -51.5 -176 -51.5c-109.333 0 -192 29.5 -248 88.5s-76.667 138.167 -62 237.5c16.667 111.333 69 195.166 157 251.499s215 84.5 381 84.5
h139l12 77c6.66699 48 1 83.833 -17 107.5s-50 35.5 -96 35.5c-38 0 -68.333 -9.33301 -91 -28s-36.667 -47 -42 -85l-328 1l-1 6c11.333 102.667 64.833 186.167 160.5 250.5s215.5 96.5 359.5 96.5c129.333 0 231.666 -33.667 306.999 -101s103.666 -162.333 84.999 -285
l-61 -408c-9.33301 -59.333 -12.666 -112.833 -9.99902 -160.5s10 -96.834 22 -147.501zM436.001 220c39.333 0 76.833 9.83105 112.5 29.498s61.834 42.834 78.501 69.501l21 142h-136c-51.333 0 -91.666 -13.167 -120.999 -39.5s-47 -59.166 -53 -98.499
c-4.66699 -32 2.16602 -57.167 20.499 -75.5s44.166 -27.5 77.499 -27.5zM1070 1539c-9.33301 -66 -36.8311 -121.333 -82.498 -166s-98.834 -67 -159.501 -67c-44 0 -96.333 14 -157 42s-108.334 42 -143.001 42c-21.333 0 -41.166 -10.833 -59.499 -32.5
s-29.166 -47.5 -32.499 -77.5l-171 50c8.66699 64.667 36 119.667 82 165s99.333 68 160 68c35.333 0 85.166 -13.833 149.499 -41.5s114.166 -41.5 149.499 -41.5c20 0 39.5 10.833 58.5 32.5s30.5 47.5 34.5 77.5z" />
    <glyph glyph-name="adieresis" unicode="&#xe4;" horiz-adv-x="1086" 
d="M641 1c-8.66699 22.667 -15.499 48.334 -20.499 77.001s-7.5 58.667 -7.5 90c-38 -57.333 -81 -103.166 -129 -137.499s-106.667 -51.5 -176 -51.5c-109.333 0 -192 29.5 -248 88.5s-76.667 138.167 -62 237.5c16.667 111.333 69 195.166 157 251.499s215 84.5 381 84.5
h139l12 77c6.66699 48 1 83.833 -17 107.5s-50 35.5 -96 35.5c-38 0 -68.333 -9.33301 -91 -28s-36.667 -47 -42 -85l-328 1l-1 6c11.333 102.667 64.833 186.167 160.5 250.5s215.5 96.5 359.5 96.5c129.333 0 231.666 -33.667 306.999 -101s103.666 -162.333 84.999 -285
l-61 -408c-9.33301 -59.333 -12.666 -112.833 -9.99902 -160.5s10 -96.834 22 -147.501zM436.001 220c39.333 0 76.833 9.83105 112.5 29.498s61.834 42.834 78.501 69.501l21 142h-136c-51.333 0 -91.666 -13.167 -120.999 -39.5s-47 -59.166 -53 -98.499
c-4.66699 -32 2.16602 -57.167 20.499 -75.5s44.166 -27.5 77.499 -27.5zM1049 1279h-290l29 204h290zM534.001 1279h-290l29 204h290z" />
    <glyph glyph-name="aring" unicode="&#xe5;" horiz-adv-x="1086" 
d="M641 1c-8.66699 22.667 -15.499 48.334 -20.499 77.001s-7.5 58.667 -7.5 90c-38 -57.333 -81 -103.166 -129 -137.499s-106.667 -51.5 -176 -51.5c-109.333 0 -192 29.5 -248 88.5s-76.667 138.167 -62 237.5c16.667 111.333 69 195.166 157 251.499s215 84.5 381 84.5
h139l12 77c6.66699 48 1 83.833 -17 107.5s-50 35.5 -96 35.5c-38 0 -68.333 -9.33301 -91 -28s-36.667 -47 -42 -85l-328 1l-1 6c11.333 102.667 64.833 186.167 160.5 250.5s215.5 96.5 359.5 96.5c129.333 0 231.666 -33.667 306.999 -101s103.666 -162.333 84.999 -285
l-61 -408c-9.33301 -59.333 -12.666 -112.833 -9.99902 -160.5s10 -96.834 22 -147.501zM436.001 220c39.333 0 76.833 9.83105 112.5 29.498s61.834 42.834 78.501 69.501l21 142h-136c-51.333 0 -91.666 -13.167 -120.999 -39.5s-47 -59.166 -53 -98.499
c-4.66699 -32 2.16602 -57.167 20.499 -75.5s44.166 -27.5 77.499 -27.5zM485.001 1429c7.33301 50.667 31.833 92.167 73.5 124.5s90.5 48.5 146.5 48.5c52 0 94.167 -16.833 126.5 -50.5s45.166 -74.5 38.499 -122.5c-8 -51.333 -32.5 -92.5 -73.5 -123.5
s-88.833 -46.5 -143.5 -46.5c-53.333 0 -96.666 16.167 -129.999 48.5s-46 72.833 -38 121.5zM608.001 1429c-4 -21.333 -0.331055 -38.332 11.002 -50.999s27.666 -19 48.999 -19c18.667 0 35.167 6.5 49.5 19.5s23.5 29.833 27.5 50.5c2.66699 22 -1 39.5 -11 52.5
s-25 19.5 -45 19.5s-37.833 -6.83301 -53.5 -20.5s-24.834 -30.834 -27.501 -51.501z" />
    <glyph glyph-name="ae" unicode="&#xe6;" horiz-adv-x="1763" 
d="M1192 -21c-80.667 0 -151.834 12.8359 -213.501 38.5029s-112.167 62.5 -151.5 110.5c-46.667 -44 -104.5 -79.833 -173.5 -107.5s-147.5 -41.5 -235.5 -41.5c-130 0 -228.667 31.167 -296 93.5s-92.666 146.166 -75.999 251.499c16 110 71.833 192.667 167.5 248
s229.5 83 401.5 83h157l7 46c6.66699 45.333 0.333984 80.166 -18.999 104.499s-50.333 36.5 -93 36.5c-44.667 0 -82.167 -9.83301 -112.5 -29.5s-47.5 -43.834 -51.5 -72.501l-325 18l-2 6c11.333 101.333 65.666 183 162.999 245s221 93 371 93
c62 0 118.833 -7.66699 170.5 -23s95.834 -37.333 132.501 -66c45.333 29.333 96.166 51.5 152.499 66.5s117.5 22.5 183.5 22.5c135.333 0 238.833 -44.5 310.5 -133.5s96.5 -207.833 74.5 -356.5l-27 -177h-621l-2 -6c-6 -60.667 6.16699 -107.5 36.5 -140.5
s82.5 -49.5 156.5 -49.5c56 0 106 5.5 150 16.5s92.333 27.833 145 50.5l50 -206c-49.333 -34 -113.333 -62.667 -192 -86s-158 -35 -238 -35zM517 211.003c31.333 0 66.1689 8 104.502 24s70.166 35.333 95.499 58l24 158h-154c-56 0 -102.833 -13 -140.5 -39
s-58.834 -56.667 -63.501 -92c-5.33301 -36 3 -63.167 25 -81.5s58.333 -27.5 109 -27.5zM1310 842.003c-54.667 0 -97.5 -16.833 -128.5 -50.5s-52.5 -80.167 -64.5 -139.5l2 -6h291l4 26c8 55.333 3 97.5 -15 126.5s-47.667 43.5 -89 43.5z" />
    <glyph glyph-name="ccedilla" unicode="&#xe7;" horiz-adv-x="1048" 
d="M515 239c44 0 79.666 12.667 106.999 38s44.666 61.333 51.999 108h307l2 -6c-16 -122.667 -71.167 -220 -165.5 -292s-208.166 -108 -341.499 -108c-158 0 -275.667 51.5 -353 154.5s-103.666 234.833 -78.999 395.5l4 23c24.667 168.667 88.5 302.5 191.5 401.5
s237.167 148.5 402.5 148.5c132.667 0 235.5 -38.667 308.5 -116s98.5 -181.666 76.5 -312.999l-2 -5h-309c8 53.333 2.83301 95.666 -15.5 126.999s-50.833 47 -97.5 47c-62.667 0 -111.5 -26.667 -146.5 -80s-58.833 -123.333 -71.5 -210l-4 -23
c-14 -94 -12 -165.833 6 -215.5s60.667 -74.5 128 -74.5zM610.999 10l-20.001 -60.999c41.333 -7.33301 74.333 -24.833 99 -52.5s33 -67.834 25 -120.501c-12 -78.667 -53.167 -139.667 -123.5 -183s-166.166 -65 -287.499 -65l21 186c26 0 48 6.33301 66 19
s29.333 32 34 58c3.33301 26 -4 44 -22 54s-51.667 16.333 -101 19l53 146h256z" />
    <glyph glyph-name="egrave" unicode="&#xe8;" horiz-adv-x="1070" 
d="M493 -21c-157.333 0 -276.666 50.167 -357.999 150.5s-110.666 225.5 -87.999 375.5l5 38c25.333 171.333 89.166 307.5 191.499 408.5s237.166 151.167 404.499 150.5c140 0 245 -44.167 315 -132.5s94 -207.5 72 -357.5l-27 -177h-621l-2 -6
c-3.33301 -58 10.667 -104.167 42 -138.5s81.666 -51.5 150.999 -51.5c62 0 116.333 5.5 163 16.5s98.667 27.833 156 50.5l50 -206c-51.333 -34 -118.166 -62.667 -200.499 -86s-166.833 -35 -253.5 -35zM609 842c-52 0 -93.5 -17.167 -124.5 -51.5
s-53.5 -80.5 -67.5 -138.5l2 -6h291l4 26c8.66699 58 5.16699 100.833 -10.5 128.5s-47.167 41.5 -94.5 41.5zM812 1278h-297l-246 260l3 6h370z" />
    <glyph glyph-name="eacute" unicode="&#xe9;" horiz-adv-x="1070" 
d="M493 -21c-157.333 0 -276.666 50.167 -357.999 150.5s-110.666 225.5 -87.999 375.5l5 38c25.333 171.333 89.166 307.5 191.499 408.5s237.166 151.167 404.499 150.5c140 0 245 -44.167 315 -132.5s94 -207.5 72 -357.5l-27 -177h-621l-2 -6
c-3.33301 -58 10.667 -104.167 42 -138.5s81.666 -51.5 150.999 -51.5c62 0 116.333 5.5 163 16.5s98.667 27.833 156 50.5l50 -206c-51.333 -34 -118.166 -62.667 -200.499 -86s-166.833 -35 -253.5 -35zM609 842c-52 0 -93.5 -17.167 -124.5 -51.5
s-53.5 -80.5 -67.5 -138.5l2 -6h291l4 26c8.66699 58 5.16699 100.833 -10.5 128.5s-47.167 41.5 -94.5 41.5zM721 1546h370l2 -6l-318 -260h-291l-2 5z" />
    <glyph glyph-name="ecircumflex" unicode="&#xea;" horiz-adv-x="1070" 
d="M493 -21c-157.333 0 -276.666 50.167 -357.999 150.5s-110.666 225.5 -87.999 375.5l5 38c25.333 171.333 89.166 307.5 191.499 408.5s237.166 151.167 404.499 150.5c140 0 245 -44.167 315 -132.5s94 -207.5 72 -357.5l-27 -177h-621l-2 -6
c-3.33301 -58 10.667 -104.167 42 -138.5s81.666 -51.5 150.999 -51.5c62 0 116.333 5.5 163 16.5s98.667 27.833 156 50.5l50 -206c-51.333 -34 -118.166 -62.667 -200.499 -86s-166.833 -35 -253.5 -35zM609 842c-52 0 -93.5 -17.167 -124.5 -51.5
s-53.5 -80.5 -67.5 -138.5l2 -6h291l4 26c8.66699 58 5.16699 100.833 -10.5 128.5s-47.167 41.5 -94.5 41.5zM1054 1288l-3 -22h-265l-118 126l-155 -126h-260l4 26l336 240h193z" />
    <glyph glyph-name="edieresis" unicode="&#xeb;" horiz-adv-x="1070" 
d="M493 -21c-157.333 0 -276.666 50.167 -357.999 150.5s-110.666 225.5 -87.999 375.5l5 38c25.333 171.333 89.166 307.5 191.499 408.5s237.166 151.167 404.499 150.5c140 0 245 -44.167 315 -132.5s94 -207.5 72 -357.5l-27 -177h-621l-2 -6
c-3.33301 -58 10.667 -104.167 42 -138.5s81.666 -51.5 150.999 -51.5c62 0 116.333 5.5 163 16.5s98.667 27.833 156 50.5l50 -206c-51.333 -34 -118.166 -62.667 -200.499 -86s-166.833 -35 -253.5 -35zM609 842c-52 0 -93.5 -17.167 -124.5 -51.5
s-53.5 -80.5 -67.5 -138.5l2 -6h291l4 26c8.66699 58 5.16699 100.833 -10.5 128.5s-47.167 41.5 -94.5 41.5zM1047 1280h-290l29 204h290zM532 1280h-290l29 204h290z" />
    <glyph glyph-name="igrave" unicode="&#xec;" horiz-adv-x="584" 
d="M382 0h-339l162 1082h339zM564 1256h-297l-246 260l3 6h370z" />
    <glyph glyph-name="iacute" unicode="&#xed;" horiz-adv-x="584" 
d="M382 0h-339l162 1082h339zM472 1524h370l2 -6l-318 -260h-291l-2 5z" />
    <glyph glyph-name="icircumflex" unicode="&#xee;" horiz-adv-x="584" 
d="M382 0h-339l162 1082h339zM806 1267l-3 -22h-265l-118 126l-155 -126h-260l4 26l336 240h193z" />
    <glyph glyph-name="idieresis" unicode="&#xef;" horiz-adv-x="584" 
d="M382 0h-339l162 1082h339zM798 1258h-290l29 204h290zM283 1258h-290l29 204h290z" />
    <glyph glyph-name="eth" unicode="&#xf0;" horiz-adv-x="1226" 
d="M1058 1286c60 -70.667 102.332 -152.497 126.999 -245.497s29 -194.5 13 -304.5l-27 -183c-26.667 -175.333 -101.667 -314.833 -225 -418.5s-267.666 -155.5 -432.999 -155.5c-158.667 0 -284.334 47.167 -377.001 141.5s-129 210.166 -109 347.499
c23.333 156 85 277.167 185 363.5s231 129.5 393 129.5c50.667 0 98 -7.66699 142 -23s81.667 -36.666 113 -63.999l4 5c-2 51.333 -12.5 98.166 -31.5 140.499s-44.833 80.166 -77.5 113.499l-245 -123l-61 118l176 89v6c-17.333 8.66699 -37.166 17.167 -59.499 25.5
s-45.833 16.5 -70.5 24.5l144 244c60 -12.667 116.5 -30.334 169.5 -53.001s101.5 -50 145.5 -82l203 102l59 -118zM555.999 239.003c69.333 0 129.333 29.501 180 88.501s83 134.167 97 225.5l14 96c-18.667 20.667 -45.667 37.667 -81 51s-78 20 -128 20
c-75.333 0 -136.833 -22.333 -184.5 -67s-77.5 -106.334 -89.5 -185.001c-10.667 -70 1.33301 -125.667 36 -167s86.667 -62 156 -62z" />
    <glyph glyph-name="ntilde" unicode="&#xf1;" 
d="M480 935c43.333 53.333 93.168 94.499 149.501 123.499s116.5 43.5 180.5 43.5c102 0 178.333 -36.333 229 -109s64.667 -186.667 42 -342l-98 -651h-338l98 652c10.667 71.333 7.16699 120.833 -10.5 148.5s-47.834 41.5 -90.501 41.5
c-35.333 0 -68.333 -6.66699 -99 -20s-57.667 -31.666 -81 -54.999l-115 -767h-337l162 1082h317zM1105 1539c-9.33301 -66 -36.8311 -121.333 -82.498 -166s-98.834 -67 -159.501 -67c-44 0 -96.333 14 -157 42s-108.334 42 -143.001 42
c-21.333 0 -41.166 -10.833 -59.499 -32.5s-29.166 -47.5 -32.499 -77.5l-171 50c8.66699 64.667 36 119.667 82 165s99.333 68 160 68c35.333 0 85.166 -13.833 149.499 -41.5s114.166 -41.5 149.499 -41.5c20 0 39.5 10.833 58.5 32.5s30.5 47.5 34.5 77.5z" />
    <glyph glyph-name="ograve" unicode="&#xf2;" 
d="M54 551c24.667 168.667 89.998 302.667 195.998 402s242.333 149 409 149c158.667 0 277.834 -51.667 357.501 -155s107.834 -235.333 84.501 -396l-3 -21c-26 -169.333 -91.833 -303.5 -197.5 -402.5s-241.5 -148.5 -407.5 -148.5c-159.333 0 -279 51.5 -359 154.5
s-107.667 235.167 -83 396.5zM388.998 530c-14.667 -93.333 -11.667 -165.169 9 -215.502s65.334 -75.5 134.001 -75.5c63.333 0 113.833 26.333 151.5 79s63.5 123.334 77.5 212.001l3 21c13.333 90.667 9.66602 161.834 -11.001 213.501s-65 77.5 -133 77.5
c-64 0 -115 -27 -153 -81s-63 -124 -75 -210zM847.998 1277h-297l-246 260l3 6h370z" />
    <glyph glyph-name="oacute" unicode="&#xf3;" 
d="M54 551c24.667 168.667 89.998 302.667 195.998 402s242.333 149 409 149c158.667 0 277.834 -51.667 357.501 -155s107.834 -235.333 84.501 -396l-3 -21c-26 -169.333 -91.833 -303.5 -197.5 -402.5s-241.5 -148.5 -407.5 -148.5c-159.333 0 -279 51.5 -359 154.5
s-107.667 235.167 -83 396.5zM388.998 530c-14.667 -93.333 -11.667 -165.169 9 -215.502s65.334 -75.5 134.001 -75.5c63.333 0 113.833 26.333 151.5 79s63.5 123.334 77.5 212.001l3 21c13.333 90.667 9.66602 161.834 -11.001 213.501s-65 77.5 -133 77.5
c-64 0 -115 -27 -153 -81s-63 -124 -75 -210zM756.998 1545h370l2 -6l-318 -260h-291l-2 5z" />
    <glyph glyph-name="ocircumflex" unicode="&#xf4;" 
d="M54 551c24.667 168.667 89.998 302.667 195.998 402s242.333 149 409 149c158.667 0 277.834 -51.667 357.501 -155s107.834 -235.333 84.501 -396l-3 -21c-26 -169.333 -91.833 -303.5 -197.5 -402.5s-241.5 -148.5 -407.5 -148.5c-159.333 0 -279 51.5 -359 154.5
s-107.667 235.167 -83 396.5zM388.998 530c-14.667 -93.333 -11.667 -165.169 9 -215.502s65.334 -75.5 134.001 -75.5c63.333 0 113.833 26.333 151.5 79s63.5 123.334 77.5 212.001l3 21c13.333 90.667 9.66602 161.834 -11.001 213.501s-65 77.5 -133 77.5
c-64 0 -115 -27 -153 -81s-63 -124 -75 -210zM1090 1287l-3 -22h-265l-118 126l-155 -126h-260l4 26l336 240h193z" />
    <glyph glyph-name="otilde" unicode="&#xf5;" 
d="M54 551c24.667 168.667 89.998 302.667 195.998 402s242.333 149 409 149c158.667 0 277.834 -51.667 357.501 -155s107.834 -235.333 84.501 -396l-3 -21c-26 -169.333 -91.833 -303.5 -197.5 -402.5s-241.5 -148.5 -407.5 -148.5c-159.333 0 -279 51.5 -359 154.5
s-107.667 235.167 -83 396.5zM388.998 530c-14.667 -93.333 -11.667 -165.169 9 -215.502s65.334 -75.5 134.001 -75.5c63.333 0 113.833 26.333 151.5 79s63.5 123.334 77.5 212.001l3 21c13.333 90.667 9.66602 161.834 -11.001 213.501s-65 77.5 -133 77.5
c-64 0 -115 -27 -153 -81s-63 -124 -75 -210zM1104 1539c-9.33301 -66 -36.8311 -121.333 -82.498 -166s-98.834 -67 -159.501 -67c-44 0 -96.333 14 -157 42s-108.334 42 -143.001 42c-21.333 0 -41.166 -10.833 -59.499 -32.5s-29.166 -47.5 -32.499 -77.5l-171 50
c8.66699 64.667 36 119.667 82 165s99.333 68 160 68c35.333 0 85.166 -13.833 149.499 -41.5s114.166 -41.5 149.499 -41.5c20 0 39.5 10.833 58.5 32.5s30.5 47.5 34.5 77.5z" />
    <glyph glyph-name="odieresis" unicode="&#xf6;" 
d="M54 551c24.667 168.667 89.998 302.667 195.998 402s242.333 149 409 149c158.667 0 277.834 -51.667 357.501 -155s107.834 -235.333 84.501 -396l-3 -21c-26 -169.333 -91.833 -303.5 -197.5 -402.5s-241.5 -148.5 -407.5 -148.5c-159.333 0 -279 51.5 -359 154.5
s-107.667 235.167 -83 396.5zM388.998 530c-14.667 -93.333 -11.667 -165.169 9 -215.502s65.334 -75.5 134.001 -75.5c63.333 0 113.833 26.333 151.5 79s63.5 123.334 77.5 212.001l3 21c13.333 90.667 9.66602 161.834 -11.001 213.501s-65 77.5 -133 77.5
c-64 0 -115 -27 -153 -81s-63 -124 -75 -210zM1082 1279h-290l29 204h290zM566.998 1279h-290l29 204h290z" />
    <glyph glyph-name="divide" unicode="&#xf7;" horiz-adv-x="1166" 
d="M1107 563h-1044l37 244h1044zM816 961h-339l37 245h339zM696 158h-339l37 246h339z" />
    <glyph glyph-name="oslash" unicode="&#xf8;" horiz-adv-x="1152" 
d="M54 551c24.667 168.667 89.999 302.667 195.999 402s242.333 149 409 149c30.667 0 60.334 -2.33301 89.001 -7s56.334 -11.334 83.001 -20.001l92 144h177l-138 -216c58 -49.333 99 -113.166 123 -191.499s29.333 -165.166 16 -260.499l-3 -21
c-26 -169.333 -91.833 -303.5 -197.5 -402.5s-241.5 -148.5 -407.5 -148.5c-30.667 0 -59.834 2.16699 -87.501 6.5s-54.167 10.166 -79.5 17.499l-94 -148h-177l139 218c-60.667 48 -103.5 111.667 -128.5 191s-29.833 168 -14.5 266zM388.999 530
c-5.33301 -33.333 -8.50098 -62.5 -9.50098 -87.5s0.166992 -45.167 3.5 -60.5l6 -1l289 453c-9.33301 2 -18.666 3.83301 -27.999 5.5s-19.333 2.5 -30 2.5c-64 0 -115 -27 -153 -81s-63 -124 -75 -210zM763.998 551c4 28 6.5 53.999 7.5 77.999s0.5 43.667 -1.5 59l-6 2
l-284 -445c7.33301 -2 15.333 -3.5 24 -4.5s18 -1.5 28 -1.5c63.333 0 113.833 26.333 151.5 79s63.5 123.334 77.5 212.001z" />
    <glyph glyph-name="ugrave" unicode="&#xf9;" 
d="M693 157c-41.333 -58 -89.667 -102.167 -145 -132.5s-116.666 -45.5 -183.999 -45.5c-108 0 -189 39.667 -243 119s-68.667 200.666 -44 363.999l93 620h337l-93 -622c-13.333 -88 -11.5 -146.833 5.5 -176.5s48.5 -44.5 94.5 -44.5c35.333 0 67.666 5.33301 96.999 16
s55 26.334 77 47.001l117 780h338l-162 -1082h-272zM843.999 1256h-297l-246 260l3 6h370z" />
    <glyph glyph-name="uacute" unicode="&#xfa;" 
d="M693 157c-41.333 -58 -89.667 -102.167 -145 -132.5s-116.666 -45.5 -183.999 -45.5c-108 0 -189 39.667 -243 119s-68.667 200.666 -44 363.999l93 620h337l-93 -622c-13.333 -88 -11.5 -146.833 5.5 -176.5s48.5 -44.5 94.5 -44.5c35.333 0 67.666 5.33301 96.999 16
s55 26.334 77 47.001l117 780h338l-162 -1082h-272zM752.999 1524h370l2 -6l-318 -260h-291l-2 5z" />
    <glyph glyph-name="ucircumflex" unicode="&#xfb;" 
d="M693 157c-41.333 -58 -89.667 -102.167 -145 -132.5s-116.666 -45.5 -183.999 -45.5c-108 0 -189 39.667 -243 119s-68.667 200.666 -44 363.999l93 620h337l-93 -622c-13.333 -88 -11.5 -146.833 5.5 -176.5s48.5 -44.5 94.5 -44.5c35.333 0 67.666 5.33301 96.999 16
s55 26.334 77 47.001l117 780h338l-162 -1082h-272zM1086 1267l-3 -22h-265l-118 126l-155 -126h-260l4 26l336 240h193z" />
    <glyph glyph-name="udieresis" unicode="&#xfc;" 
d="M693 157c-41.333 -58 -89.667 -102.167 -145 -132.5s-116.666 -45.5 -183.999 -45.5c-108 0 -189 39.667 -243 119s-68.667 200.666 -44 363.999l93 620h337l-93 -622c-13.333 -88 -11.5 -146.833 5.5 -176.5s48.5 -44.5 94.5 -44.5c35.333 0 67.666 5.33301 96.999 16
s55 26.334 77 47.001l117 780h338l-162 -1082h-272zM1078 1258h-290l29 204h290zM562.999 1258h-290l29 204h290z" />
    <glyph glyph-name="yacute" unicode="&#xfd;" horiz-adv-x="1053" 
d="M507 477l-0.000976562 -5l6 -2l270 612h360l-617 -1243c-44.667 -80 -97.5 -146 -158.5 -198s-148.833 -78 -263.5 -78c-28 0 -51.667 2 -71 6s-47.666 10.667 -84.999 20l78 241c8 -2 14.5 -3.5 19.5 -4.5s11.167 -1.5 18.5 -1.5c50.667 0 90.167 8 118.5 24
s50.833 39.333 67.5 70l37 70l-210 1094h359zM705.999 1524h370l2 -6l-318 -260h-291l-2 5z" />
    <glyph glyph-name="thorn" unicode="&#xfe;" horiz-adv-x="1149" 
d="M1106 518c-26 -168.667 -82.334 -300.668 -169.001 -396.001s-197.334 -143 -332.001 -143c-51.333 0 -95.666 10.667 -132.999 32s-68.333 52 -93 92l-15 -103l-62 -416h-338l62 416h-1l234 1560h339l-88 -584c36 40.667 75.5 71.834 118.5 93.501s90.5 32.5 142.5 32.5
c128.667 0 223.334 -52.167 284.001 -156.5s78.667 -239.833 54 -406.5zM771.999 538.999c13.333 94 10.835 167.998 -7.49805 221.998s-56.833 81 -115.5 81c-36.667 0 -69.334 -7.33301 -98.001 -22s-53.334 -36 -74.001 -64l-67 -448
c12 -23.333 30.667 -40.666 56 -51.999s57 -17 95 -17c57.333 0 102.833 24.833 136.5 74.5s57.5 117.834 71.5 204.501z" />
    <glyph glyph-name="ydieresis" unicode="&#xff;" horiz-adv-x="1053" 
d="M507 477l-0.000976562 -5l6 -2l270 612h360l-617 -1243c-44.667 -80 -97.5 -146 -158.5 -198s-148.833 -78 -263.5 -78c-28 0 -51.667 2 -71 6s-47.666 10.667 -84.999 20l78 241c8 -2 14.5 -3.5 19.5 -4.5s11.167 -1.5 18.5 -1.5c50.667 0 90.167 8 118.5 24
s50.833 39.333 67.5 70l37 70l-210 1094h359zM1032 1258h-290l29 204h290zM516.999 1258h-290l29 204h290z" />
    <glyph glyph-name="Amacron" unicode="&#x100;" horiz-adv-x="1307" 
d="M840 283h-432l-127 -283h-356l693 1456h181v-1l1 1h181l258 -1456h-356zM524 543h277l-67 451l-6 1zM1174 1601h-734l24 173h734z" />
    <glyph glyph-name="amacron" unicode="&#x101;" horiz-adv-x="1086" 
d="M641 1c-8.66699 22.667 -15.499 48.334 -20.499 77.001s-7.5 58.667 -7.5 90c-38 -57.333 -81 -103.166 -129 -137.499s-106.667 -51.5 -176 -51.5c-109.333 0 -192 29.5 -248 88.5s-76.667 138.167 -62 237.5c16.667 111.333 69 195.166 157 251.499s215 84.5 381 84.5
h139l12 77c6.66699 48 1 83.833 -17 107.5s-50 35.5 -96 35.5c-38 0 -68.333 -9.33301 -91 -28s-36.667 -47 -42 -85l-328 1l-1 6c11.333 102.667 64.833 186.167 160.5 250.5s215.5 96.5 359.5 96.5c129.333 0 231.666 -33.667 306.999 -101s103.666 -162.333 84.999 -285
l-61 -408c-9.33301 -59.333 -12.666 -112.833 -9.99902 -160.5s10 -96.834 22 -147.501zM436.001 220c39.333 0 76.833 9.83105 112.5 29.498s61.834 42.834 78.501 69.501l21 142h-136c-51.333 0 -91.666 -13.167 -120.999 -39.5s-47 -59.166 -53 -98.499
c-4.66699 -32 2.16602 -57.167 20.499 -75.5s44.166 -27.5 77.499 -27.5zM1012 1280h-734l24 173h734z" />
    <glyph glyph-name="Abreve" unicode="&#x102;" horiz-adv-x="1307" 
d="M840 283h-432l-127 -283h-356l693 1456h181v-1l1 1h181l258 -1456h-356zM524 543h277l-67 451l-6 1zM1213 1908l2 -6c-10 -92 -51.667 -165.167 -125 -219.5s-166.666 -81.5 -279.999 -81.5c-108.667 0 -193.334 28.167 -254.001 84.5s-83 128.5 -67 216.5l2 6h244
c-4.66699 -32.667 1.16602 -58.667 17.499 -78s44.833 -29 85.5 -29c38 0 68.333 10.167 91 30.5s36.334 45.833 41.001 76.5h243z" />
    <glyph glyph-name="abreve" unicode="&#x103;" horiz-adv-x="1086" 
d="M641 1c-8.66699 22.667 -15.499 48.334 -20.499 77.001s-7.5 58.667 -7.5 90c-38 -57.333 -81 -103.166 -129 -137.499s-106.667 -51.5 -176 -51.5c-109.333 0 -192 29.5 -248 88.5s-76.667 138.167 -62 237.5c16.667 111.333 69 195.166 157 251.499s215 84.5 381 84.5
h139l12 77c6.66699 48 1 83.833 -17 107.5s-50 35.5 -96 35.5c-38 0 -68.333 -9.33301 -91 -28s-36.667 -47 -42 -85l-328 1l-1 6c11.333 102.667 64.833 186.167 160.5 250.5s215.5 96.5 359.5 96.5c129.333 0 231.666 -33.667 306.999 -101s103.666 -162.333 84.999 -285
l-61 -408c-9.33301 -59.333 -12.666 -112.833 -9.99902 -160.5s10 -96.834 22 -147.501zM436.001 220c39.333 0 76.833 9.83105 112.5 29.498s61.834 42.834 78.501 69.501l21 142h-136c-51.333 0 -91.666 -13.167 -120.999 -39.5s-47 -59.166 -53 -98.499
c-4.66699 -32 2.16602 -57.167 20.499 -75.5s44.166 -27.5 77.499 -27.5zM1051 1586l2 -6c-10 -92 -51.667 -165.167 -125 -219.5s-166.666 -81.5 -279.999 -81.5c-108.667 0 -193.334 28.167 -254.001 84.5s-83 128.5 -67 216.5l2 6h244
c-4.66699 -32.667 1.16602 -58.667 17.499 -78s44.833 -29 85.5 -29c38 0 68.333 10.167 91 30.5s36.334 45.833 41.001 76.5h243z" />
    <glyph glyph-name="Aogonek" unicode="&#x104;" horiz-adv-x="1307" 
d="M840 283h-432l-127 -283h-356l693 1456h181v-1l1 1h181l258 -1456h-356zM524 543h277l-67 451l-6 1zM1124 0c-34 -34.667 -58.833 -62.834 -74.5 -84.501s-25.834 -48.167 -30.501 -79.5c-2 -12.667 0.833008 -25.667 8.5 -39s28.834 -20 63.501 -20
c18 0 34.5 1.83301 49.5 5.5s29.5 7.83398 43.5 12.501l11 -168c-25.333 -12.667 -53.666 -23.167 -84.999 -31.5s-67.333 -12.5 -108 -12.5c-74 0 -133.333 19 -178 57s-62 90.333 -52 157c7.33301 52 27.166 99.833 59.499 143.5s78.833 83.5 139.5 119.5z" />
    <glyph glyph-name="aogonek" unicode="&#x105;" horiz-adv-x="1086" 
d="M641 1c-8.66699 22.667 -15.499 48.334 -20.499 77.001s-7.5 58.667 -7.5 90c-38 -57.333 -81 -103.166 -129 -137.499s-106.667 -51.5 -176 -51.5c-109.333 0 -192 29.5 -248 88.5s-76.667 138.167 -62 237.5c16.667 111.333 69 195.166 157 251.499s215 84.5 381 84.5
h139l12 77c6.66699 48 1 83.833 -17 107.5s-50 35.5 -96 35.5c-38 0 -68.333 -9.33301 -91 -28s-36.667 -47 -42 -85l-328 1l-1 6c11.333 102.667 64.833 186.167 160.5 250.5s215.5 96.5 359.5 96.5c129.333 0 231.666 -33.667 306.999 -101s103.666 -162.333 84.999 -285
l-61 -408c-9.33301 -59.333 -12.666 -112.833 -9.99902 -160.5s10 -96.834 22 -147.501zM436.001 220c39.333 0 76.833 9.83105 112.5 29.498s61.834 42.834 78.501 69.501l21 142h-136c-51.333 0 -91.666 -13.167 -120.999 -39.5s-47 -59.166 -53 -98.499
c-4.66699 -32 2.16602 -57.167 20.499 -75.5s44.166 -27.5 77.499 -27.5zM859.001 -0.00195312c-34 -34.667 -58.833 -62.834 -74.5 -84.501s-25.834 -48.167 -30.501 -79.5c-2 -12.667 0.833008 -25.667 8.5 -39s28.834 -20 63.501 -20c18 0 34.5 1.83301 49.5 5.5
s29.5 7.83398 43.5 12.501l11 -168c-25.333 -12.667 -53.666 -23.167 -84.999 -31.5s-67.333 -12.5 -108 -12.5c-74 0 -133.333 19 -178 57s-62 90.333 -52 157c7.33301 52 27.166 99.833 59.499 143.5s78.833 83.5 139.5 119.5z" />
    <glyph glyph-name="Cacute" unicode="&#x106;" horiz-adv-x="1307" 
d="M1227 491l1.99902 -5.99707c-23.333 -172.667 -88.666 -300.167 -195.999 -382.5s-250.666 -123.5 -429.999 -123.5c-173.333 0 -308 55.667 -404 167s-130.667 254.666 -104 429.999l46 304c27.333 184 101.166 329.5 221.499 436.5s267.833 160.5 442.5 160.5
c178 0 312.5 -43.333 403.5 -130s123.167 -211.334 96.5 -374.001l-3 -6h-330c13.333 92.667 4.33301 157.5 -27 194.5s-91 55.5 -179 55.5c-72.667 0 -135 -30.833 -187 -92.5s-85.333 -142.5 -100 -242.5l-46 -306c-16 -105.333 -6.16699 -187.833 29.5 -247.5
s95.5 -89.5 179.5 -89.5c74 0 132 19.667 174 59s69.667 103.666 83 192.999h328zM913.999 1888h370l2 -6l-318 -260h-291l-2 5z" />
    <glyph glyph-name="cacute" unicode="&#x107;" horiz-adv-x="1048" 
d="M515 239c44 0 79.666 12.667 106.999 38s44.666 61.333 51.999 108h307l2 -6c-16 -122.667 -71.167 -220 -165.5 -292s-208.166 -108 -341.499 -108c-158 0 -275.667 51.5 -353 154.5s-103.666 234.833 -78.999 395.5l4 23c24.667 168.667 88.5 302.5 191.5 401.5
s237.167 148.5 402.5 148.5c132.667 0 235.5 -38.667 308.5 -116s98.5 -181.666 76.5 -312.999l-2 -5h-309c8 53.333 2.83301 95.666 -15.5 126.999s-50.833 47 -97.5 47c-62.667 0 -111.5 -26.667 -146.5 -80s-58.833 -123.333 -71.5 -210l-4 -23
c-14 -94 -12 -165.833 6 -215.5s60.667 -74.5 128 -74.5zM708.999 1545h370l2 -6l-318 -260h-291l-2 5z" />
    <glyph glyph-name="Ccircumflex" unicode="&#x108;" horiz-adv-x="1307" 
d="M1227 491l1.99902 -5.99707c-23.333 -172.667 -88.666 -300.167 -195.999 -382.5s-250.666 -123.5 -429.999 -123.5c-173.333 0 -308 55.667 -404 167s-130.667 254.666 -104 429.999l46 304c27.333 184 101.166 329.5 221.499 436.5s267.833 160.5 442.5 160.5
c178 0 312.5 -43.333 403.5 -130s123.167 -211.334 96.5 -374.001l-3 -6h-330c13.333 92.667 4.33301 157.5 -27 194.5s-91 55.5 -179 55.5c-72.667 0 -135 -30.833 -187 -92.5s-85.333 -142.5 -100 -242.5l-46 -306c-16 -105.333 -6.16699 -187.833 29.5 -247.5
s95.5 -89.5 179.5 -89.5c74 0 132 19.667 174 59s69.667 103.666 83 192.999h328zM1246 1630l-3 -22h-265l-118 126l-155 -126h-260l4 26l336 240h193z" />
    <glyph glyph-name="ccircumflex" unicode="&#x109;" horiz-adv-x="1048" 
d="M515 239c44 0 79.666 12.667 106.999 38s44.666 61.333 51.999 108h307l2 -6c-16 -122.667 -71.167 -220 -165.5 -292s-208.166 -108 -341.499 -108c-158 0 -275.667 51.5 -353 154.5s-103.666 234.833 -78.999 395.5l4 23c24.667 168.667 88.5 302.5 191.5 401.5
s237.167 148.5 402.5 148.5c132.667 0 235.5 -38.667 308.5 -116s98.5 -181.666 76.5 -312.999l-2 -5h-309c8 53.333 2.83301 95.666 -15.5 126.999s-50.833 47 -97.5 47c-62.667 0 -111.5 -26.667 -146.5 -80s-58.833 -123.333 -71.5 -210l-4 -23
c-14 -94 -12 -165.833 6 -215.5s60.667 -74.5 128 -74.5zM1042 1287l-3 -22h-265l-118 126l-155 -126h-260l4 26l336 240h193z" />
    <glyph glyph-name="uni010A" unicode="&#x10a;" horiz-adv-x="1307" 
d="M1227 491l1.99902 -5.99707c-23.333 -172.667 -88.666 -300.167 -195.999 -382.5s-250.666 -123.5 -429.999 -123.5c-173.333 0 -308 55.667 -404 167s-130.667 254.666 -104 429.999l46 304c27.333 184 101.166 329.5 221.499 436.5s267.833 160.5 442.5 160.5
c178 0 312.5 -43.333 403.5 -130s123.167 -211.334 96.5 -374.001l-3 -6h-330c13.333 92.667 4.33301 157.5 -27 194.5s-91 55.5 -179 55.5c-72.667 0 -135 -30.833 -187 -92.5s-85.333 -142.5 -100 -242.5l-46 -306c-16 -105.333 -6.16699 -187.833 29.5 -247.5
s95.5 -89.5 179.5 -89.5c74 0 132 19.667 174 59s69.667 103.666 83 192.999h328zM1034 1623h-381l39 260h381z" />
    <glyph glyph-name="uni010B" unicode="&#x10b;" horiz-adv-x="1048" 
d="M515 239c44 0 79.666 12.667 106.999 38s44.666 61.333 51.999 108h307l2 -6c-16 -122.667 -71.167 -220 -165.5 -292s-208.166 -108 -341.499 -108c-158 0 -275.667 51.5 -353 154.5s-103.666 234.833 -78.999 395.5l4 23c24.667 168.667 88.5 302.5 191.5 401.5
s237.167 148.5 402.5 148.5c132.667 0 235.5 -38.667 308.5 -116s98.5 -181.666 76.5 -312.999l-2 -5h-309c8 53.333 2.83301 95.666 -15.5 126.999s-50.833 47 -97.5 47c-62.667 0 -111.5 -26.667 -146.5 -80s-58.833 -123.333 -71.5 -210l-4 -23
c-14 -94 -12 -165.833 6 -215.5s60.667 -74.5 128 -74.5zM829.999 1280h-381l39 260h381z" />
    <glyph glyph-name="Ccaron" unicode="&#x10c;" horiz-adv-x="1307" 
d="M1227 491l1.99902 -5.99707c-23.333 -172.667 -88.666 -300.167 -195.999 -382.5s-250.666 -123.5 -429.999 -123.5c-173.333 0 -308 55.667 -404 167s-130.667 254.666 -104 429.999l46 304c27.333 184 101.166 329.5 221.499 436.5s267.833 160.5 442.5 160.5
c178 0 312.5 -43.333 403.5 -130s123.167 -211.334 96.5 -374.001l-3 -6h-330c13.333 92.667 4.33301 157.5 -27 194.5s-91 55.5 -179 55.5c-72.667 0 -135 -30.833 -187 -92.5s-85.333 -142.5 -100 -242.5l-46 -306c-16 -105.333 -6.16699 -187.833 29.5 -247.5
s95.5 -89.5 179.5 -89.5c74 0 132 19.667 174 59s69.667 103.666 83 192.999h328zM867.999 1782l119 116h309l-2 -16l-331 -260h-239l-255 262l2 14h312z" />
    <glyph glyph-name="ccaron" unicode="&#x10d;" horiz-adv-x="1048" 
d="M515 239c44 0 79.666 12.667 106.999 38s44.666 61.333 51.999 108h307l2 -6c-16 -122.667 -71.167 -220 -165.5 -292s-208.166 -108 -341.499 -108c-158 0 -275.667 51.5 -353 154.5s-103.666 234.833 -78.999 395.5l4 23c24.667 168.667 88.5 302.5 191.5 401.5
s237.167 148.5 402.5 148.5c132.667 0 235.5 -38.667 308.5 -116s98.5 -181.666 76.5 -312.999l-2 -5h-309c8 53.333 2.83301 95.666 -15.5 126.999s-50.833 47 -97.5 47c-62.667 0 -111.5 -26.667 -146.5 -80s-58.833 -123.333 -71.5 -210l-4 -23
c-14 -94 -12 -165.833 6 -215.5s60.667 -74.5 128 -74.5zM662.999 1439l119 116h309l-2 -16l-331 -260h-239l-255 262l2 14h312z" />
    <glyph glyph-name="Dcaron" unicode="&#x10e;" horiz-adv-x="1338" 
d="M787 1456c164.667 0 297.831 -56.332 399.498 -168.999s139.834 -255.334 114.501 -428.001l-39 -262c-28 -182 -107.167 -327 -237.5 -435s-282.166 -162 -455.499 -162h-533l218 1456h533zM552.997 1196l-140 -936h195c73.333 0 140.333 31.667 201 95
s98.667 144 114 242l39 264c14.667 102 2 183.333 -38 244s-98.667 91 -176 91h-195zM763.997 1761l119 116h309l-2 -16l-331 -260h-239l-255 262l2 14h312z" />
    <glyph glyph-name="dcaron" unicode="&#x10f;" 
d="M52 539c26 174.667 82.999 312.166 170.999 412.499s199.667 150.5 335 150.5c48.667 0 91.667 -12.167 129 -36.5s68.666 -59.166 93.999 -104.499l90 599h338l-234 -1560h-296l-3 131c-39.333 -48.667 -83.166 -86.167 -131.499 -112.5s-100.5 -39.5 -156.5 -39.5
c-128 0 -222.667 50 -284 150s-79.666 229.667 -54.999 389zM386.999 517.999c-14 -90.667 -11.8311 -159.834 6.50195 -207.501s58.166 -71.5 119.499 -71.5c34 0 65.667 6.83301 95 20.5s54.666 33.5 75.999 59.5l66 434c-12.667 28.667 -31.334 50.667 -56.001 66
s-54.334 23 -89.001 23c-57.333 0 -104.166 -28.167 -140.499 -84.5s-61.166 -129.166 -74.499 -218.499zM1526 1388l-168 -235h-134l98 245l24 161h206z" />
    <glyph glyph-name="Dcroat" unicode="&#x110;" horiz-adv-x="1338" 
d="M787 1456c164.667 0 297.831 -56.332 399.498 -168.999s139.834 -255.334 114.501 -428.001l-39 -262c-28 -182 -107.167 -327 -237.5 -435s-282.166 -162 -455.499 -162h-533l97 647h-120l29 191h119l93 618h533zM698.997 647.001h-228l-58 -387h195
c73.333 0 140.333 31.667 201 95s98.667 144 114 242l39 264c14.667 102 2 183.333 -38 244s-98.667 91 -176 91h-195l-54 -358h229z" />
    <glyph glyph-name="dcroat" unicode="&#x111;" 
d="M1274 1215l-117.001 -0.000976562l-182 -1215h-296l-3 131c-39.333 -48.667 -83.166 -86.167 -131.499 -112.5s-100.5 -39.5 -156.5 -39.5c-128 0 -222.667 50 -284 150s-79.666 229.667 -54.999 389l3 21c26 174.667 83 312.167 171 412.5s199.667 150.5 335 150.5
c48.667 0 91.667 -12.167 129 -36.5s68.666 -59.166 93.999 -104.499l38 254h-231l29 191h231l23 154h338l-23 -154h117zM386.999 517.999c-14 -90.667 -11.8311 -159.834 6.50195 -207.501s58.166 -71.5 119.499 -71.5c34 0 65.667 6.83301 95 20.5
s54.666 33.5 75.999 59.5l66 434c-12.667 28.667 -31.334 50.667 -56.001 66s-54.334 23 -89.001 23c-57.333 0 -104.166 -28.167 -140.499 -84.5s-61.166 -129.166 -74.499 -218.499z" />
    <glyph glyph-name="Emacron" unicode="&#x112;" horiz-adv-x="1143" 
d="M980 623h-513l-54 -363h615l-39 -260h-953l218 1456h954l-39 -260h-616l-47 -313h513zM1112 1601h-734l24 173h734z" />
    <glyph glyph-name="emacron" unicode="&#x113;" horiz-adv-x="1070" 
d="M493 -21c-157.333 0 -276.666 50.167 -357.999 150.5s-110.666 225.5 -87.999 375.5l5 38c25.333 171.333 89.166 307.5 191.499 408.5s237.166 151.167 404.499 150.5c140 0 245 -44.167 315 -132.5s94 -207.5 72 -357.5l-27 -177h-621l-2 -6
c-3.33301 -58 10.667 -104.167 42 -138.5s81.666 -51.5 150.999 -51.5c62 0 116.333 5.5 163 16.5s98.667 27.833 156 50.5l50 -206c-51.333 -34 -118.166 -62.667 -200.499 -86s-166.833 -35 -253.5 -35zM609 842c-52 0 -93.5 -17.167 -124.5 -51.5
s-53.5 -80.5 -67.5 -138.5l2 -6h291l4 26c8.66699 58 5.16699 100.833 -10.5 128.5s-47.167 41.5 -94.5 41.5zM1010 1281h-734l24 173h734z" />
    <glyph glyph-name="Ebreve" unicode="&#x114;" horiz-adv-x="1143" 
d="M980 623h-513l-54 -363h615l-39 -260h-953l218 1456h954l-39 -260h-616l-47 -313h513zM1151 1908l2 -6c-10 -92 -51.667 -165.167 -125 -219.5s-166.666 -81.5 -279.999 -81.5c-108.667 0 -193.334 28.167 -254.001 84.5s-83 128.5 -67 216.5l2 6h244
c-4.66699 -32.667 1.16602 -58.667 17.499 -78s44.833 -29 85.5 -29c38 0 68.333 10.167 91 30.5s36.334 45.833 41.001 76.5h243z" />
    <glyph glyph-name="ebreve" unicode="&#x115;" horiz-adv-x="1070" 
d="M493 -21c-157.333 0 -276.666 50.167 -357.999 150.5s-110.666 225.5 -87.999 375.5l5 38c25.333 171.333 89.166 307.5 191.499 408.5s237.166 151.167 404.499 150.5c140 0 245 -44.167 315 -132.5s94 -207.5 72 -357.5l-27 -177h-621l-2 -6
c-3.33301 -58 10.667 -104.167 42 -138.5s81.666 -51.5 150.999 -51.5c62 0 116.333 5.5 163 16.5s98.667 27.833 156 50.5l50 -206c-51.333 -34 -118.166 -62.667 -200.499 -86s-166.833 -35 -253.5 -35zM609 842c-52 0 -93.5 -17.167 -124.5 -51.5
s-53.5 -80.5 -67.5 -138.5l2 -6h291l4 26c8.66699 58 5.16699 100.833 -10.5 128.5s-47.167 41.5 -94.5 41.5zM1049 1587l2 -6c-10 -92 -51.667 -165.167 -125 -219.5s-166.666 -81.5 -279.999 -81.5c-108.667 0 -193.334 28.167 -254.001 84.5s-83 128.5 -67 216.5l2 6h244
c-4.66699 -32.667 1.16602 -58.667 17.499 -78s44.833 -29 85.5 -29c38 0 68.333 10.167 91 30.5s36.334 45.833 41.001 76.5h243z" />
    <glyph glyph-name="Edotaccent" unicode="&#x116;" horiz-adv-x="1143" 
d="M980 623h-513l-54 -363h615l-39 -260h-953l218 1456h954l-39 -260h-616l-47 -313h513zM944 1602h-381l39 260h381z" />
    <glyph glyph-name="edotaccent" unicode="&#x117;" horiz-adv-x="1070" 
d="M493 -21c-157.333 0 -276.666 50.167 -357.999 150.5s-110.666 225.5 -87.999 375.5l5 38c25.333 171.333 89.166 307.5 191.499 408.5s237.166 151.167 404.499 150.5c140 0 245 -44.167 315 -132.5s94 -207.5 72 -357.5l-27 -177h-621l-2 -6
c-3.33301 -58 10.667 -104.167 42 -138.5s81.666 -51.5 150.999 -51.5c62 0 116.333 5.5 163 16.5s98.667 27.833 156 50.5l50 -206c-51.333 -34 -118.166 -62.667 -200.499 -86s-166.833 -35 -253.5 -35zM609 842c-52 0 -93.5 -17.167 -124.5 -51.5
s-53.5 -80.5 -67.5 -138.5l2 -6h291l4 26c8.66699 58 5.16699 100.833 -10.5 128.5s-47.167 41.5 -94.5 41.5zM842 1281h-381l39 260h381z" />
    <glyph glyph-name="Eogonek" unicode="&#x118;" horiz-adv-x="1143" 
d="M980 623h-513l-54 -363h615l-39 -260h-953l218 1456h954l-39 -260h-616l-47 -313h513zM589 0c-34 -34.667 -58.833 -62.834 -74.5 -84.501s-25.834 -48.167 -30.501 -79.5c-2 -12.667 0.833008 -25.667 8.5 -39s28.834 -20 63.501 -20c18 0 34.5 1.83301 49.5 5.5
s29.5 7.83398 43.5 12.501l11 -168c-25.333 -12.667 -53.666 -23.167 -84.999 -31.5s-67.333 -12.5 -108 -12.5c-74 0 -133.333 19 -178 57s-62 90.333 -52 157c7.33301 52 27.166 99.833 59.499 143.5s78.833 83.5 139.5 119.5z" />
    <glyph glyph-name="eogonek" unicode="&#x119;" horiz-adv-x="1070" 
d="M493 -21c-157.333 0 -276.666 50.167 -357.999 150.5s-110.666 225.5 -87.999 375.5l5 38c25.333 171.333 89.166 307.5 191.499 408.5s237.166 151.167 404.499 150.5c140 0 245 -44.167 315 -132.5s94 -207.5 72 -357.5l-27 -177h-621l-2 -6
c-3.33301 -58 10.667 -104.167 42 -138.5s81.666 -51.5 150.999 -51.5c62 0 116.333 5.5 163 16.5s98.667 27.833 156 50.5l50 -206c-51.333 -34 -118.166 -62.667 -200.499 -86s-166.833 -35 -253.5 -35zM609 842c-52 0 -93.5 -17.167 -124.5 -51.5
s-53.5 -80.5 -67.5 -138.5l2 -6h291l4 26c8.66699 58 5.16699 100.833 -10.5 128.5s-47.167 41.5 -94.5 41.5zM795 33c-34 -34.667 -58.833 -62.834 -74.5 -84.501s-25.834 -48.167 -30.501 -79.5c-2 -12.667 0.833008 -25.667 8.5 -39s28.834 -20 63.501 -20
c18 0 34.5 1.83301 49.5 5.5s29.5 7.83398 43.5 12.501l11 -168c-25.333 -12.667 -53.666 -23.167 -84.999 -31.5s-67.333 -12.5 -108 -12.5c-74 0 -133.333 19 -178 57s-62 90.333 -52 157c7.33301 52 27.166 99.833 59.499 143.5s78.833 83.5 139.5 119.5z" />
    <glyph glyph-name="Ecaron" unicode="&#x11a;" horiz-adv-x="1143" 
d="M980 623h-513l-54 -363h615l-39 -260h-953l218 1456h954l-39 -260h-616l-47 -313h513zM777 1761l119 116h309l-2 -16l-331 -260h-239l-255 262l2 14h312z" />
    <glyph glyph-name="ecaron" unicode="&#x11b;" horiz-adv-x="1070" 
d="M493 -21c-157.333 0 -276.666 50.167 -357.999 150.5s-110.666 225.5 -87.999 375.5l5 38c25.333 171.333 89.166 307.5 191.499 408.5s237.166 151.167 404.499 150.5c140 0 245 -44.167 315 -132.5s94 -207.5 72 -357.5l-27 -177h-621l-2 -6
c-3.33301 -58 10.667 -104.167 42 -138.5s81.666 -51.5 150.999 -51.5c62 0 116.333 5.5 163 16.5s98.667 27.833 156 50.5l50 -206c-51.333 -34 -118.166 -62.667 -200.499 -86s-166.833 -35 -253.5 -35zM609 842c-52 0 -93.5 -17.167 -124.5 -51.5
s-53.5 -80.5 -67.5 -138.5l2 -6h291l4 26c8.66699 58 5.16699 100.833 -10.5 128.5s-47.167 41.5 -94.5 41.5zM675 1440l119 116h309l-2 -16l-331 -260h-239l-255 262l2 14h312z" />
    <glyph glyph-name="Gcircumflex" unicode="&#x11c;" horiz-adv-x="1353" 
d="M1216 201c-59.333 -61.333 -138.171 -113.669 -236.504 -157.002s-220.166 -65 -365.499 -65c-173.333 0 -310 55.833 -410 167.5s-136.667 254.834 -110 429.501l46 304c27.333 182.667 103.5 327.834 228.5 435.501s274.833 161.5 449.5 161.5
c178.667 0 311 -42 397 -126s116.667 -197 92 -339l-2 -6h-318c10.667 74 -0.166016 127.667 -32.499 161s-87.166 50 -164.499 50c-76 0 -143.5 -31.333 -202.5 -94s-95.833 -143 -110.5 -241l-46 -306c-16 -104.667 -4.66699 -187 34 -247s101.334 -90 188.001 -90
c59.333 0 108.5 5 147.5 15s69.5 23.333 91.5 40l39 260h-258l34 224h596zM1242 1630l-3 -22h-265l-118 126l-155 -126h-260l4 26l336 240h193z" />
    <glyph glyph-name="gcircumflex" unicode="&#x11d;" 
d="M51 539c26 174.667 82.999 312.166 170.999 412.499s199.667 150.5 335 150.5c55.333 0 102.5 -14 141.5 -42s70.833 -67.667 95.5 -119l44 141h298l-160 -1070c-22.667 -148 -88 -259.833 -196 -335.5s-248.667 -113.5 -422 -113.5c-54 0 -111.333 7.66699 -172 23
s-116.334 36 -167.001 62l96 250c45.333 -21.333 89.333 -37.166 132 -47.499s92.667 -15.5 150 -15.5c69.333 0 124.333 14.5 165 43.5s65.667 74.167 75 135.5l12 83c-36.667 -38.667 -76.667 -68 -120 -88s-90.666 -30 -141.999 -30c-128 0 -222.667 50 -284 150
s-79.666 229.667 -54.999 389zM384.999 517.999c-14 -90.667 -11.833 -159.834 6.5 -207.501s58.5 -71.5 120.5 -71.5c36 0 68.167 6 96.5 18s52.5 30 72.5 54l68 451c-12.667 26 -31 45.833 -55 59.5s-54 20.5 -90 20.5c-57.333 0 -104.333 -28.167 -141 -84.5
s-61.667 -129.166 -75 -218.499zM1067 1287l-3 -22h-265l-118 126l-155 -126h-260l4 26l336 240h193z" />
    <glyph glyph-name="Gbreve" unicode="&#x11e;" horiz-adv-x="1353" 
d="M1216 201c-59.333 -61.333 -138.171 -113.669 -236.504 -157.002s-220.166 -65 -365.499 -65c-173.333 0 -310 55.833 -410 167.5s-136.667 254.834 -110 429.501l46 304c27.333 182.667 103.5 327.834 228.5 435.501s274.833 161.5 449.5 161.5
c178.667 0 311 -42 397 -126s116.667 -197 92 -339l-2 -6h-318c10.667 74 -0.166016 127.667 -32.499 161s-87.166 50 -164.499 50c-76 0 -143.5 -31.333 -202.5 -94s-95.833 -143 -110.5 -241l-46 -306c-16 -104.667 -4.66699 -187 34 -247s101.334 -90 188.001 -90
c59.333 0 108.5 5 147.5 15s69.5 23.333 91.5 40l39 260h-258l34 224h596zM1237 1929l2 -6c-10 -92 -51.667 -165.167 -125 -219.5s-166.666 -81.5 -279.999 -81.5c-108.667 0 -193.334 28.167 -254.001 84.5s-83 128.5 -67 216.5l2 6h244
c-4.66699 -32.667 1.16602 -58.667 17.499 -78s44.833 -29 85.5 -29c38 0 68.333 10.167 91 30.5s36.334 45.833 41.001 76.5h243z" />
    <glyph glyph-name="gbreve" unicode="&#x11f;" 
d="M51 539c26 174.667 82.999 312.166 170.999 412.499s199.667 150.5 335 150.5c55.333 0 102.5 -14 141.5 -42s70.833 -67.667 95.5 -119l44 141h298l-160 -1070c-22.667 -148 -88 -259.833 -196 -335.5s-248.667 -113.5 -422 -113.5c-54 0 -111.333 7.66699 -172 23
s-116.334 36 -167.001 62l96 250c45.333 -21.333 89.333 -37.166 132 -47.499s92.667 -15.5 150 -15.5c69.333 0 124.333 14.5 165 43.5s65.667 74.167 75 135.5l12 83c-36.667 -38.667 -76.667 -68 -120 -88s-90.666 -30 -141.999 -30c-128 0 -222.667 50 -284 150
s-79.666 229.667 -54.999 389zM384.999 517.999c-14 -90.667 -11.833 -159.834 6.5 -207.501s58.5 -71.5 120.5 -71.5c36 0 68.167 6 96.5 18s52.5 30 72.5 54l68 451c-12.667 26 -31 45.833 -55 59.5s-54 20.5 -90 20.5c-57.333 0 -104.333 -28.167 -141 -84.5
s-61.667 -129.166 -75 -218.499zM1062 1586l2 -6c-10 -92 -51.667 -165.167 -125 -219.5s-166.666 -81.5 -279.999 -81.5c-108.667 0 -193.334 28.167 -254.001 84.5s-83 128.5 -67 216.5l2 6h244c-4.66699 -32.667 1.16602 -58.667 17.499 -78s44.833 -29 85.5 -29
c38 0 68.333 10.167 91 30.5s36.334 45.833 41.001 76.5h243z" />
    <glyph glyph-name="uni0120" unicode="&#x120;" horiz-adv-x="1353" 
d="M1216 201c-59.333 -61.333 -138.171 -113.669 -236.504 -157.002s-220.166 -65 -365.499 -65c-173.333 0 -310 55.833 -410 167.5s-136.667 254.834 -110 429.501l46 304c27.333 182.667 103.5 327.834 228.5 435.501s274.833 161.5 449.5 161.5
c178.667 0 311 -42 397 -126s116.667 -197 92 -339l-2 -6h-318c10.667 74 -0.166016 127.667 -32.499 161s-87.166 50 -164.499 50c-76 0 -143.5 -31.333 -202.5 -94s-95.833 -143 -110.5 -241l-46 -306c-16 -104.667 -4.66699 -187 34 -247s101.334 -90 188.001 -90
c59.333 0 108.5 5 147.5 15s69.5 23.333 91.5 40l39 260h-258l34 224h596zM1030 1623h-381l39 260h381z" />
    <glyph glyph-name="uni0121" unicode="&#x121;" 
d="M51 539c26 174.667 82.999 312.166 170.999 412.499s199.667 150.5 335 150.5c55.333 0 102.5 -14 141.5 -42s70.833 -67.667 95.5 -119l44 141h298l-160 -1070c-22.667 -148 -88 -259.833 -196 -335.5s-248.667 -113.5 -422 -113.5c-54 0 -111.333 7.66699 -172 23
s-116.334 36 -167.001 62l96 250c45.333 -21.333 89.333 -37.166 132 -47.499s92.667 -15.5 150 -15.5c69.333 0 124.333 14.5 165 43.5s65.667 74.167 75 135.5l12 83c-36.667 -38.667 -76.667 -68 -120 -88s-90.666 -30 -141.999 -30c-128 0 -222.667 50 -284 150
s-79.666 229.667 -54.999 389zM384.999 517.999c-14 -90.667 -11.833 -159.834 6.5 -207.501s58.5 -71.5 120.5 -71.5c36 0 68.167 6 96.5 18s52.5 30 72.5 54l68 451c-12.667 26 -31 45.833 -55 59.5s-54 20.5 -90 20.5c-57.333 0 -104.333 -28.167 -141 -84.5
s-61.667 -129.166 -75 -218.499zM854.999 1280h-381l39 260h381z" />
    <glyph glyph-name="Gcommaaccent" unicode="&#x122;" horiz-adv-x="1353" 
d="M1216 201c-59.333 -61.333 -138.171 -113.669 -236.504 -157.002s-220.166 -65 -365.499 -65c-173.333 0 -310 55.833 -410 167.5s-136.667 254.834 -110 429.501l46 304c27.333 182.667 103.5 327.834 228.5 435.501s274.833 161.5 449.5 161.5
c178.667 0 311 -42 397 -126s116.667 -197 92 -339l-2 -6h-318c10.667 74 -0.166016 127.667 -32.499 161s-87.166 50 -164.499 50c-76 0 -143.5 -31.333 -202.5 -94s-95.833 -143 -110.5 -241l-46 -306c-16 -104.667 -4.66699 -187 34 -247s101.334 -90 188.001 -90
c59.333 0 108.5 5 147.5 15s69.5 23.333 91.5 40l39 260h-258l34 224h596zM676.995 -272.003l-168 -235h-134l98 245l24 161h206z" />
    <glyph glyph-name="gcommaaccent" unicode="&#x123;" 
d="M51 539c26 174.667 82.999 312.166 170.999 412.499s199.667 150.5 335 150.5c55.333 0 102.5 -14 141.5 -42s70.833 -67.667 95.5 -119l44 141h298l-160 -1070c-22.667 -148 -88 -259.833 -196 -335.5s-248.667 -113.5 -422 -113.5c-54 0 -111.333 7.66699 -172 23
s-116.334 36 -167.001 62l96 250c45.333 -21.333 89.333 -37.166 132 -47.499s92.667 -15.5 150 -15.5c69.333 0 124.333 14.5 165 43.5s65.667 74.167 75 135.5l12 83c-36.667 -38.667 -76.667 -68 -120 -88s-90.666 -30 -141.999 -30c-128 0 -222.667 50 -284 150
s-79.666 229.667 -54.999 389zM384.999 517.999c-14 -90.667 -11.833 -159.834 6.5 -207.501s58.5 -71.5 120.5 -71.5c36 0 68.167 6 96.5 18s52.5 30 72.5 54l68 451c-12.667 26 -31 45.833 -55 59.5s-54 20.5 -90 20.5c-57.333 0 -104.333 -28.167 -141 -84.5
s-61.667 -129.166 -75 -218.499zM555.999 1451l149 265h191l-85 -275l-27 -180h-257z" />
    <glyph glyph-name="Hcircumflex" unicode="&#x124;" horiz-adv-x="1446" 
d="M1250 0h-337l87 586h-539l-87 -586h-338l218 1456h338l-92 -610h539l92 610h337zM1287 1609l-3 -22h-265l-118 126l-155 -126h-260l4 26l336 240h193z" />
    <glyph glyph-name="hcircumflex" unicode="&#x125;" 
d="M487 955c40 47.333 85.168 83.667 135.501 109s104.166 38 161.499 38c108 0 189.167 -39.5 243.5 -118.5s69.166 -199.5 44.499 -361.5l-93 -622h-338l94 624c12 86 9.83301 143.833 -6.5 173.5s-46.5 44.5 -90.5 44.5c-37.333 0 -70.666 -5.83301 -99.999 -17.5
s-55.333 -28.167 -78 -49.5l-116 -775h-338l234 1560h338zM1086 1612l-3 -22h-265l-118 126l-155 -126h-260l4 26l336 240h193z" />
    <glyph glyph-name="Hbar" unicode="&#x126;" horiz-adv-x="1447" 
d="M1439 1213h107l-27 -183h-107l-154 -1030h-337l87 586h-539l-87 -586h-338l154 1030h-114l27 183h114l37 243h338l-37 -243h539l37 243h337zM508 846h539l28 184h-539z" />
    <glyph glyph-name="hbar" unicode="&#x127;" 
d="M782 1211l-255.999 0.000976562l-39 -256c40 47.333 85.167 83.666 135.5 108.999s104.166 38 161.499 38c108 0 189.167 -39.5 243.5 -118.5s69.166 -199.5 44.499 -361.5l-93 -622h-338l94 624c12 86 9.83301 143.833 -6.5 173.5s-46.5 44.5 -90.5 44.5
c-37.333 0 -70.666 -5.83301 -99.999 -17.5s-55.333 -28.167 -78 -49.5l-116 -775h-338l181 1211h-91l28 191h92l24 158h338l-24 -158h256z" />
    <glyph glyph-name="Itilde" unicode="&#x128;" horiz-adv-x="611" 
d="M394 0h-337l218 1456h337zM883 1861c-9.33301 -66 -36.8311 -121.333 -82.498 -166s-98.834 -67 -159.501 -67c-44 0 -96.333 14 -157 42s-108.334 42 -143.001 42c-21.333 0 -41.166 -10.833 -59.499 -32.5s-29.166 -47.5 -32.499 -77.5l-171 50
c8.66699 64.667 36 119.667 82 165s99.333 68 160 68c35.333 0 85.166 -13.833 149.499 -41.5s114.166 -41.5 149.499 -41.5c20 0 39.5 10.833 58.5 32.5s30.5 47.5 34.5 77.5z" />
    <glyph glyph-name="itilde" unicode="&#x129;" horiz-adv-x="584" 
d="M382 0h-339l162 1082h339zM820 1518c-9.33301 -66 -36.8311 -121.333 -82.498 -166s-98.834 -67 -159.501 -67c-44 0 -96.333 14 -157 42s-108.334 42 -143.001 42c-21.333 0 -41.166 -10.833 -59.499 -32.5s-29.166 -47.5 -32.499 -77.5l-171 50
c8.66699 64.667 36 119.667 82 165s99.333 68 160 68c35.333 0 85.166 -13.833 149.499 -41.5s114.166 -41.5 149.499 -41.5c20 0 39.5 10.833 58.5 32.5s30.5 47.5 34.5 77.5z" />
    <glyph glyph-name="Imacron" unicode="&#x12a;" horiz-adv-x="611" 
d="M394 0h-337l218 1456h337zM825 1601h-734l24 173h734z" />
    <glyph glyph-name="imacron" unicode="&#x12b;" horiz-adv-x="584" 
d="M382 0h-339l162 1082h339zM762 1259h-734l24 173h734z" />
    <glyph glyph-name="Ibreve" unicode="&#x12c;" horiz-adv-x="611" 
d="M394 0h-337l218 1456h337zM864 1908l2 -6c-10 -92 -51.667 -165.167 -125 -219.5s-166.666 -81.5 -279.999 -81.5c-108.667 0 -193.334 28.167 -254.001 84.5s-83 128.5 -67 216.5l2 6h244c-4.66699 -32.667 1.16602 -58.667 17.499 -78s44.833 -29 85.5 -29
c38 0 68.333 10.167 91 30.5s36.334 45.833 41.001 76.5h243z" />
    <glyph glyph-name="ibreve" unicode="&#x12d;" horiz-adv-x="584" 
d="M382 0h-339l162 1082h339zM800 1565l2 -6c-10 -92 -51.667 -165.167 -125 -219.5s-166.666 -81.5 -279.999 -81.5c-108.667 0 -193.334 28.167 -254.001 84.5s-83 128.5 -67 216.5l2 6h244c-4.66699 -32.667 1.16602 -58.667 17.499 -78s44.833 -29 85.5 -29
c38 0 68.333 10.167 91 30.5s36.334 45.833 41.001 76.5h243z" />
    <glyph glyph-name="Iogonek" unicode="&#x12e;" horiz-adv-x="611" 
d="M394 0h-337l218 1456h337zM279 0c-34 -34.667 -58.833 -62.834 -74.5 -84.501s-25.834 -48.167 -30.501 -79.5c-2 -12.667 0.833008 -25.667 8.5 -39s28.834 -20 63.501 -20c18 0 34.5 1.83301 49.5 5.5s29.5 7.83398 43.5 12.501l11 -168
c-25.333 -12.667 -53.666 -23.167 -84.999 -31.5s-67.333 -12.5 -108 -12.5c-74 0 -133.333 19 -178 57s-62 90.333 -52 157c7.33301 52 27.166 99.833 59.499 143.5s78.833 83.5 139.5 119.5z" />
    <glyph glyph-name="iogonek" unicode="&#x12f;" horiz-adv-x="561" 
d="M370 0h-339l162 1082h339zM570 1333h-339l34 227h339zM255 0c-34 -34.667 -58.833 -62.834 -74.5 -84.501s-25.834 -48.167 -30.501 -79.5c-2 -12.667 0.833008 -25.667 8.5 -39s28.834 -20 63.501 -20c18 0 34.5 1.83301 49.5 5.5s29.5 7.83398 43.5 12.501l11 -168
c-25.333 -12.667 -53.666 -23.167 -84.999 -31.5s-67.333 -12.5 -108 -12.5c-74 0 -133.333 19 -178 57s-62 90.333 -52 157c7.33301 52 27.166 99.833 59.499 143.5s78.833 83.5 139.5 119.5z" />
    <glyph glyph-name="Idotaccent" unicode="&#x130;" horiz-adv-x="611" 
d="M394 0h-337l218 1456h337zM656 1602h-381l39 260h381z" />
    <glyph glyph-name="dotlessi" unicode="&#x131;" horiz-adv-x="584" 
d="M382 0h-339l162 1082h339z" />
    <glyph glyph-name="IJ" unicode="&#x132;" horiz-adv-x="1755" 
d="M394 0h-337l218 1456h337zM1441 1456h338l-148 -989c-23.333 -154 -86.5 -273.833 -189.5 -359.5s-226.833 -128.5 -371.5 -128.5c-158 0 -280.167 39.833 -366.5 119.5s-116.833 193.5 -91.5 341.5l2 6h331c-11.333 -74.667 -1.5 -127.834 29.5 -159.501
s75.833 -47.5 134.5 -47.5c42 0 80.5 20.333 115.5 61s57.833 96.334 68.5 167.001z" />
    <glyph glyph-name="ij" unicode="&#x133;" horiz-adv-x="1109" 
d="M370 0h-339l162 1082h339zM570 1333h-339l34 227h339zM1097 1082l-164 -1097c-21.333 -140 -73.166 -245.333 -155.499 -316s-188.5 -106 -318.5 -106c-28 0 -54.333 1.33301 -79 4s-50.334 7 -77.001 13l52 255c18.667 -4 34.667 -7 48 -9s30.333 -3 51 -3
c36.667 0 67.167 13.833 91.5 41.5s40.5 67.834 48.5 120.501l164 1097h339zM1129 1334h-339l34 226h339z" />
    <glyph glyph-name="Jcircumflex" unicode="&#x134;" horiz-adv-x="1144" 
d="M830 1456h338l-148 -989c-23.333 -154 -86.5 -273.833 -189.5 -359.5s-226.833 -128.5 -371.5 -128.5c-158 0 -280.167 39.833 -366.5 119.5s-116.833 193.5 -91.5 341.5l2 6h331c-11.333 -74.667 -1.5 -127.834 29.5 -159.501s75.833 -47.5 134.5 -47.5
c42 0 80.5 20.333 115.5 61s57.833 96.334 68.5 167.001zM1401 1609l-3 -22h-265l-118 126l-155 -126h-260l4 26l336 240h193z" />
    <glyph glyph-name="jcircumflex" unicode="&#x135;" horiz-adv-x="604" 
d="M558 1082l-163.999 -1097c-21.333 -140 -73 -245.333 -155 -316s-188 -106 -318 -106c-28 0 -54.333 1.33301 -79 4s-50.334 7 -77.001 13l53 255c18 -4 33.5 -7 46.5 -9s29.5 -3 49.5 -3c37.333 0 68.5 14 93.5 42s41.5 68 49.5 120l164 1097h337zM788.001 1267l-3 -22
h-265l-118 126l-155 -126h-260l4 26l336 240h193z" />
    <glyph glyph-name="Kcommaaccent" unicode="&#x136;" horiz-adv-x="1306" 
d="M558 578h-96l-86 -578h-338l218 1456h338l-87 -576h91l346 576h446l-527 -721l328 -735h-390zM630 -262l-168 -235h-134l98 245l24 161h206z" />
    <glyph glyph-name="kcommaaccent" unicode="&#x137;" horiz-adv-x="1119" 
d="M479 430h-61l-64 -430h-338l234 1560h338l-132 -875h49l287 397h380l2 -5l-400 -483l298 -594h-385zM558 -262l-168 -235h-134l98 245l24 161h206z" />
    <glyph glyph-name="kgreenlandic" unicode="&#x138;" horiz-adv-x="1242" 
d="M552 378h-121l-56 -378h-337l162 1082h337l-59 -389h91l283 389h425l2 -5l-426 -500l10 5l267 -582h-434z" />
    <glyph glyph-name="Lacute" unicode="&#x139;" horiz-adv-x="1144" 
d="M413 260h625l-39 -260h-963l218 1456h338zM519 1867h370l2 -6l-318 -260h-291l-2 5z" />
    <glyph glyph-name="lacute" unicode="&#x13a;" horiz-adv-x="561" 
d="M370 0h-339l234 1560h339zM516 1904h370l2 -6l-318 -260h-291l-2 5z" />
    <glyph glyph-name="Lcommaaccent" unicode="&#x13b;" horiz-adv-x="1144" 
d="M413 260h625l-39 -260h-963l218 1456h338zM575 -262l-168 -235h-134l98 245l24 161h206z" />
    <glyph glyph-name="lcommaaccent" unicode="&#x13c;" horiz-adv-x="561" 
d="M370 0h-339l234 1560h339zM257 -262l-168 -235h-134l98 245l24 161h206z" />
    <glyph glyph-name="Lcaron" unicode="&#x13d;" horiz-adv-x="1144" 
d="M413 260h625l-39 -260h-963l218 1456h338zM1012 1289l-168 -235h-134l98 245l24 161h206z" />
    <glyph glyph-name="lcaron" unicode="&#x13e;" horiz-adv-x="561" 
d="M370 0h-339l234 1560h339zM928 1388l-168 -235h-134l98 245l24 161h206z" />
    <glyph glyph-name="Ldot" unicode="&#x13f;" horiz-adv-x="1144" 
d="M413 260h625l-39 -260h-963l218 1456h338zM998 677h-381l39 260h381z" />
    <glyph glyph-name="ldot" unicode="&#x140;" horiz-adv-x="561" 
d="M370 0h-339l234 1560h339zM781 608h-381l39 260h381z" />
    <glyph glyph-name="Lslash" unicode="&#x141;" horiz-adv-x="1022" 
d="M502 903l241 64l-31 -208l-241 -64l-65 -435h625l-39 -260h-963l90 602l-116 -30l31 208l116 30l97 646h338z" />
    <glyph glyph-name="lslash" unicode="&#x142;" horiz-adv-x="611" 
d="M528 924l144 43l-31 -208l-144 -43l-107 -716h-339l91 611l-132 -39l31 208l132 39l112 741h339z" />
    <glyph glyph-name="Nacute" unicode="&#x143;" horiz-adv-x="1446" 
d="M1250 0h-337l-397 916l-6 -1l-136 -915h-338l218 1456h338l396 -915l6 1l137 914h337zM953 1867h370l2 -6l-318 -260h-291l-2 5z" />
    <glyph glyph-name="nacute" unicode="&#x144;" 
d="M480 935c43.333 53.333 93.168 94.499 149.501 123.499s116.5 43.5 180.5 43.5c102 0 178.333 -36.333 229 -109s64.667 -186.667 42 -342l-98 -651h-338l98 652c10.667 71.333 7.16699 120.833 -10.5 148.5s-47.834 41.5 -90.501 41.5
c-35.333 0 -68.333 -6.66699 -99 -20s-57.667 -31.666 -81 -54.999l-115 -767h-337l162 1082h317zM758.002 1545h370l2 -6l-318 -260h-291l-2 5z" />
    <glyph glyph-name="Ncommaaccent" unicode="&#x145;" horiz-adv-x="1446" 
d="M1250 0h-337l-397 916l-6 -1l-136 -915h-338l218 1456h338l396 -915l6 1l137 914h337zM700 -262l-168 -235h-134l98 245l24 161h206z" />
    <glyph glyph-name="ncommaaccent" unicode="&#x146;" 
d="M480 935c43.333 53.333 93.168 94.499 149.501 123.499s116.5 43.5 180.5 43.5c102 0 178.333 -36.333 229 -109s64.667 -186.667 42 -342l-98 -651h-338l98 652c10.667 71.333 7.16699 120.833 -10.5 148.5s-47.834 41.5 -90.501 41.5
c-35.333 0 -68.333 -6.66699 -99 -20s-57.667 -31.666 -81 -54.999l-115 -767h-337l162 1082h317zM553.002 -262.001l-168 -235h-134l98 245l24 161h206z" />
    <glyph glyph-name="Ncaron" unicode="&#x147;" horiz-adv-x="1446" 
d="M1250 0h-337l-397 916l-6 -1l-136 -915h-338l218 1456h338l396 -915l6 1l137 914h337zM907 1761l119 116h309l-2 -16l-331 -260h-239l-255 262l2 14h312z" />
    <glyph glyph-name="ncaron" unicode="&#x148;" 
d="M480 935c43.333 53.333 93.168 94.499 149.501 123.499s116.5 43.5 180.5 43.5c102 0 178.333 -36.333 229 -109s64.667 -186.667 42 -342l-98 -651h-338l98 652c10.667 71.333 7.16699 120.833 -10.5 148.5s-47.834 41.5 -90.501 41.5
c-35.333 0 -68.333 -6.66699 -99 -20s-57.667 -31.666 -81 -54.999l-115 -767h-337l162 1082h317zM712.002 1439l119 116h309l-2 -16l-331 -260h-239l-255 262l2 14h312z" />
    <glyph glyph-name="napostrophe" unicode="&#x149;" 
d="M480 935c43.333 53.333 93.168 94.499 149.501 123.499s116.5 43.5 180.5 43.5c102 0 178.333 -36.333 229 -109s64.667 -186.667 42 -342l-98 -651h-338l98 652c10.667 71.333 7.16699 120.833 -10.5 148.5s-47.834 41.5 -90.501 41.5
c-35.333 0 -68.333 -6.66699 -99 -20s-57.667 -31.666 -81 -54.999l-115 -767h-337l162 1082h317zM370.002 1388l-168 -235h-134l98 245l24 161h206z" />
    <glyph glyph-name="Eng" unicode="&#x14a;" horiz-adv-x="1449" 
d="M1469 1456l-220.001 -1471c-21.333 -140 -73 -245.333 -155 -316s-188 -106 -318 -106c-28.667 0 -55.5 1.33301 -80.5 4s-50.5 7 -76.5 13l52 255c18.667 -4 34.334 -7 47.001 -9s29.667 -3 51 -3c36 0 66.833 14 92.5 42s42.5 68 50.5 120l2 15l-397 916l-6 -1
l-136 -915h-338l218 1456h338l396 -916l6 1l137 915h337z" />
    <glyph glyph-name="eng" unicode="&#x14b;" 
d="M480 934c43.333 53.333 93.334 94.667 150.001 124s117 44 181 44c102 0 178.333 -36.333 229 -109s64.667 -186.667 42 -342l-100 -666c-21.333 -140 -73 -245.333 -155 -316s-188 -106 -318 -106c-28.667 0 -55.5 1.33301 -80.5 4s-50.5 7 -76.5 13l52 255
c18.667 -4 34.167 -7 46.5 -9s29.5 -3 51.5 -3c36 0 66.667 14 92 42s42 68 50 120l100 667c10.667 71.333 7.16699 120.833 -10.5 148.5s-47.834 41.5 -90.501 41.5c-35.333 0 -68.333 -6.83301 -99 -20.5s-58 -32.5 -82 -56.5l-115 -765h-337l162 1082h317z" />
    <glyph glyph-name="Omacron" unicode="&#x14c;" horiz-adv-x="1416" 
d="M1336 597c-28.667 -186.667 -107.667 -336.332 -237 -448.999s-286.666 -169 -471.999 -169c-177.333 0 -316.5 58.833 -417.5 176.5s-137.833 264.834 -110.5 441.501l39 262c27.333 185.333 106.166 334.666 236.499 447.999s288.833 170 475.5 170
c176 0 314 -58.833 414 -176.5s137 -264.834 111 -441.501zM1038 861.002c16 108 4.66699 194.333 -34 259s-103 97 -193 97c-88 0 -162.167 -33.5 -222.5 -100.5s-98.166 -152.167 -113.499 -255.5l-39 -264c-16.667 -109.333 -5.5 -196.333 33.5 -261s104.5 -97 196.5 -97
c85.333 0 158.166 33.667 218.499 101s98.5 153 114.5 257zM1231 1622h-734l24 173h734z" />
    <glyph glyph-name="omacron" unicode="&#x14d;" 
d="M54 551c24.667 168.667 89.998 302.667 195.998 402s242.333 149 409 149c158.667 0 277.834 -51.667 357.501 -155s107.834 -235.333 84.501 -396l-3 -21c-26 -169.333 -91.833 -303.5 -197.5 -402.5s-241.5 -148.5 -407.5 -148.5c-159.333 0 -279 51.5 -359 154.5
s-107.667 235.167 -83 396.5zM388.998 530c-14.667 -93.333 -11.667 -165.169 9 -215.502s65.334 -75.5 134.001 -75.5c63.333 0 113.833 26.333 151.5 79s63.5 123.334 77.5 212.001l3 21c13.333 90.667 9.66602 161.834 -11.001 213.501s-65 77.5 -133 77.5
c-64 0 -115 -27 -153 -81s-63 -124 -75 -210zM1046 1280h-734l24 173h734z" />
    <glyph glyph-name="Obreve" unicode="&#x14e;" horiz-adv-x="1416" 
d="M1336 597c-28.667 -186.667 -107.667 -336.332 -237 -448.999s-286.666 -169 -471.999 -169c-177.333 0 -316.5 58.833 -417.5 176.5s-137.833 264.834 -110.5 441.501l39 262c27.333 185.333 106.166 334.666 236.499 447.999s288.833 170 475.5 170
c176 0 314 -58.833 414 -176.5s137 -264.834 111 -441.501zM1038 861.002c16 108 4.66699 194.333 -34 259s-103 97 -193 97c-88 0 -162.167 -33.5 -222.5 -100.5s-98.166 -152.167 -113.499 -255.5l-39 -264c-16.667 -109.333 -5.5 -196.333 33.5 -261s104.5 -97 196.5 -97
c85.333 0 158.166 33.667 218.499 101s98.5 153 114.5 257zM1269 1929l2 -6c-10 -92 -51.667 -165.167 -125 -219.5s-166.666 -81.5 -279.999 -81.5c-108.667 0 -193.334 28.167 -254.001 84.5s-83 128.5 -67 216.5l2 6h244c-4.66699 -32.667 1.16602 -58.667 17.499 -78
s44.833 -29 85.5 -29c38 0 68.333 10.167 91 30.5s36.334 45.833 41.001 76.5h243z" />
    <glyph glyph-name="obreve" unicode="&#x14f;" 
d="M54 551c24.667 168.667 89.998 302.667 195.998 402s242.333 149 409 149c158.667 0 277.834 -51.667 357.501 -155s107.834 -235.333 84.501 -396l-3 -21c-26 -169.333 -91.833 -303.5 -197.5 -402.5s-241.5 -148.5 -407.5 -148.5c-159.333 0 -279 51.5 -359 154.5
s-107.667 235.167 -83 396.5zM388.998 530c-14.667 -93.333 -11.667 -165.169 9 -215.502s65.334 -75.5 134.001 -75.5c63.333 0 113.833 26.333 151.5 79s63.5 123.334 77.5 212.001l3 21c13.333 90.667 9.66602 161.834 -11.001 213.501s-65 77.5 -133 77.5
c-64 0 -115 -27 -153 -81s-63 -124 -75 -210zM1085 1586l2 -6c-10 -92 -51.667 -165.167 -125 -219.5s-166.666 -81.5 -279.999 -81.5c-108.667 0 -193.334 28.167 -254.001 84.5s-83 128.5 -67 216.5l2 6h244c-4.66699 -32.667 1.16602 -58.667 17.499 -78
s44.833 -29 85.5 -29c38 0 68.333 10.167 91 30.5s36.334 45.833 41.001 76.5h243z" />
    <glyph glyph-name="Ohungarumlaut" unicode="&#x150;" horiz-adv-x="1416" 
d="M1336 597c-28.667 -186.667 -107.667 -336.332 -237 -448.999s-286.666 -169 -471.999 -169c-177.333 0 -316.5 58.833 -417.5 176.5s-137.833 264.834 -110.5 441.501l39 262c27.333 185.333 106.166 334.666 236.499 447.999s288.833 170 475.5 170
c176 0 314 -58.833 414 -176.5s137 -264.834 111 -441.501zM1038 861.002c16 108 4.66699 194.333 -34 259s-103 97 -193 97c-88 0 -162.167 -33.5 -222.5 -100.5s-98.166 -152.167 -113.499 -255.5l-39 -264c-16.667 -109.333 -5.5 -196.333 33.5 -261s104.5 -97 196.5 -97
c85.333 0 158.166 33.667 218.499 101s98.5 153 114.5 257zM1190 1888h301l2 -6l-317 -260h-263l-2 6zM772 1888h304l2 -6l-279 -260h-266l-2 5z" />
    <glyph glyph-name="ohungarumlaut" unicode="&#x151;" 
d="M54 551c24.667 168.667 89.998 302.667 195.998 402s242.333 149 409 149c158.667 0 277.834 -51.667 357.501 -155s107.834 -235.333 84.501 -396l-3 -21c-26 -169.333 -91.833 -303.5 -197.5 -402.5s-241.5 -148.5 -407.5 -148.5c-159.333 0 -279 51.5 -359 154.5
s-107.667 235.167 -83 396.5zM388.998 530c-14.667 -93.333 -11.667 -165.169 9 -215.502s65.334 -75.5 134.001 -75.5c63.333 0 113.833 26.333 151.5 79s63.5 123.334 77.5 212.001l3 21c13.333 90.667 9.66602 161.834 -11.001 213.501s-65 77.5 -133 77.5
c-64 0 -115 -27 -153 -81s-63 -124 -75 -210zM1005 1545h301l2 -6l-317 -260h-263l-2 6zM586.998 1545h304l2 -6l-279 -260h-266l-2 5z" />
    <glyph glyph-name="OE" unicode="&#x152;" horiz-adv-x="1995" 
d="M1724 0l-794 0.000976562c-61.333 -6.66699 -114 -11.834 -158 -15.501s-88.333 -5.5 -133 -5.5c-179.333 0 -320.833 55.833 -424.5 167.5s-142.167 254.834 -115.5 429.501l46 304c27.333 183.333 106.5 328.666 237.5 435.999s290.833 161 479.5 161
c44 0 90.167 -2 138.5 -6s97.5 -9 147.5 -15h795l-39 -260h-616l-47 -313h513l-39 -260h-513l-54 -363h615zM678 239.001c20.667 0 41.832 0.5 63.499 1.5s43.5 2.5 65.5 4.5l145 966l-63.5 4c-21.667 1.33301 -43.5 2 -65.5 2c-88.667 0 -163.667 -28.667 -225 -86
s-100 -140.333 -116 -249l-46 -306c-17.333 -114.667 -4.66602 -199.5 38.001 -254.5s110.667 -82.5 204 -82.5z" />
    <glyph glyph-name="oe" unicode="&#x153;" horiz-adv-x="1845" 
d="M1273 -21c-80 0 -150.669 13.665 -212.002 40.998s-111.666 66 -150.999 116c-53.333 -51.333 -115 -90.333 -185 -117s-147.333 -40 -232 -40c-159.333 0 -279 51.5 -359 154.5s-107.667 235.167 -83 396.5l3 21c24.667 168.667 90 302.667 196 402s242.333 149 409 149
c78.667 0 148.334 -13.667 209.001 -41s110.667 -65.666 150 -114.999c50.667 50.667 110.5 89.334 179.5 116.001s145.833 40 230.5 40c140 0 245 -44.167 315 -132.5s94 -207.5 72 -357.5l-27 -177h-621l-2 -6c-3.33301 -58 10.667 -104.167 42 -138.5
s81.666 -51.5 150.999 -51.5c62 0 116.333 5.5 163 16.5s98.667 27.833 156 50.5l50 -206c-51.333 -34 -118.166 -62.667 -200.499 -86s-166.833 -35 -253.5 -35zM388.998 529.998c-14.667 -93.333 -11.667 -165.169 9 -215.502s65.334 -75.5 134.001 -75.5
c63.333 0 113.833 26.333 151.5 79s63.5 123.334 77.5 212.001l3 21c13.333 90.667 9.66602 161.834 -11.001 213.501s-65 77.5 -133 77.5c-64 0 -115 -27 -153 -81s-63 -124 -75 -210zM1389 841.995c-52 0 -93.5 -17.167 -124.5 -51.5s-53.5 -80.5 -67.5 -138.5l2 -6h291
l4 26c8.66699 58 5.16699 100.833 -10.5 128.5s-47.167 41.5 -94.5 41.5z" />
    <glyph glyph-name="Racute" unicode="&#x154;" horiz-adv-x="1306" 
d="M457 558l-83.001 -557.999h-338l218 1456h507c162.667 0 289 -39.333 379 -118s125 -185 105 -319c-12.667 -78.667 -42.667 -144.667 -90 -198s-112.666 -96.333 -195.999 -129c82.667 -26 139.834 -68.833 171.501 -128.5s41.5 -132.167 29.5 -217.5l-14 -92
c-6 -39.333 -6.83301 -83 -2.5 -131s18.833 -82.333 43.5 -103l-3 -20h-349c-23.333 20.667 -35.333 56.667 -36 108s2.66602 100.666 9.99902 147.999l14 88c10.667 72 0.666992 125.667 -30 161s-82 53 -154 53h-182zM495.999 818.001l171.999 0.00195312
c65.333 0 118.833 15.667 160.5 47s67.167 75.666 76.5 132.999c8.66699 61.333 -2.66602 109.666 -33.999 144.999s-81 53 -149 53h-169zM865.998 1867h370l2 -6l-318 -260h-291l-2 5z" />
    <glyph glyph-name="racute" unicode="&#x155;" horiz-adv-x="722" 
d="M733 794l-110.001 0.999023c-37.333 0 -69.666 -7.5 -96.999 -22.5s-49.333 -35.833 -66 -62.5l-106 -710h-338l162 1082h318l-11 -148l5 -3c28 54.667 62.667 96.834 104 126.501s87.333 44.5 138 44.5c14.667 0 28.167 -1 40.5 -3s24.833 -5 37.5 -9zM592.999 1545h370
l2 -6l-318 -260h-291l-2 5z" />
    <glyph glyph-name="Rcommaaccent" unicode="&#x156;" horiz-adv-x="1306" 
d="M457 558l-83.001 -557.999h-338l218 1456h507c162.667 0 289 -39.333 379 -118s125 -185 105 -319c-12.667 -78.667 -42.667 -144.667 -90 -198s-112.666 -96.333 -195.999 -129c82.667 -26 139.834 -68.833 171.501 -128.5s41.5 -132.167 29.5 -217.5l-14 -92
c-6 -39.333 -6.83301 -83 -2.5 -131s18.833 -82.333 43.5 -103l-3 -20h-349c-23.333 20.667 -35.333 56.667 -36 108s2.66602 100.666 9.99902 147.999l14 88c10.667 72 0.666992 125.667 -30 161s-82 53 -154 53h-182zM495.999 818.001l171.999 0.00195312
c65.333 0 118.833 15.667 160.5 47s67.167 75.666 76.5 132.999c8.66699 61.333 -2.66602 109.666 -33.999 144.999s-81 53 -149 53h-169zM612.998 -261.997l-168 -235h-134l98 245l24 161h206z" />
    <glyph glyph-name="rcommaaccent" unicode="&#x157;" horiz-adv-x="722" 
d="M733 794l-110.001 0.999023c-37.333 0 -69.666 -7.5 -96.999 -22.5s-49.333 -35.833 -66 -62.5l-106 -710h-338l162 1082h318l-11 -148l5 -3c28 54.667 62.667 96.834 104 126.501s87.333 44.5 138 44.5c14.667 0 28.167 -1 40.5 -3s24.833 -5 37.5 -9zM254.999 -262.001
l-168 -235h-134l98 245l24 161h206z" />
    <glyph glyph-name="Rcaron" unicode="&#x158;" horiz-adv-x="1306" 
d="M457 558l-83.001 -557.999h-338l218 1456h507c162.667 0 289 -39.333 379 -118s125 -185 105 -319c-12.667 -78.667 -42.667 -144.667 -90 -198s-112.666 -96.333 -195.999 -129c82.667 -26 139.834 -68.833 171.501 -128.5s41.5 -132.167 29.5 -217.5l-14 -92
c-6 -39.333 -6.83301 -83 -2.5 -131s18.833 -82.333 43.5 -103l-3 -20h-349c-23.333 20.667 -35.333 56.667 -36 108s2.66602 100.666 9.99902 147.999l14 88c10.667 72 0.666992 125.667 -30 161s-82 53 -154 53h-182zM495.999 818.001l171.999 0.00195312
c65.333 0 118.833 15.667 160.5 47s67.167 75.666 76.5 132.999c8.66699 61.333 -2.66602 109.666 -33.999 144.999s-81 53 -149 53h-169zM819.998 1761l119 116h309l-2 -16l-331 -260h-239l-255 262l2 14h312z" />
    <glyph glyph-name="rcaron" unicode="&#x159;" horiz-adv-x="722" 
d="M733 794l-110.001 0.999023c-37.333 0 -69.666 -7.5 -96.999 -22.5s-49.333 -35.833 -66 -62.5l-106 -710h-338l162 1082h318l-11 -148l5 -3c28 54.667 62.667 96.834 104 126.501s87.333 44.5 138 44.5c14.667 0 28.167 -1 40.5 -3s24.833 -5 37.5 -9zM547.999 1439
l119 116h309l-2 -16l-331 -260h-239l-255 262l2 14h312z" />
    <glyph glyph-name="Sacute" unicode="&#x15a;" horiz-adv-x="1273" 
d="M867 363c8.66699 59.333 -4 103.5 -38 132.5s-100 61.833 -198 98.5c-172.667 56.667 -302 124 -388 202s-120 176.333 -102 295c18 119.333 80.833 213.5 188.5 282.5s237.5 103.5 389.5 103.5c165.333 0 295 -39.667 389 -119s129 -188.333 105 -327l-2 -6h-329
c8 57.333 -6.83301 103.666 -44.5 138.999s-90.167 53 -157.5 53c-49.333 0 -93.666 -12 -132.999 -36s-61.666 -53.333 -66.999 -88c-8 -54 7 -94.333 45 -121s118.667 -61.667 242 -105c157.333 -51.333 274.333 -116.333 351 -195s105.667 -181 87 -307
c-19.333 -124.667 -81.833 -220.167 -187.5 -286.5s-236.5 -99.5 -392.5 -99.5c-160 0 -295.5 36.333 -406.5 109s-153.167 185 -126.5 337l2 6h328c-11.333 -71.333 8.16699 -121.166 58.5 -149.499s111.5 -42.5 183.5 -42.5c49.333 0 94.166 11.833 134.499 35.5
s63.166 53.167 68.499 88.5zM869 1888h370l2 -6l-318 -260h-291l-2 5z" />
    <glyph glyph-name="sacute" unicode="&#x15b;" horiz-adv-x="1048" 
d="M628 304c3.33301 27.333 -8.50195 51.3301 -35.502 71.9971s-79.833 39.334 -158.5 56.001c-122.667 24.667 -212.334 62.834 -269.001 114.501s-78.667 122.834 -66 213.501c13.333 98.667 64.333 180.334 153 245.001s202 97 340 97
c138.667 0 247.334 -32.5 326.001 -97.5s109.334 -147.833 92.001 -248.5l-2 -6h-329c6 44 -0.166992 76.667 -18.5 98s-51.833 32 -100.5 32c-34.667 0 -65.667 -9.66699 -93 -29s-42.666 -44 -45.999 -74c-4.66699 -29.333 5.5 -53.833 30.5 -73.5s78.5 -37.5 160.5 -53.5
c128.667 -26 221 -64.833 277 -116.5s77.667 -124.834 65 -219.501c-14.667 -101.333 -68.834 -182.5 -162.501 -243.5s-212.5 -91.5 -356.5 -91.5c-140.667 0 -250 37.667 -328 113s-108.667 158.333 -92 249l2 6h306c-6 -51.333 4.16699 -88.333 30.5 -111
s66.833 -34 121.5 -34c44 0 79.333 9 106 27s42.334 43 47.001 75zM693.998 1545h370l2 -6l-318 -260h-291l-2 5z" />
    <glyph glyph-name="Scircumflex" unicode="&#x15c;" horiz-adv-x="1273" 
d="M867 363c8.66699 59.333 -4 103.5 -38 132.5s-100 61.833 -198 98.5c-172.667 56.667 -302 124 -388 202s-120 176.333 -102 295c18 119.333 80.833 213.5 188.5 282.5s237.5 103.5 389.5 103.5c165.333 0 295 -39.667 389 -119s129 -188.333 105 -327l-2 -6h-329
c8 57.333 -6.83301 103.666 -44.5 138.999s-90.167 53 -157.5 53c-49.333 0 -93.666 -12 -132.999 -36s-61.666 -53.333 -66.999 -88c-8 -54 7 -94.333 45 -121s118.667 -61.667 242 -105c157.333 -51.333 274.333 -116.333 351 -195s105.667 -181 87 -307
c-19.333 -124.667 -81.833 -220.167 -187.5 -286.5s-236.5 -99.5 -392.5 -99.5c-160 0 -295.5 36.333 -406.5 109s-153.167 185 -126.5 337l2 6h328c-11.333 -71.333 8.16699 -121.166 58.5 -149.499s111.5 -42.5 183.5 -42.5c49.333 0 94.166 11.833 134.499 35.5
s63.166 53.167 68.499 88.5zM1201 1630l-3 -22h-265l-118 126l-155 -126h-260l4 26l336 240h193z" />
    <glyph glyph-name="scircumflex" unicode="&#x15d;" horiz-adv-x="1048" 
d="M628 304c3.33301 27.333 -8.50195 51.3301 -35.502 71.9971s-79.833 39.334 -158.5 56.001c-122.667 24.667 -212.334 62.834 -269.001 114.501s-78.667 122.834 -66 213.501c13.333 98.667 64.333 180.334 153 245.001s202 97 340 97
c138.667 0 247.334 -32.5 326.001 -97.5s109.334 -147.833 92.001 -248.5l-2 -6h-329c6 44 -0.166992 76.667 -18.5 98s-51.833 32 -100.5 32c-34.667 0 -65.667 -9.66699 -93 -29s-42.666 -44 -45.999 -74c-4.66699 -29.333 5.5 -53.833 30.5 -73.5s78.5 -37.5 160.5 -53.5
c128.667 -26 221 -64.833 277 -116.5s77.667 -124.834 65 -219.501c-14.667 -101.333 -68.834 -182.5 -162.501 -243.5s-212.5 -91.5 -356.5 -91.5c-140.667 0 -250 37.667 -328 113s-108.667 158.333 -92 249l2 6h306c-6 -51.333 4.16699 -88.333 30.5 -111
s66.833 -34 121.5 -34c44 0 79.333 9 106 27s42.334 43 47.001 75zM1028 1287l-3 -22h-265l-118 126l-155 -126h-260l4 26l336 240h193z" />
    <glyph glyph-name="Scedilla" unicode="&#x15e;" horiz-adv-x="1273" 
d="M867 363c8.66699 59.333 -4 103.5 -38 132.5s-100 61.833 -198 98.5c-172.667 56.667 -302 124 -388 202s-120 176.333 -102 295c18 119.333 80.833 213.5 188.5 282.5s237.5 103.5 389.5 103.5c165.333 0 295 -39.667 389 -119s129 -188.333 105 -327l-2 -6h-329
c8 57.333 -6.83301 103.666 -44.5 138.999s-90.167 53 -157.5 53c-49.333 0 -93.666 -12 -132.999 -36s-61.666 -53.333 -66.999 -88c-8 -54 7 -94.333 45 -121s118.667 -61.667 242 -105c157.333 -51.333 274.333 -116.333 351 -195s105.667 -181 87 -307
c-19.333 -124.667 -81.833 -220.167 -187.5 -286.5s-236.5 -99.5 -392.5 -99.5c-160 0 -295.5 36.333 -406.5 109s-153.167 185 -126.5 337l2 6h328c-11.333 -71.333 8.16699 -121.166 58.5 -149.499s111.5 -42.5 183.5 -42.5c49.333 0 94.166 11.833 134.499 35.5
s63.166 53.167 68.499 88.5zM687 1l-20.001 -60.999c41.333 -7.33301 74.333 -24.833 99 -52.5s33 -67.834 25 -120.501c-12 -78.667 -53.167 -139.667 -123.5 -183s-166.166 -65 -287.499 -65l21 186c26 0 48 6.33301 66 19s29.333 32 34 58c3.33301 26 -4 44 -22 54
s-51.667 16.333 -101 19l53 146h256z" />
    <glyph glyph-name="scedilla" unicode="&#x15f;" horiz-adv-x="1048" 
d="M628 304c3.33301 27.333 -8.50195 51.3301 -35.502 71.9971s-79.833 39.334 -158.5 56.001c-122.667 24.667 -212.334 62.834 -269.001 114.501s-78.667 122.834 -66 213.501c13.333 98.667 64.333 180.334 153 245.001s202 97 340 97
c138.667 0 247.334 -32.5 326.001 -97.5s109.334 -147.833 92.001 -248.5l-2 -6h-329c6 44 -0.166992 76.667 -18.5 98s-51.833 32 -100.5 32c-34.667 0 -65.667 -9.66699 -93 -29s-42.666 -44 -45.999 -74c-4.66699 -29.333 5.5 -53.833 30.5 -73.5s78.5 -37.5 160.5 -53.5
c128.667 -26 221 -64.833 277 -116.5s77.667 -124.834 65 -219.501c-14.667 -101.333 -68.834 -182.5 -162.501 -243.5s-212.5 -91.5 -356.5 -91.5c-140.667 0 -250 37.667 -328 113s-108.667 158.333 -92 249l2 6h306c-6 -51.333 4.16699 -88.333 30.5 -111
s66.833 -34 121.5 -34c44 0 79.333 9 106 27s42.334 43 47.001 75zM563.998 0.99707l-20.001 -60.999c41.333 -7.33301 74.333 -24.833 99 -52.5s33 -67.834 25 -120.501c-12 -78.667 -53.167 -139.667 -123.5 -183s-166.166 -65 -287.499 -65l21 186c26 0 48 6.33301 66 19
s29.333 32 34 58c3.33301 26 -4 44 -22 54s-51.667 16.333 -101 19l53 146h256z" />
    <glyph glyph-name="Scaron" unicode="&#x160;" horiz-adv-x="1273" 
d="M867 363c8.66699 59.333 -4 103.5 -38 132.5s-100 61.833 -198 98.5c-172.667 56.667 -302 124 -388 202s-120 176.333 -102 295c18 119.333 80.833 213.5 188.5 282.5s237.5 103.5 389.5 103.5c165.333 0 295 -39.667 389 -119s129 -188.333 105 -327l-2 -6h-329
c8 57.333 -6.83301 103.666 -44.5 138.999s-90.167 53 -157.5 53c-49.333 0 -93.666 -12 -132.999 -36s-61.666 -53.333 -66.999 -88c-8 -54 7 -94.333 45 -121s118.667 -61.667 242 -105c157.333 -51.333 274.333 -116.333 351 -195s105.667 -181 87 -307
c-19.333 -124.667 -81.833 -220.167 -187.5 -286.5s-236.5 -99.5 -392.5 -99.5c-160 0 -295.5 36.333 -406.5 109s-153.167 185 -126.5 337l2 6h328c-11.333 -71.333 8.16699 -121.166 58.5 -149.499s111.5 -42.5 183.5 -42.5c49.333 0 94.166 11.833 134.499 35.5
s63.166 53.167 68.499 88.5zM823 1782l119 116h309l-2 -16l-331 -260h-239l-255 262l2 14h312z" />
    <glyph glyph-name="scaron" unicode="&#x161;" horiz-adv-x="1048" 
d="M628 304c3.33301 27.333 -8.50195 51.3301 -35.502 71.9971s-79.833 39.334 -158.5 56.001c-122.667 24.667 -212.334 62.834 -269.001 114.501s-78.667 122.834 -66 213.501c13.333 98.667 64.333 180.334 153 245.001s202 97 340 97
c138.667 0 247.334 -32.5 326.001 -97.5s109.334 -147.833 92.001 -248.5l-2 -6h-329c6 44 -0.166992 76.667 -18.5 98s-51.833 32 -100.5 32c-34.667 0 -65.667 -9.66699 -93 -29s-42.666 -44 -45.999 -74c-4.66699 -29.333 5.5 -53.833 30.5 -73.5s78.5 -37.5 160.5 -53.5
c128.667 -26 221 -64.833 277 -116.5s77.667 -124.834 65 -219.501c-14.667 -101.333 -68.834 -182.5 -162.501 -243.5s-212.5 -91.5 -356.5 -91.5c-140.667 0 -250 37.667 -328 113s-108.667 158.333 -92 249l2 6h306c-6 -51.333 4.16699 -88.333 30.5 -111
s66.833 -34 121.5 -34c44 0 79.333 9 106 27s42.334 43 47.001 75zM647.998 1439l119 116h309l-2 -16l-331 -260h-239l-255 262l2 14h312z" />
    <glyph glyph-name="Tcommaaccent" unicode="&#x162;" horiz-adv-x="1150" 
d="M1228 1196h-385l-179 -1196h-338l179 1196h-378l39 260h1101zM555 -262l-168 -235h-134l98 245l24 161h206z" />
    <glyph glyph-name="tcommaaccent" unicode="&#x163;" horiz-adv-x="723" 
d="M607 1351l-40.999 -268.999h171l-35 -234h-171l-74 -496c-6.66699 -40.667 -3.5 -69 9.5 -85s33.167 -24 60.5 -24c16.667 0 30.667 0.666992 42 2s25 4 41 8l-15 -250c-34.667 -8.66699 -66 -14.834 -94 -18.501s-60.667 -5.5 -98 -5.5c-107.333 0 -186.333 30 -237 90
s-66.334 153.667 -47.001 281l74 498h-151l35 234h151l41 269h338zM394.001 -271.999l-168 -235h-134l98 245l24 161h206z" />
    <glyph glyph-name="Tcaron" unicode="&#x164;" horiz-adv-x="1150" 
d="M1228 1196h-385l-179 -1196h-338l179 1196h-378l39 260h1101zM762 1761l119 116h309l-2 -16l-331 -260h-239l-255 262l2 14h312z" />
    <glyph glyph-name="tcaron" unicode="&#x165;" horiz-adv-x="723" 
d="M607 1351l-40.999 -268.999h171l-35 -234h-171l-74 -496c-6.66699 -40.667 -3.5 -69 9.5 -85s33.167 -24 60.5 -24c16.667 0 30.667 0.666992 42 2s25 4 41 8l-15 -250c-34.667 -8.66699 -66 -14.834 -94 -18.501s-60.667 -5.5 -98 -5.5c-107.333 0 -186.333 30 -237 90
s-66.334 153.667 -47.001 281l74 498h-151l35 234h151l41 269h338zM1000 1418l-168 -235h-134l98 245l24 161h206z" />
    <glyph glyph-name="Tbar" unicode="&#x166;" horiz-adv-x="1150" 
d="M958 723h-186l-108 -723h-338l108 723h-162l29 191h162l42 282h-378l39 260h1101l-39 -260h-385l-42 -282h186z" />
    <glyph glyph-name="tbar" unicode="&#x167;" horiz-adv-x="723" 
d="M607 1351l-40.999 -268.999h171l-35 -234h-171l-22 -150h184l-29 -191h-184l-23 -155c-6.66699 -40.667 -3.5 -69 9.5 -85s33.167 -24 60.5 -24c16.667 0 30.667 0.666992 42 2s25 4 41 8l-15 -250c-34.667 -8.66699 -66 -14.834 -94 -18.501s-60.667 -5.5 -98 -5.5
c-107.333 0 -186.333 30 -237 90s-66.334 153.667 -47.001 281l23 157h-164l29 191h164l22 150h-151l35 234h151l41 269h338z" />
    <glyph glyph-name="Utilde" unicode="&#x168;" horiz-adv-x="1417" 
d="M1447 1456l-140.998 -944.001c-26.667 -173.333 -101.5 -305.5 -224.5 -396.5s-274.5 -136.5 -454.5 -136.5c-172.667 0 -309.334 47.667 -410.001 143s-138.334 225.333 -113.001 390l141 944h339l-141 -944c-14.667 -93.333 -2.16699 -162.166 37.5 -206.499
s101.5 -66.5 185.5 -66.5c79.333 0 145.833 23 199.5 69s87.5 114 101.5 204l141 944h339zM1285 1861c-9.33301 -66 -36.8311 -121.333 -82.498 -166s-98.834 -67 -159.501 -67c-44 0 -96.333 14 -157 42s-108.334 42 -143.001 42c-21.333 0 -41.166 -10.833 -59.499 -32.5
s-29.166 -47.5 -32.499 -77.5l-171 50c8.66699 64.667 36 119.667 82 165s99.333 68 160 68c35.333 0 85.166 -13.833 149.499 -41.5s114.166 -41.5 149.499 -41.5c20 0 39.5 10.833 58.5 32.5s30.5 47.5 34.5 77.5z" />
    <glyph glyph-name="utilde" unicode="&#x169;" 
d="M693 157c-41.333 -58 -89.667 -102.167 -145 -132.5s-116.666 -45.5 -183.999 -45.5c-108 0 -189 39.667 -243 119s-68.667 200.666 -44 363.999l93 620h337l-93 -622c-13.333 -88 -11.5 -146.833 5.5 -176.5s48.5 -44.5 94.5 -44.5c35.333 0 67.666 5.33301 96.999 16
s55 26.334 77 47.001l117 780h338l-162 -1082h-272zM1100 1518c-9.33301 -66 -36.8311 -121.333 -82.498 -166s-98.834 -67 -159.501 -67c-44 0 -96.333 14 -157 42s-108.334 42 -143.001 42c-21.333 0 -41.166 -10.833 -59.499 -32.5s-29.166 -47.5 -32.499 -77.5l-171 50
c8.66699 64.667 36 119.667 82 165s99.333 68 160 68c35.333 0 85.166 -13.833 149.499 -41.5s114.166 -41.5 149.499 -41.5c20 0 39.5 10.833 58.5 32.5s30.5 47.5 34.5 77.5z" />
    <glyph glyph-name="Umacron" unicode="&#x16a;" horiz-adv-x="1417" 
d="M1447 1456l-140.998 -944.001c-26.667 -173.333 -101.5 -305.5 -224.5 -396.5s-274.5 -136.5 -454.5 -136.5c-172.667 0 -309.334 47.667 -410.001 143s-138.334 225.333 -113.001 390l141 944h339l-141 -944c-14.667 -93.333 -2.16699 -162.166 37.5 -206.499
s101.5 -66.5 185.5 -66.5c79.333 0 145.833 23 199.5 69s87.5 114 101.5 204l141 944h339zM1227 1601h-734l24 173h734z" />
    <glyph glyph-name="umacron" unicode="&#x16b;" 
d="M693 157c-41.333 -58 -89.667 -102.167 -145 -132.5s-116.666 -45.5 -183.999 -45.5c-108 0 -189 39.667 -243 119s-68.667 200.666 -44 363.999l93 620h337l-93 -622c-13.333 -88 -11.5 -146.833 5.5 -176.5s48.5 -44.5 94.5 -44.5c35.333 0 67.666 5.33301 96.999 16
s55 26.334 77 47.001l117 780h338l-162 -1082h-272zM1042 1259h-734l24 173h734z" />
    <glyph glyph-name="Ubreve" unicode="&#x16c;" horiz-adv-x="1417" 
d="M1447 1456l-140.998 -944.001c-26.667 -173.333 -101.5 -305.5 -224.5 -396.5s-274.5 -136.5 -454.5 -136.5c-172.667 0 -309.334 47.667 -410.001 143s-138.334 225.333 -113.001 390l141 944h339l-141 -944c-14.667 -93.333 -2.16699 -162.166 37.5 -206.499
s101.5 -66.5 185.5 -66.5c79.333 0 145.833 23 199.5 69s87.5 114 101.5 204l141 944h339zM1266 1908l2 -6c-10 -92 -51.667 -165.167 -125 -219.5s-166.666 -81.5 -279.999 -81.5c-108.667 0 -193.334 28.167 -254.001 84.5s-83 128.5 -67 216.5l2 6h244
c-4.66699 -32.667 1.16602 -58.667 17.499 -78s44.833 -29 85.5 -29c38 0 68.333 10.167 91 30.5s36.334 45.833 41.001 76.5h243z" />
    <glyph glyph-name="ubreve" unicode="&#x16d;" 
d="M693 157c-41.333 -58 -89.667 -102.167 -145 -132.5s-116.666 -45.5 -183.999 -45.5c-108 0 -189 39.667 -243 119s-68.667 200.666 -44 363.999l93 620h337l-93 -622c-13.333 -88 -11.5 -146.833 5.5 -176.5s48.5 -44.5 94.5 -44.5c35.333 0 67.666 5.33301 96.999 16
s55 26.334 77 47.001l117 780h338l-162 -1082h-272zM1080 1565l2 -6c-10 -92 -51.667 -165.167 -125 -219.5s-166.666 -81.5 -279.999 -81.5c-108.667 0 -193.334 28.167 -254.001 84.5s-83 128.5 -67 216.5l2 6h244c-4.66699 -32.667 1.16602 -58.667 17.499 -78
s44.833 -29 85.5 -29c38 0 68.333 10.167 91 30.5s36.334 45.833 41.001 76.5h243z" />
    <glyph glyph-name="Uring" unicode="&#x16e;" horiz-adv-x="1417" 
d="M1447 1456l-140.998 -944.001c-26.667 -173.333 -101.5 -305.5 -224.5 -396.5s-274.5 -136.5 -454.5 -136.5c-172.667 0 -309.334 47.667 -410.001 143s-138.334 225.333 -113.001 390l141 944h339l-141 -944c-14.667 -93.333 -2.16699 -162.166 37.5 -206.499
s101.5 -66.5 185.5 -66.5c79.333 0 145.833 23 199.5 69s87.5 114 101.5 204l141 944h339zM700.002 1751c7.33301 50.667 31.833 92.167 73.5 124.5s90.5 48.5 146.5 48.5c52 0 94.167 -16.833 126.5 -50.5s45.166 -74.5 38.499 -122.5c-8 -51.333 -32.5 -92.5 -73.5 -123.5
s-88.833 -46.5 -143.5 -46.5c-53.333 0 -96.666 16.167 -129.999 48.5s-46 72.833 -38 121.5zM823.002 1751c-4 -21.333 -0.331055 -38.332 11.002 -50.999s27.666 -19 48.999 -19c18.667 0 35.167 6.5 49.5 19.5s23.5 29.833 27.5 50.5c2.66699 22 -1 39.5 -11 52.5
s-25 19.5 -45 19.5s-37.833 -6.83301 -53.5 -20.5s-24.834 -30.834 -27.501 -51.501z" />
    <glyph glyph-name="uring" unicode="&#x16f;" 
d="M693 157c-41.333 -58 -89.667 -102.167 -145 -132.5s-116.666 -45.5 -183.999 -45.5c-108 0 -189 39.667 -243 119s-68.667 200.666 -44 363.999l93 620h337l-93 -622c-13.333 -88 -11.5 -146.833 5.5 -176.5s48.5 -44.5 94.5 -44.5c35.333 0 67.666 5.33301 96.999 16
s55 26.334 77 47.001l117 780h338l-162 -1082h-272zM514.999 1408c7.33301 50.667 31.833 92.167 73.5 124.5s90.5 48.5 146.5 48.5c52 0 94.167 -16.833 126.5 -50.5s45.166 -74.5 38.499 -122.5c-8 -51.333 -32.5 -92.5 -73.5 -123.5s-88.833 -46.5 -143.5 -46.5
c-53.333 0 -96.666 16.167 -129.999 48.5s-46 72.833 -38 121.5zM637.999 1408c-4 -21.333 -0.331055 -38.332 11.002 -50.999s27.666 -19 48.999 -19c18.667 0 35.167 6.5 49.5 19.5s23.5 29.833 27.5 50.5c2.66699 22 -1 39.5 -11 52.5s-25 19.5 -45 19.5
s-37.833 -6.83301 -53.5 -20.5s-24.834 -30.834 -27.501 -51.501z" />
    <glyph glyph-name="Uhungarumlaut" unicode="&#x170;" horiz-adv-x="1417" 
d="M1447 1456l-140.998 -944.001c-26.667 -173.333 -101.5 -305.5 -224.5 -396.5s-274.5 -136.5 -454.5 -136.5c-172.667 0 -309.334 47.667 -410.001 143s-138.334 225.333 -113.001 390l141 944h339l-141 -944c-14.667 -93.333 -2.16699 -162.166 37.5 -206.499
s101.5 -66.5 185.5 -66.5c79.333 0 145.833 23 199.5 69s87.5 114 101.5 204l141 944h339zM1186 1867h301l2 -6l-317 -260h-263l-2 6zM768.002 1867h304l2 -6l-279 -260h-266l-2 5z" />
    <glyph glyph-name="uhungarumlaut" unicode="&#x171;" 
d="M693 157c-41.333 -58 -89.667 -102.167 -145 -132.5s-116.666 -45.5 -183.999 -45.5c-108 0 -189 39.667 -243 119s-68.667 200.666 -44 363.999l93 620h337l-93 -622c-13.333 -88 -11.5 -146.833 5.5 -176.5s48.5 -44.5 94.5 -44.5c35.333 0 67.666 5.33301 96.999 16
s55 26.334 77 47.001l117 780h338l-162 -1082h-272zM1001 1524h301l2 -6l-317 -260h-263l-2 6zM582.999 1524h304l2 -6l-279 -260h-266l-2 5z" />
    <glyph glyph-name="Uogonek" unicode="&#x172;" horiz-adv-x="1417" 
d="M1447 1456l-140.998 -944.001c-26.667 -173.333 -101.5 -305.5 -224.5 -396.5s-274.5 -136.5 -454.5 -136.5c-172.667 0 -309.334 47.667 -410.001 143s-138.334 225.333 -113.001 390l141 944h339l-141 -944c-14.667 -93.333 -2.16699 -162.166 37.5 -206.499
s101.5 -66.5 185.5 -66.5c79.333 0 145.833 23 199.5 69s87.5 114 101.5 204l141 944h339zM726.002 -0.000976562c-34 -34.667 -58.833 -62.834 -74.5 -84.501s-25.834 -48.167 -30.501 -79.5c-2 -12.667 0.833008 -25.667 8.5 -39s28.834 -20 63.501 -20
c18 0 34.5 1.83301 49.5 5.5s29.5 7.83398 43.5 12.501l11 -168c-25.333 -12.667 -53.666 -23.167 -84.999 -31.5s-67.333 -12.5 -108 -12.5c-74 0 -133.333 19 -178 57s-62 90.333 -52 157c7.33301 52 27.166 99.833 59.499 143.5s78.833 83.5 139.5 119.5z" />
    <glyph glyph-name="uogonek" unicode="&#x173;" 
d="M693 157c-41.333 -58 -89.667 -102.167 -145 -132.5s-116.666 -45.5 -183.999 -45.5c-108 0 -189 39.667 -243 119s-68.667 200.666 -44 363.999l93 620h337l-93 -622c-13.333 -88 -11.5 -146.833 5.5 -176.5s48.5 -44.5 94.5 -44.5c35.333 0 67.666 5.33301 96.999 16
s55 26.334 77 47.001l117 780h338l-162 -1082h-272zM863.999 0c-34 -34.667 -58.833 -62.834 -74.5 -84.501s-25.834 -48.167 -30.501 -79.5c-2 -12.667 0.833008 -25.667 8.5 -39s28.834 -20 63.501 -20c18 0 34.5 1.83301 49.5 5.5s29.5 7.83398 43.5 12.501l11 -168
c-25.333 -12.667 -53.666 -23.167 -84.999 -31.5s-67.333 -12.5 -108 -12.5c-74 0 -133.333 19 -178 57s-62 90.333 -52 157c7.33301 52 27.166 99.833 59.499 143.5s78.833 83.5 139.5 119.5z" />
    <glyph glyph-name="Wcircumflex" unicode="&#x174;" horiz-adv-x="1825" 
d="M1283 513l6 -1l318 944h342l-552 -1456h-318l-110 899l-6 1l-378 -900h-318l-117 1456h343l34 -945l6 -1l389 946h255zM1475 1609l-3 -22h-265l-118 126l-155 -126h-260l4 26l336 240h193z" />
    <glyph glyph-name="wcircumflex" unicode="&#x175;" horiz-adv-x="1485" 
d="M1016 477h6l198 605h322l-416 -1082h-286l-92 554l-6 1l-261 -555h-285l-93 1082h322l17 -608l6 -1l268 609h213zM1253 1267l-3 -22h-265l-118 126l-155 -126h-260l4 26l336 240h193z" />
    <glyph glyph-name="Ycircumflex" unicode="&#x176;" horiz-adv-x="1307" 
d="M692 819l6 -1l386 638h366l-636 -944l-76 -512h-337l79 528l-347 928h366zM1225 1609l-3 -22h-265l-118 126l-155 -126h-260l4 26l336 240h193z" />
    <glyph glyph-name="ycircumflex" unicode="&#x177;" horiz-adv-x="1053" 
d="M507 477l-0.000976562 -5l6 -2l270 612h360l-617 -1243c-44.667 -80 -97.5 -146 -158.5 -198s-148.833 -78 -263.5 -78c-28 0 -51.667 2 -71 6s-47.666 10.667 -84.999 20l78 241c8 -2 14.5 -3.5 19.5 -4.5s11.167 -1.5 18.5 -1.5c50.667 0 90.167 8 118.5 24
s50.833 39.333 67.5 70l37 70l-210 1094h359zM1039 1267l-3 -22h-265l-118 126l-155 -126h-260l4 26l336 240h193z" />
    <glyph glyph-name="Ydieresis" unicode="&#x178;" horiz-adv-x="1307" 
d="M692 819l6 -1l386 638h366l-636 -944l-76 -512h-337l79 528l-347 928h366zM1217 1601h-290l29 204h290zM702 1601h-290l29 204h290z" />
    <glyph glyph-name="Zacute" unicode="&#x179;" horiz-adv-x="1131" 
d="M445 260h631l-39 -260h-1022l-21 152l713 1044h-534l39 260h972l-21 -146zM828 1870h370l2 -6l-318 -260h-291l-2 5z" />
    <glyph glyph-name="zacute" unicode="&#x17a;" horiz-adv-x="1053" 
d="M456 265l2 -5h485l-39 -260h-919l28 188l571 629l-2 5h-453l39 260h888l-27 -182zM704 1524h370l2 -6l-318 -260h-291l-2 5z" />
    <glyph glyph-name="Zdotaccent" unicode="&#x17b;" horiz-adv-x="1131" 
d="M445 260h631l-39 -260h-1022l-21 152l713 1044h-534l39 260h972l-21 -146zM949 1605h-381l39 260h381z" />
    <glyph glyph-name="zdotaccent" unicode="&#x17c;" horiz-adv-x="1053" 
d="M456 265l2 -5h485l-39 -260h-919l28 188l571 629l-2 5h-453l39 260h888l-27 -182zM825 1259h-381l39 260h381z" />
    <glyph glyph-name="Zcaron" unicode="&#x17d;" horiz-adv-x="1131" 
d="M445 260h631l-39 -260h-1022l-21 152l713 1044h-534l39 260h972l-21 -146zM782 1764l119 116h309l-2 -16l-331 -260h-239l-255 262l2 14h312z" />
    <glyph glyph-name="zcaron" unicode="&#x17e;" horiz-adv-x="1053" 
d="M456 265l2 -5h485l-39 -260h-919l28 188l571 629l-2 5h-453l39 260h888l-27 -182zM658 1418l119 116h309l-2 -16l-331 -260h-239l-255 262l2 14h312z" />
    <glyph glyph-name="longs" unicode="&#x17f;" horiz-adv-x="539" 
d="M14 0l179.001 1194c19.333 129.333 70.666 226.166 153.999 290.499s194 96.5 332 96.5c24.667 0 50.5 -2 77.5 -6s55.833 -9 86.5 -15l-61 -249c-18.667 3.33301 -35 5.83301 -49 7.5s-31 2.5 -51 2.5c-41.333 0 -75.5 -11.167 -102.5 -33.5s-43.167 -53.5 -48.5 -93.5
l-179 -1194h-338z" />
    <glyph glyph-name="florin" unicode="&#x192;" horiz-adv-x="758" 
d="M764 848l-214.001 0.000976562l-123 -863c-20 -140 -70.5 -245.333 -151.5 -316s-186.5 -106 -316.5 -106c-28 0 -54.5 1.33301 -79.5 4s-50.833 7 -77.5 13l51 255c18.667 -4 34.167 -7 46.5 -9s28.833 -3 49.5 -3c36.667 0 67.334 14 92.001 42s41 68 49 120l121 863
h-156l32 234h156l16 112c18 129.333 68.333 226.166 151 290.499s193.334 96.5 332.001 96.5c24.667 0 50.5 -2 77.5 -6s55.833 -9 86.5 -15l-59 -249c-18.667 3.33301 -35 5.83301 -49 7.5s-31 2.5 -51 2.5c-40.667 0 -74.334 -11.167 -101.001 -33.5
s-42.667 -53.5 -48 -93.5l-16 -112h214z" />
    <glyph glyph-name="Ohorn" unicode="&#x1a0;" horiz-adv-x="1452" 
d="M1331 597c-28.667 -186.667 -107.667 -336.334 -237 -449.001s-286.666 -169 -471.999 -169c-177.333 0 -316.5 58.833 -417.5 176.5s-137.833 264.834 -110.5 441.501l39 262c27.333 185.333 106.166 334.666 236.499 447.999s288.833 170 475.5 170
c90 0 171.5 -16.667 244.5 -50s133.167 -80 180.5 -140c65.333 22 118.833 59.5 160.5 112.5s68.5 118.5 80.5 196.5h224c-20 -132.667 -61.5 -241.667 -124.5 -327s-145.167 -146.666 -246.5 -183.999c7.33301 -35.333 11.5 -72 12.5 -110s-1.16699 -76.667 -6.5 -116z
M1033 861c16 108 4.66699 194.333 -34 259s-103 97 -193 97c-88 0 -162.167 -33.5 -222.5 -100.5s-98.166 -152.167 -113.499 -255.5l-39 -264c-16.667 -109.333 -5.5 -196.333 33.5 -261s104.5 -97 196.5 -97c85.333 0 158.166 33.667 218.499 101s98.5 153 114.5 257z" />
    <glyph glyph-name="ohorn" unicode="&#x1a1;" horiz-adv-x="1199" 
d="M54 551c24.667 168.667 89.999 302.667 195.999 402s242.333 149 409 149c73.333 0 139 -12 197 -36s106.667 -57.667 146 -101c36.667 27.333 67.167 64 91.5 110s41.5 100 51.5 162h226c-16 -103.333 -48.333 -190 -97 -260s-112 -122.667 -190 -158
c12.667 -39.333 20.334 -81.5 23.001 -126.5s0.666992 -92.167 -6 -141.5l-3 -21c-26 -169.333 -91.833 -303.5 -197.5 -402.5s-241.5 -148.5 -407.5 -148.5c-159.333 0 -279 51.5 -359 154.5s-107.667 235.167 -83 396.5zM388.999 530
c-14.667 -93.333 -11.667 -165.169 9 -215.502s65.334 -75.5 134.001 -75.5c63.333 0 113.833 26.333 151.5 79s63.5 123.334 77.5 212.001l3 21c13.333 90.667 9.66602 161.834 -11.001 213.501s-65 77.5 -133 77.5c-64 0 -115 -27 -153 -81s-63 -124 -75 -210z" />
    <glyph glyph-name="Uhorn" unicode="&#x1af;" horiz-adv-x="1475" 
d="M1447 1456l-27.998 -182.001l6 -2c56.667 12 99.667 46.167 129 102.5s52 136.833 68 241.5h216l2 -5c-23.333 -170 -70.333 -299.333 -141 -388s-174 -141 -310 -157l-83 -554c-26.667 -173.333 -101.5 -305.5 -224.5 -396.5s-274.5 -136.5 -454.5 -136.5
c-172.667 0 -309.334 47.667 -410.001 143s-138.334 225.333 -113.001 390l141 944h339l-141 -944c-14.667 -93.333 -2.16699 -162.166 37.5 -206.499s101.5 -66.5 185.5 -66.5c79.333 0 145.833 23 199.5 69s87.5 114 101.5 204l141 944h339z" />
    <glyph glyph-name="uhorn" unicode="&#x1b0;" horiz-adv-x="1146" 
d="M1496 1181l1.99902 -6.00098c-16 -120.667 -56.5 -213.667 -121.5 -279s-158.167 -105.666 -279.5 -120.999l-116 -775h-272l-16 157c-41.333 -58 -89.666 -102.167 -144.999 -132.5s-116.666 -45.5 -183.999 -45.5c-108 0 -189 39.667 -243 119
s-68.667 200.666 -44 363.999l93 620h337l-93 -622c-13.333 -88 -11.5 -146.833 5.5 -176.5s48.5 -44.5 94.5 -44.5c35.333 0 67.666 5.33301 96.999 16s55 26.334 77 47.001l117 780h338l-19 -127l5 -2c49.333 9.33301 87.833 33 115.5 71s46.5 90.333 56.5 157h195z" />
    <glyph glyph-name="uni01F0" unicode="&#x1f0;" horiz-adv-x="604" 
d="M558 1082l-163.999 -1097c-21.333 -140 -73 -245.333 -155 -316s-188 -106 -318 -106c-28 0 -54.333 1.33301 -79 4s-50.334 7 -77.001 13l53 255c18 -4 33.5 -7 46.5 -9s29.5 -3 49.5 -3c37.333 0 68.5 14 93.5 42s41.5 68 49.5 120l164 1097h337zM409.001 1418l119 116
h309l-2 -16l-331 -260h-239l-255 262l2 14h312z" />
    <glyph glyph-name="Aringacute" unicode="&#x1fa;" horiz-adv-x="1307" 
d="M840 283h-432l-127 -283h-356l693 1456h181v-1l1 1h181l258 -1456h-356zM524 543h277l-67 451l-6 1zM1003 2169h282l2 -6l-318 -220h-203l-2 6zM613 1701c8 56 35.334 102.167 82.001 138.5s101 54.5 163 54.5c58 0 105.167 -18.833 141.5 -56.5
s50.833 -83.167 43.5 -136.5c-8.66699 -58 -35.834 -104.167 -81.501 -138.5s-99.167 -51.5 -160.5 -51.5c-59.333 0 -107.5 18 -144.5 54s-51.5 81.333 -43.5 136zM738.001 1701c-4 -28 1.33203 -50.001 15.999 -66.001s35.334 -24 62.001 -24
c24.667 0 46.667 8.33301 66 25s31 38.334 35 65.001c4 28.667 -0.666992 51.167 -14 67.5s-33.333 24.5 -60 24.5c-25.333 0 -48.333 -8.66699 -69 -26s-32.667 -39.333 -36 -66z" />
    <glyph glyph-name="aringacute" unicode="&#x1fb;" horiz-adv-x="1086" 
d="M641 1c-8.66699 22.667 -15.499 48.334 -20.499 77.001s-7.5 58.667 -7.5 90c-38 -57.333 -81 -103.166 -129 -137.499s-106.667 -51.5 -176 -51.5c-109.333 0 -192 29.5 -248 88.5s-76.667 138.167 -62 237.5c16.667 111.333 69 195.166 157 251.499s215 84.5 381 84.5
h139l12 77c6.66699 48 1 83.833 -17 107.5s-50 35.5 -96 35.5c-38 0 -68.333 -9.33301 -91 -28s-36.667 -47 -42 -85l-328 1l-1 6c11.333 102.667 64.833 186.167 160.5 250.5s215.5 96.5 359.5 96.5c129.333 0 231.666 -33.667 306.999 -101s103.666 -162.333 84.999 -285
l-61 -408c-9.33301 -59.333 -12.666 -112.833 -9.99902 -160.5s10 -96.834 22 -147.501zM436.001 220c39.333 0 76.833 9.83105 112.5 29.498s61.834 42.834 78.501 69.501l21 142h-136c-51.333 0 -91.666 -13.167 -120.999 -39.5s-47 -59.166 -53 -98.499
c-4.66699 -32 2.16602 -57.167 20.499 -75.5s44.166 -27.5 77.499 -27.5zM841.001 1847h282l2 -6l-318 -220h-203l-2 6zM451.001 1379c8 56 35.334 102.167 82.001 138.5s101 54.5 163 54.5c58 0 105.167 -18.833 141.5 -56.5s50.833 -83.167 43.5 -136.5
c-8.66699 -58 -35.834 -104.167 -81.501 -138.5s-99.167 -51.5 -160.5 -51.5c-59.333 0 -107.5 18 -144.5 54s-51.5 81.333 -43.5 136zM576.002 1379c-4 -28 1.33203 -50.001 15.999 -66.001s35.334 -24 62.001 -24c24.667 0 46.667 8.33301 66 25s31 38.334 35 65.001
c4 28.667 -0.666992 51.167 -14 67.5s-33.333 24.5 -60 24.5c-25.333 0 -48.333 -8.66699 -69 -26s-32.667 -39.333 -36 -66z" />
    <glyph glyph-name="AEacute" unicode="&#x1fc;" horiz-adv-x="1916" 
d="M1767 0h-897l35 329h-382l-202 -329h-390l953 1456h1040l-39 -264h-550l-34 -316h455l-39 -264h-444l-38 -348h572zM934 599l52 473l-6 2l-292 -475h246zM1159 1867h370l2 -6l-318 -260h-291l-2 5z" />
    <glyph glyph-name="aeacute" unicode="&#x1fd;" horiz-adv-x="1763" 
d="M1192 -21c-80.667 0 -151.834 12.8359 -213.501 38.5029s-112.167 62.5 -151.5 110.5c-46.667 -44 -104.5 -79.833 -173.5 -107.5s-147.5 -41.5 -235.5 -41.5c-130 0 -228.667 31.167 -296 93.5s-92.666 146.166 -75.999 251.499c16 110 71.833 192.667 167.5 248
s229.5 83 401.5 83h157l7 46c6.66699 45.333 0.333984 80.166 -18.999 104.499s-50.333 36.5 -93 36.5c-44.667 0 -82.167 -9.83301 -112.5 -29.5s-47.5 -43.834 -51.5 -72.501l-325 18l-2 6c11.333 101.333 65.666 183 162.999 245s221 93 371 93
c62 0 118.833 -7.66699 170.5 -23s95.834 -37.333 132.501 -66c45.333 29.333 96.166 51.5 152.499 66.5s117.5 22.5 183.5 22.5c135.333 0 238.833 -44.5 310.5 -133.5s96.5 -207.833 74.5 -356.5l-27 -177h-621l-2 -6c-6 -60.667 6.16699 -107.5 36.5 -140.5
s82.5 -49.5 156.5 -49.5c56 0 106 5.5 150 16.5s92.333 27.833 145 50.5l50 -206c-49.333 -34 -113.333 -62.667 -192 -86s-158 -35 -238 -35zM517 211.003c31.333 0 66.1689 8 104.502 24s70.166 35.333 95.499 58l24 158h-154c-56 0 -102.833 -13 -140.5 -39
s-58.834 -56.667 -63.501 -92c-5.33301 -36 3 -63.167 25 -81.5s58.333 -27.5 109 -27.5zM1310 842.003c-54.667 0 -97.5 -16.833 -128.5 -50.5s-52.5 -80.167 -64.5 -139.5l2 -6h291l4 26c8 55.333 3 97.5 -15 126.5s-47.667 43.5 -89 43.5zM1082 1546h370l2 -6l-318 -260
h-291l-2 5z" />
    <glyph glyph-name="Oslashacute" unicode="&#x1fe;" horiz-adv-x="1416" 
d="M1336 597c-28.667 -186.667 -107.665 -336.332 -236.998 -448.999s-286.666 -169 -471.999 -169c-50.667 0 -98.834 5.16699 -144.501 15.5s-87.834 25.833 -126.501 46.5l-99 -136h-140l145 199c-66.667 55.333 -114.5 125.833 -143.5 211.5s-35.5 179.5 -19.5 281.5
l39 262c27.333 185.333 106.166 334.666 236.499 447.999s288.833 170 475.5 170c65.333 0 126.5 -9 183.5 -27s108.167 -43.667 153.5 -77l105 145h140l-163 -223c46 -56 78.333 -121.333 97 -196s21.667 -154.667 9 -240zM436.002 597.002
c-7.33301 -46 -9.50098 -88 -6.50098 -126s10.833 -69.667 23.5 -95l6 -2l544 748c-20 30 -46 53.333 -78 70s-70 25 -114 25c-88 0 -162.167 -33.5 -222.5 -100.5s-98.166 -152.167 -113.499 -255.5zM1038 861.002c3.33301 22 5.33301 43 6 63s0.333984 37 -0.999023 51
l-5 2l-511 -701c18 -12.667 38.5 -22 61.5 -28s48.833 -9 77.5 -9c85.333 0 158.166 33.667 218.499 101s98.5 153 114.5 257zM961.001 1929h370l2 -6l-318 -260h-291l-2 5z" />
    <glyph glyph-name="oslashacute" unicode="&#x1ff;" horiz-adv-x="1152" 
d="M54 551c24.667 168.667 89.999 302.667 195.999 402s242.333 149 409 149c30.667 0 60.334 -2.33301 89.001 -7s56.334 -11.334 83.001 -20.001l92 144h177l-138 -216c58 -49.333 99 -113.166 123 -191.499s29.333 -165.166 16 -260.499l-3 -21
c-26 -169.333 -91.833 -303.5 -197.5 -402.5s-241.5 -148.5 -407.5 -148.5c-30.667 0 -59.834 2.16699 -87.501 6.5s-54.167 10.166 -79.5 17.499l-94 -148h-177l139 218c-60.667 48 -103.5 111.667 -128.5 191s-29.833 168 -14.5 266zM388.999 530
c-5.33301 -33.333 -8.50098 -62.5 -9.50098 -87.5s0.166992 -45.167 3.5 -60.5l6 -1l289 453c-9.33301 2 -18.666 3.83301 -27.999 5.5s-19.333 2.5 -30 2.5c-64 0 -115 -27 -153 -81s-63 -124 -75 -210zM763.998 551c4 28 6.5 53.999 7.5 77.999s0.5 43.667 -1.5 59l-6 2
l-284 -445c7.33301 -2 15.333 -3.5 24 -4.5s18 -1.5 28 -1.5c63.333 0 113.833 26.333 151.5 79s63.5 123.334 77.5 212.001zM719.998 1539h370l2 -6l-318 -260h-291l-2 5z" />
    <glyph glyph-name="Scommaaccent" unicode="&#x218;" horiz-adv-x="1273" 
d="M867 363c8.66699 59.333 -4 103.5 -38 132.5s-100 61.833 -198 98.5c-172.667 56.667 -302 124 -388 202s-120 176.333 -102 295c18 119.333 80.833 213.5 188.5 282.5s237.5 103.5 389.5 103.5c165.333 0 295 -39.667 389 -119s129 -188.333 105 -327l-2 -6h-329
c8 57.333 -6.83301 103.666 -44.5 138.999s-90.167 53 -157.5 53c-49.333 0 -93.666 -12 -132.999 -36s-61.666 -53.333 -66.999 -88c-8 -54 7 -94.333 45 -121s118.667 -61.667 242 -105c157.333 -51.333 274.333 -116.333 351 -195s105.667 -181 87 -307
c-19.333 -124.667 -81.833 -220.167 -187.5 -286.5s-236.5 -99.5 -392.5 -99.5c-160 0 -295.5 36.333 -406.5 109s-153.167 185 -126.5 337l2 6h328c-11.333 -71.333 8.16699 -121.166 58.5 -149.499s111.5 -42.5 183.5 -42.5c49.333 0 94.166 11.833 134.499 35.5
s63.166 53.167 68.499 88.5zM609 -282l-168 -235h-134l98 245l24 161h206z" />
    <glyph glyph-name="scommaaccent" unicode="&#x219;" horiz-adv-x="1048" 
d="M628 304c3.33301 27.333 -8.50195 51.3301 -35.502 71.9971s-79.833 39.334 -158.5 56.001c-122.667 24.667 -212.334 62.834 -269.001 114.501s-78.667 122.834 -66 213.501c13.333 98.667 64.333 180.334 153 245.001s202 97 340 97
c138.667 0 247.334 -32.5 326.001 -97.5s109.334 -147.833 92.001 -248.5l-2 -6h-329c6 44 -0.166992 76.667 -18.5 98s-51.833 32 -100.5 32c-34.667 0 -65.667 -9.66699 -93 -29s-42.666 -44 -45.999 -74c-4.66699 -29.333 5.5 -53.833 30.5 -73.5s78.5 -37.5 160.5 -53.5
c128.667 -26 221 -64.833 277 -116.5s77.667 -124.834 65 -219.501c-14.667 -101.333 -68.834 -182.5 -162.501 -243.5s-212.5 -91.5 -356.5 -91.5c-140.667 0 -250 37.667 -328 113s-108.667 158.333 -92 249l2 6h306c-6 -51.333 4.16699 -88.333 30.5 -111
s66.833 -34 121.5 -34c44 0 79.333 9 106 27s42.334 43 47.001 75zM485.998 -282.003l-168 -235h-134l98 245l24 161h206z" />
    <glyph glyph-name="uni0237" unicode="&#x237;" horiz-adv-x="604" 
d="M558 1082l-163.999 -1097c-21.333 -140 -73 -245.333 -155 -316s-188 -106 -318 -106c-28 0 -54.333 1.33301 -79 4s-50.334 7 -77.001 13l53 255c18 -4 33.5 -7 46.5 -9s29.5 -3 49.5 -3c37.333 0 68.5 14 93.5 42s41.5 68 49.5 120l164 1097h337z" />
    <glyph glyph-name="uni02BC" unicode="&#x2bc;" horiz-adv-x="577" 
d="M521 1162l-139 -250h-167l37 251l44 293h269z" />
    <glyph glyph-name="circumflex" unicode="&#x2c6;" horiz-adv-x="1033" 
d="M1029 1274l-3 -22h-265l-118 126l-155 -126h-260l4 26l336 240h193z" />
    <glyph glyph-name="caron" unicode="&#x2c7;" horiz-adv-x="985" 
d="M624 1412l119 116h309l-2 -16l-331 -260h-239l-255 262l2 14h312z" />
    <glyph glyph-name="breve" unicode="&#x2d8;" horiz-adv-x="927" 
d="M953 1456l2 -6c-10 -92 -51.667 -165.167 -125 -219.5s-166.666 -81.5 -279.999 -81.5c-108.667 0 -193.334 28.167 -254.001 84.5s-83 128.5 -67 216.5l2 6h244c-4.66699 -32.667 1.16602 -58.667 17.499 -78s44.833 -29 85.5 -29c38 0 68.333 10.167 91 30.5
s36.334 45.833 41.001 76.5h243z" />
    <glyph glyph-name="dotaccent" unicode="&#x2d9;" horiz-adv-x="664" 
d="M610 1215h-381l39 260h381z" />
    <glyph glyph-name="ring" unicode="&#x2da;" horiz-adv-x="674" 
d="M265 1304c7.33301 50.667 31.833 92.167 73.5 124.5s90.5 48.5 146.5 48.5c52 0 94.167 -16.833 126.5 -50.5s45.166 -74.5 38.499 -122.5c-8 -51.333 -32.5 -92.5 -73.5 -123.5s-88.833 -46.5 -143.5 -46.5c-53.333 0 -96.666 16.167 -129.999 48.5
s-46 72.833 -38 121.5zM388 1304c-4 -21.333 -0.331055 -38.332 11.002 -50.999s27.666 -19 48.999 -19c18.667 0 35.167 6.5 49.5 19.5s23.5 29.833 27.5 50.5c2.66699 22 -1 39.5 -11 52.5s-25 19.5 -45 19.5s-37.833 -6.83301 -53.5 -20.5
s-24.834 -30.834 -27.501 -51.501z" />
    <glyph glyph-name="ogonek" unicode="&#x2db;" horiz-adv-x="645" 
d="M332 0c-34 -34.667 -58.833 -62.834 -74.5 -84.501s-25.834 -48.167 -30.501 -79.5c-2 -12.667 0.833008 -25.667 8.5 -39s28.834 -20 63.501 -20c18 0 34.5 1.83301 49.5 5.5s29.5 7.83398 43.5 12.501l11 -168c-25.333 -12.667 -53.666 -23.167 -84.999 -31.5
s-67.333 -12.5 -108 -12.5c-74 0 -133.333 19 -178 57s-62 90.333 -52 157c7.33301 52 27.166 99.833 59.499 143.5s78.833 83.5 139.5 119.5z" />
    <glyph glyph-name="tilde" unicode="&#x2dc;" horiz-adv-x="987" 
d="M1019 1480c-9.33301 -66 -36.8311 -121.333 -82.498 -166s-98.834 -67 -159.501 -67c-44 0 -96.333 14 -157 42s-108.334 42 -143.001 42c-21.333 0 -41.166 -10.833 -59.499 -32.5s-29.166 -47.5 -32.499 -77.5l-171 50c8.66699 64.667 36 119.667 82 165
s99.333 68 160 68c35.333 0 85.166 -13.833 149.499 -41.5s114.166 -41.5 149.499 -41.5c20 0 39.5 10.833 58.5 32.5s30.5 47.5 34.5 77.5z" />
    <glyph glyph-name="hungarumlaut" unicode="&#x2dd;" horiz-adv-x="933" 
d="M934 1518h301l2 -6l-317 -260h-263l-2 6zM516 1518h304l2 -6l-279 -260h-266l-2 5z" />
    <glyph glyph-name="uni02F3" unicode="&#x2f3;" horiz-adv-x="659" 
d="M33 -225c7.33301 51.333 32.001 93 74.001 125s91.333 48 148 48c52.667 0 95.5 -16.667 128.5 -50s45.833 -74.333 38.5 -123c-8 -50.667 -32.333 -91.667 -73 -123s-89 -47 -145 -47c-54 0 -97.833 16.333 -131.5 49s-46.834 73 -39.501 121zM158.001 -225
c-3.33301 -20.667 0.668945 -37.502 12.002 -50.502s27.666 -19.5 48.999 -19.5c19.333 0 36.166 6.66699 50.499 20s23.166 30 26.499 50c3.33301 22.667 -0.166992 40.334 -10.5 53.001s-25.5 19 -45.5 19c-20.667 0 -38.667 -6.66699 -54 -20
s-24.666 -30.666 -27.999 -51.999z" />
    <glyph glyph-name="gravecomb" unicode="&#x300;" horiz-adv-x="0" 
d="M-408.145 1264.03h-207.016l-171.467 343.281l2.09082 7.92188h257.897z" />
    <glyph glyph-name="acutecomb" unicode="&#x301;" horiz-adv-x="0" 
d="M-479.112 1616.16h252.591l1.36523 -7.94531l-217.091 -344.297h-198.66l-1.36523 6.62109z" />
    <glyph glyph-name="tildecomb" unicode="&#x303;" horiz-adv-x="0" 
d="M0 1480c-9.33301 -66 -36.8311 -121.333 -82.498 -166s-98.834 -67 -159.501 -67c-44 0 -96.333 14 -157 42s-108.334 42 -143.001 42c-21.333 0 -41.166 -10.833 -59.499 -32.5s-29.166 -47.5 -32.499 -77.5l-171 50c8.66699 64.667 36 119.667 82 165s99.333 68 160 68
c35.333 0 85.166 -13.833 149.499 -41.5s114.166 -41.5 149.499 -41.5c20 0 39.5 10.833 58.5 32.5s30.5 47.5 34.5 77.5z" />
    <glyph glyph-name="hook" unicode="&#x309;" horiz-adv-x="0" 
d="M-639 1276l-2.99707 126c49.333 2 85.166 7.66699 107.499 17s33.5 23.666 33.5 42.999v6c6.66699 22.667 -0.833008 38.834 -22.5 48.501s-53.834 14.5 -96.501 14.5l28 145c138 0 240.167 -16.833 306.5 -50.5s94.5 -82.5 84.5 -146.5
c-6 -41.333 -25.333 -73.833 -58 -97.5s-70.334 -38.167 -113.001 -43.5l-10 -62h-257z" />
    <glyph glyph-name="uni030F" unicode="&#x30f;" horiz-adv-x="0" 
d="M-406 1252h-271l-239 261l2 5h303zM-26 1252h-274l-205 266h312z" />
    <glyph glyph-name="dotbelow" unicode="&#x323;" horiz-adv-x="0" 
d="M-541 -362h-381l39 260h381z" />
    <glyph glyph-name="tonos" unicode="&#x384;" horiz-adv-x="779" 
d="M489 1558h305l2 -5l-256 -281h-171z" />
    <glyph glyph-name="dieresistonos" unicode="&#x385;" horiz-adv-x="1163" 
d="M1105 1252h-280l30 204h280zM537 1252h-280l30 204h280zM717 1770h306l2 -5l-239 -281h-149z" />
    <glyph glyph-name="Alphatonos" unicode="&#x386;" horiz-adv-x="1307" 
d="M840 283h-432l-127 -283h-356l693 1456h181v-1l1 1h181l258 -1456h-356zM524 543h277l-67 451l-6 1zM270 1558h305l2 -5l-256 -281h-171z" />
    <glyph glyph-name="anoteleia" unicode="&#x387;" horiz-adv-x="658" 
d="M497 539h-338l42 284h338z" />
    <glyph glyph-name="Epsilontonos" unicode="&#x388;" horiz-adv-x="1143" 
d="M980 623h-513l-54 -363h615l-39 -260h-953l218 1456h954l-39 -260h-616l-47 -313h513zM-62 1560h305l2 -5l-256 -281h-171z" />
    <glyph glyph-name="Etatonos" unicode="&#x389;" horiz-adv-x="1446" 
d="M1250 0h-337l87 586h-539l-87 -586h-338l218 1456h338l-92 -610h539l92 610h337zM-26 1555h305l2 -5l-256 -281h-171z" />
    <glyph glyph-name="Iotatonos" unicode="&#x38a;" horiz-adv-x="611" 
d="M394 0h-337l218 1456h337zM-15 1560h305l2 -5l-256 -281h-171z" />
    <glyph glyph-name="Omicrontonos" unicode="&#x38c;" horiz-adv-x="1416" 
d="M1336 597c-28.667 -186.667 -107.667 -336.332 -237 -448.999s-286.666 -169 -471.999 -169c-177.333 0 -316.5 58.833 -417.5 176.5s-137.833 264.834 -110.5 441.501l39 262c27.333 185.333 106.166 334.666 236.499 447.999s288.833 170 475.5 170
c176 0 314 -58.833 414 -176.5s137 -264.834 111 -441.501zM1038 861.002c16 108 4.66699 194.333 -34 259s-103 97 -193 97c-88 0 -162.167 -33.5 -222.5 -100.5s-98.166 -152.167 -113.499 -255.5l-39 -264c-16.667 -109.333 -5.5 -196.333 33.5 -261s104.5 -97 196.5 -97
c85.333 0 158.166 33.667 218.499 101s98.5 153 114.5 257zM160 1558h305l2 -5l-256 -281h-171z" />
    <glyph glyph-name="Upsilontonos" unicode="&#x38e;" horiz-adv-x="1307" 
d="M692 819l6 -1l386 638h366l-636 -944l-76 -512h-337l79 528l-347 928h366zM-101 1558h305l2 -5l-256 -281h-171z" />
    <glyph glyph-name="Omegatonos" unicode="&#x38f;" horiz-adv-x="1380" 
d="M679 160l15.999 108.003c49.333 26.667 93.666 81.667 132.999 165s70.333 201.666 93 354.999l12 81c17.333 116 13 202.333 -13 259s-71.333 85 -136 85c-60.667 0 -113.5 -29.833 -158.5 -89.5s-75.5 -144.5 -91.5 -254.5l-12 -81
c-24 -160.667 -28.667 -280.834 -14 -360.501s44.334 -132.834 89.001 -159.501l-1 -4h1l-16 -104l-24 -160h-507l40 264h250c-74.667 58 -131.167 132.833 -169.5 224.5s-49.166 191.5 -32.499 299.5l12 79c27.333 185.333 102.833 333.333 226.5 444
s272.834 166 447.501 166c165.333 0 295.166 -57.667 389.499 -173s128.5 -261 102.5 -437l-12 -79c-16.667 -112 -57 -213 -121 -303s-141 -163.667 -231 -221h252l-40 -264h-509zM139.999 1558h305l2 -5l-256 -281h-171z" />
    <glyph glyph-name="iotadieresistonos" unicode="&#x390;" horiz-adv-x="685" 
d="M527 1081l-109 -730.999c-6.66699 -42 -4.5 -70.833 6.5 -86.5s32.5 -23.5 64.5 -23.5c20 0 35.5 0.666992 46.5 2s29.833 5 56.5 11l-15 -250c-32.667 -8.66699 -63 -14.834 -91 -18.501s-60.667 -5.5 -98 -5.5c-112.667 0 -197 31.5 -253 94.5
s-74.667 155.167 -56 276.5l109 731h339zM801 1192h-280l30 204h280zM233 1192h-280l30 204h280zM413 1710h306l2 -5l-239 -281h-149z" />
    <glyph glyph-name="Alpha" unicode="&#x391;" horiz-adv-x="1307" 
d="M840 283h-432l-127 -283h-356l693 1456h181v-1l1 1h181l258 -1456h-356zM524 543h277l-67 451l-6 1z" />
    <glyph glyph-name="Beta" unicode="&#x392;" horiz-adv-x="1306" 
d="M36 0l218 1456h477c174 0 308 -33.833 402 -101.5s131.333 -167.167 112 -298.5c-10.667 -71.333 -35.667 -133.666 -75 -186.999s-94.666 -93.333 -165.999 -120c82.667 -18.667 140.167 -57.167 172.5 -115.5s43.166 -125.833 32.499 -202.5
c-22.667 -146.667 -86.167 -255.167 -190.5 -325.5s-246.833 -105.5 -427.5 -105.5h-555zM467 624.999l-54.002 -365.001h217c69.333 0 124.833 14.5 166.5 43.5s66.834 72.167 75.501 129.5c8.66699 64.667 -0.166016 112.334 -26.499 143.001s-75.833 47 -148.5 49h-11
h-219zM500.998 848.998h133c78 0 140 14.333 186 43s73.333 70.667 82 126c9.33301 64 -3 109.667 -37 137s-91.667 41 -173 41h-139z" />
    <glyph glyph-name="Gamma" unicode="&#x393;" horiz-adv-x="1144" 
d="M1192 1196h-638l-179 -1196h-339l218 1456h977z" />
    <glyph glyph-name="Delta" unicode="&#x394;" horiz-adv-x="1517" 
d="M904 1456v-1l1 1h181l354 -1456h-1502l785 1456h181zM428 260h598l-177 800l-6 1z" />
    <glyph glyph-name="Delta" unicode="&#x2206;" horiz-adv-x="1517" 
d="M904 1456v-1l1 1h181l354 -1456h-1502l785 1456h181zM428 260h598l-177 800l-6 1z" />
    <glyph glyph-name="Epsilon" unicode="&#x395;" horiz-adv-x="1143" 
d="M980 623h-513l-54 -363h615l-39 -260h-953l218 1456h954l-39 -260h-616l-47 -313h513z" />
    <glyph glyph-name="Zeta" unicode="&#x396;" horiz-adv-x="1131" 
d="M445 260h631l-39 -260h-1022l-21 152l713 1044h-534l39 260h972l-21 -146z" />
    <glyph glyph-name="Eta" unicode="&#x397;" horiz-adv-x="1446" 
d="M1250 0h-337l87 586h-539l-87 -586h-338l218 1456h338l-92 -610h539l92 610h337z" />
    <glyph glyph-name="Theta" unicode="&#x398;" horiz-adv-x="1416" 
d="M878 589h-315l39 259h315zM1336 597c-28.667 -186.667 -107.667 -336.332 -237 -448.999s-286.666 -169 -471.999 -169c-177.333 0 -316.5 58.833 -417.5 176.5s-137.833 264.834 -110.5 441.501l39 262c27.333 185.333 106.166 334.666 236.499 447.999
s288.833 170 475.5 170c176 0 314 -58.833 414 -176.5s137 -264.834 111 -441.501zM1038 861.002c16 108 4.66699 194.333 -34 259s-103 97 -193 97c-88 0 -162.167 -33.5 -222.5 -100.5s-98.166 -152.167 -113.499 -255.5l-39 -264
c-16.667 -109.333 -5.5 -196.333 33.5 -261s104.5 -97 196.5 -97c85.333 0 158.166 33.667 218.499 101s98.5 153 114.5 257z" />
    <glyph glyph-name="Iota" unicode="&#x399;" horiz-adv-x="611" 
d="M394 0h-337l218 1456h337z" />
    <glyph glyph-name="Kappa" unicode="&#x39a;" horiz-adv-x="1306" 
d="M558 578h-96l-86 -578h-338l218 1456h338l-87 -576h91l346 576h446l-527 -721l328 -735h-390z" />
    <glyph glyph-name="Lambda" unicode="&#x39b;" horiz-adv-x="1319" 
d="M281 0h-356l691 1456h363l255 -1456h-355l-117 1061l-7 85l-6 1l-31 -82z" />
    <glyph glyph-name="Mu" unicode="&#x39c;" horiz-adv-x="1783" 
d="M870 438l6 -1l482 1019h447l-218 -1456h-338l140 937l-6 1l-461 -938h-227l-177 924h-6l-138 -924h-338l218 1456h443z" />
    <glyph glyph-name="Nu" unicode="&#x39d;" horiz-adv-x="1446" 
d="M1250 0h-337l-397 916l-6 -1l-136 -915h-338l218 1456h338l396 -915l6 1l137 914h337z" />
    <glyph glyph-name="Xi" unicode="&#x39e;" horiz-adv-x="1157" 
d="M44 260h1003l-39 -260h-1003zM260 856h752l-37 -248h-752zM256 1456h915l-39 -260h-915z" />
    <glyph glyph-name="Omicron" unicode="&#x39f;" horiz-adv-x="1416" 
d="M1336 597c-28.667 -186.667 -107.667 -336.332 -237 -448.999s-286.666 -169 -471.999 -169c-177.333 0 -316.5 58.833 -417.5 176.5s-137.833 264.834 -110.5 441.501l39 262c27.333 185.333 106.166 334.666 236.499 447.999s288.833 170 475.5 170
c176 0 314 -58.833 414 -176.5s137 -264.834 111 -441.501zM1038 861.002c16 108 4.66699 194.333 -34 259s-103 97 -193 97c-88 0 -162.167 -33.5 -222.5 -100.5s-98.166 -152.167 -113.499 -255.5l-39 -264c-16.667 -109.333 -5.5 -196.333 33.5 -261s104.5 -97 196.5 -97
c85.333 0 158.166 33.667 218.499 101s98.5 153 114.5 257z" />
    <glyph glyph-name="Pi" unicode="&#x3a0;" horiz-adv-x="1446" 
d="M1250 0h-337l179 1196h-539l-179 -1196h-338l218 1456h1214z" />
    <glyph glyph-name="Rho" unicode="&#x3a1;" horiz-adv-x="1306" 
d="M448 499l-73.999 -499h-338l218 1456h556c166 0 294.667 -44.5 386 -133.5s126.666 -204.167 105.999 -345.5c-22.667 -148.667 -90.5 -265.5 -203.5 -350.5s-256.833 -127.5 -431.5 -127.5h-219zM487.001 759h219c70.667 0 129 20.5 175 61.5s73.667 92.5 83 154.5
c9.33301 66.667 -2 120.167 -34 160.5s-85 60.5 -159 60.5h-218z" />
    <glyph glyph-name="Sigma" unicode="&#x3a3;" horiz-adv-x="1157" 
d="M885 731l-391 -466l2 -5h572l-39 -260h-1036l23 152l513 586l-340 568l22 150h1021l-39 -260h-559l253 -451z" />
    <glyph glyph-name="Tau" unicode="&#x3a4;" horiz-adv-x="1150" 
d="M1228 1196h-385l-179 -1196h-338l179 1196h-378l39 260h1101z" />
    <glyph glyph-name="Upsilon" unicode="&#x3a5;" horiz-adv-x="1307" 
d="M692 819l6 -1l386 638h366l-636 -944l-76 -512h-337l79 528l-347 928h366z" />
    <glyph glyph-name="Phi" unicode="&#x3a6;" horiz-adv-x="1541" 
d="M1062 1269c163.333 -13.333 290.168 -69.667 380.501 -169s124.166 -226.333 101.499 -381c-24.667 -158 -94.667 -283.5 -210 -376.5s-260 -145.167 -434 -156.5l-28 -186h-337l28 186c-165.333 12 -293.833 65.833 -385.5 161.5s-126.167 218.834 -103.5 369.501
c24 164 94.5 294.167 211.5 390.5s263.5 150.166 439.5 161.499l28 187h337zM405.002 716.999c-12 -74.667 -0.331055 -132.168 35.002 -172.501s88.666 -63.166 159.999 -68.499l6 1l75 499l-6 3c-70 -8 -129.833 -34.667 -179.5 -80s-79.834 -106 -90.501 -182z
M1213 718.998c12 80 0.832031 141.667 -33.501 185s-86.166 68.666 -155.499 75.999l-6 -2l-75 -498l6 -3c68.667 6.66699 127 30.834 175 72.501s77.667 98.167 89 169.5z" />
    <glyph glyph-name="Chi" unicode="&#x3a7;" horiz-adv-x="1307" 
d="M711 972l6 -1l309 485h390l-525 -722l339 -734h-410l-173 501l-323 -501h-390l538 734l-309 722h387z" />
    <glyph glyph-name="Psi" unicode="&#x3a8;" horiz-adv-x="1517" 
d="M953 633l5.00098 -2.00098c66.667 8.66699 120.5 41.167 161.5 97.5s69.5 136.5 85.5 240.5l73 487h339l-73 -487c-28 -186 -97.333 -330.5 -208 -433.5s-252.334 -162.167 -425.001 -177.5l-53 -358h-337l53 357c-166.667 13.333 -293.167 73.666 -379.5 180.999
s-115.833 251 -88.5 431l73 487h337l-73 -487c-16 -105.333 -9.66699 -185.666 19 -240.999s78 -87.666 148 -96.999l5 1l124 824h337z" />
    <glyph glyph-name="Omega" unicode="&#x3a9;" horiz-adv-x="1380" 
d="M679 160l15.999 108.003c49.333 26.667 93.666 81.667 132.999 165s70.333 201.666 93 354.999l12 81c17.333 116 13 202.333 -13 259s-71.333 85 -136 85c-60.667 0 -113.5 -29.833 -158.5 -89.5s-75.5 -144.5 -91.5 -254.5l-12 -81
c-24 -160.667 -28.667 -280.834 -14 -360.501s44.334 -132.834 89.001 -159.501l-1 -4h1l-16 -104l-24 -160h-507l40 264h250c-74.667 58 -131.167 132.833 -169.5 224.5s-49.166 191.5 -32.499 299.5l12 79c27.333 185.333 102.833 333.333 226.5 444
s272.834 166 447.501 166c165.333 0 295.166 -57.667 389.499 -173s128.5 -261 102.5 -437l-12 -79c-16.667 -112 -57 -213 -121 -303s-141 -163.667 -231 -221h252l-40 -264h-509z" />
    <glyph glyph-name="Omega" unicode="&#x2126;" horiz-adv-x="1380" 
d="M679 160l15.999 108.003c49.333 26.667 93.666 81.667 132.999 165s70.333 201.666 93 354.999l12 81c17.333 116 13 202.333 -13 259s-71.333 85 -136 85c-60.667 0 -113.5 -29.833 -158.5 -89.5s-75.5 -144.5 -91.5 -254.5l-12 -81
c-24 -160.667 -28.667 -280.834 -14 -360.501s44.334 -132.834 89.001 -159.501l-1 -4h1l-16 -104l-24 -160h-507l40 264h250c-74.667 58 -131.167 132.833 -169.5 224.5s-49.166 191.5 -32.499 299.5l12 79c27.333 185.333 102.833 333.333 226.5 444
s272.834 166 447.501 166c165.333 0 295.166 -57.667 389.499 -173s128.5 -261 102.5 -437l-12 -79c-16.667 -112 -57 -213 -121 -303s-141 -163.667 -231 -221h252l-40 -264h-509z" />
    <glyph glyph-name="Iotadieresis" unicode="&#x3aa;" horiz-adv-x="611" 
d="M394 0h-337l218 1456h337zM861 1601h-290l29 204h290zM346 1601h-290l29 204h290z" />
    <glyph glyph-name="Upsilondieresis" unicode="&#x3ab;" horiz-adv-x="1307" 
d="M692 819l6 -1l386 638h366l-636 -944l-76 -512h-337l79 528l-347 928h366zM1217 1601h-290l29 204h290zM702 1601h-290l29 204h290z" />
    <glyph glyph-name="alphatonos" unicode="&#x3ac;" horiz-adv-x="1152" 
d="M1124 1081l-109.001 -731.001c-6.66699 -41.333 -5.83398 -69.833 2.49902 -85.5s24.833 -23.5 49.5 -23.5c8 0 14.667 0.5 20 1.5s11.333 2.83301 18 5.5l-12 -245c-26.667 -8.66699 -51.167 -14.834 -73.5 -18.501s-47.833 -5.5 -76.5 -5.5
c-66.667 0 -122.167 14.333 -166.5 43s-74.833 71.334 -91.5 128.001c-38.667 -55.333 -81.667 -97.666 -129 -126.999s-100 -44 -158 -44c-128.667 0 -223.667 49.833 -285 149.5s-79.666 229.5 -54.999 389.5l3 21c26 174.667 83 312.167 171 412.5s200 150.5 336 150.5
c52.667 0 97.334 -14.5 134.001 -43.5s66 -70.167 88 -123.5l66 146h268zM396.999 517.999c-14 -91.333 -12.001 -160.666 5.99902 -207.999s57.667 -71 119 -71c32 0 60.5 5.83301 85.5 17.5s46.833 29.167 65.5 52.5c0 5.33301 0.5 11.166 1.5 17.499
s2.16699 14.166 3.5 23.499l62 417c-11.333 24 -27.333 42.5 -48 55.5s-46.667 19.5 -78 19.5c-56.667 0 -103.167 -28.167 -139.5 -84.5s-61.166 -129.166 -74.499 -218.499zM692.998 1478h305l2 -5l-256 -281h-171z" />
    <glyph glyph-name="epsilontonos" unicode="&#x3ad;" horiz-adv-x="1159" 
d="M59 306c8.66699 63.333 33.999 116 75.999 158s98.333 73.667 169 95c-54 24 -95 56 -123 96s-38.333 83.667 -31 131c15.333 103.333 73.166 181.666 173.499 234.999s227.833 80 382.5 80c127.333 0 232.5 -30.167 315.5 -90.5s115.167 -139.166 96.5 -236.499l-2 -6
h-328c4.66699 31.333 -5.66602 54.666 -30.999 69.999s-61.666 23 -108.999 23c-48.667 0 -87.5 -10.667 -116.5 -32s-45.5 -46 -49.5 -74c-4.66699 -32 5.83301 -56.333 31.5 -73s63.167 -25 112.5 -25h175l-11 -69l-20 -138h-175c-54 0 -98.667 -9.16699 -134 -27.5
s-56 -47.166 -62 -86.499c-5.33301 -32.667 5 -60.167 31 -82.5s66.333 -33.5 121 -33.5c54 0 97.5 9.33301 130.5 28s51.833 42.667 56.5 72h326l2 -6c-13.333 -112.667 -71.166 -196.5 -173.499 -251.5s-220.5 -82.5 -354.5 -82.5c-147.333 0 -267.833 29.5 -361.5 88.5
s-132.834 138.167 -117.501 237.5zM677.999 1477h305l2 -5l-256 -281h-171z" />
    <glyph glyph-name="etatonos" unicode="&#x3ae;" 
d="M480 934c43.333 53.333 93.334 94.667 150.001 124s117 44 181 44c102 0 178.333 -36.333 229 -109s64.667 -186.667 42 -342l-160 -1067h-338l160 1068c10.667 71.333 7.16699 120.833 -10.5 148.5s-47.834 41.5 -90.501 41.5c-35.333 0 -68.333 -6.83301 -99 -20.5
s-58 -32.5 -82 -56.5l-115 -765h-337l162 1082h317zM652.001 1478h305l2 -5l-256 -281h-171z" />
    <glyph glyph-name="iotatonos" unicode="&#x3af;" horiz-adv-x="685" 
d="M527 1081l-109 -730.999c-6.66699 -42 -4.5 -70.833 6.5 -86.5s32.5 -23.5 64.5 -23.5c20 0 35.5 0.666992 46.5 2s29.833 5 56.5 11l-15 -250c-32.667 -8.66699 -63 -14.834 -91 -18.501s-60.667 -5.5 -98 -5.5c-112.667 0 -197 31.5 -253 94.5
s-74.667 155.167 -56 276.5l109 731h339zM367 1456h305l2 -5l-256 -281h-171z" />
    <glyph glyph-name="upsilondieresistonos" unicode="&#x3b0;" 
d="M518 1082l-91.002 -611.997c-14 -86.667 -9.83301 -146.834 12.5 -180.501s56.833 -50.5 103.5 -50.5c56.667 0 103.167 31.667 139.5 95s61.5 140.666 75.5 231.999c10.667 86 14.834 172.167 12.501 258.5s-10.833 172.166 -25.5 257.499h313
c23.333 -68.667 39 -146.167 47 -232.5s4.33301 -180.833 -11 -283.5c-28.667 -189.333 -88.167 -334.5 -178.5 -435.5s-224.166 -151.5 -401.499 -151.5c-150 0 -264.333 41.167 -343 123.5s-105.667 205.5 -81 369.5l91 610h337zM1103 1193h-280l30 204h280zM534.998 1193
h-280l30 204h280zM714.998 1711h306l2 -5l-239 -281h-149z" />
    <glyph glyph-name="alpha" unicode="&#x3b1;" horiz-adv-x="1152" 
d="M1124 1081l-109.001 -731.001c-6.66699 -41.333 -5.83398 -69.833 2.49902 -85.5s24.833 -23.5 49.5 -23.5c8 0 14.667 0.5 20 1.5s11.333 2.83301 18 5.5l-12 -245c-26.667 -8.66699 -51.167 -14.834 -73.5 -18.501s-47.833 -5.5 -76.5 -5.5
c-66.667 0 -122.167 14.333 -166.5 43s-74.833 71.334 -91.5 128.001c-38.667 -55.333 -81.667 -97.666 -129 -126.999s-100 -44 -158 -44c-128.667 0 -223.667 49.833 -285 149.5s-79.666 229.5 -54.999 389.5l3 21c26 174.667 83 312.167 171 412.5s200 150.5 336 150.5
c52.667 0 97.334 -14.5 134.001 -43.5s66 -70.167 88 -123.5l66 146h268zM396.999 517.999c-14 -91.333 -12.001 -160.666 5.99902 -207.999s57.667 -71 119 -71c32 0 60.5 5.83301 85.5 17.5s46.833 29.167 65.5 52.5c0 5.33301 0.5 11.166 1.5 17.499
s2.16699 14.166 3.5 23.499l62 417c-11.333 24 -27.333 42.5 -48 55.5s-46.667 19.5 -78 19.5c-56.667 0 -103.167 -28.167 -139.5 -84.5s-61.166 -129.166 -74.499 -218.499z" />
    <glyph glyph-name="beta" unicode="&#x3b2;" horiz-adv-x="1243" 
d="M779 1477c144.667 0 256.834 -34.5 336.501 -103.5s110.167 -166.167 91.5 -291.5c-11.333 -72 -38 -135.833 -80 -191.5s-95.667 -99.5 -161 -131.5c76.667 -29.333 132.834 -74 168.501 -134s47.167 -132.333 34.5 -217c-21.333 -142 -75.5 -249 -162.5 -321
s-201.5 -108 -343.5 -108c-46 0 -92 6 -138 18s-88 30.333 -126 55l-70 -467h-337l215 1433c21.333 144 85.666 256.5 192.999 337.5s233.666 121.5 378.999 121.5zM626 857h55.9961c51.333 0 92.333 16.333 123 49s51 81 61 145c6.66699 48.667 -0.5 88.5 -21.5 119.5
s-55.833 46.5 -104.5 46.5c-48 0 -90.5 -18 -127.5 -54s-59.833 -84.333 -68.5 -145l-111 -739c20.667 -13.333 46.334 -23.333 77.001 -30s65.334 -10 104.001 -10c56.667 0 105.5 16.833 146.5 50.5s65.167 75.5 72.5 125.5c10.667 74.667 1.83398 128.5 -26.499 161.5
s-76.166 49.5 -143.499 49.5h-72l25 169z" />
    <glyph glyph-name="gamma" unicode="&#x3b3;" horiz-adv-x="1053" 
d="M774 1082h355l-514 -1082h-3l-63 -417h-338l63 417h-2l-190 1082h356l50 -636l3 -115l6 -1l39 116z" />
    <glyph glyph-name="delta" unicode="&#x3b4;" 
d="M1137 1456l-39 -260h-382l-2 -6l161 -142c77.333 -64.667 138.166 -137 182.499 -217s58.833 -173.333 43.5 -280l-3 -21c-26 -169.333 -91.833 -303.5 -197.5 -402.5s-241.5 -148.5 -407.5 -148.5c-159.333 0 -279.666 47.667 -360.999 143s-110.333 218 -87 368l3 21
c20 134 72.667 244.5 158 331.5s184 140.5 296 160.5l9 1l2 6l-254 239l31 207h847zM620 842c-64 0 -115 -27.0029 -153 -81.0029s-63 -124 -75 -210l-3 -21c-14.667 -93.333 -11.667 -165.166 9 -215.499s65.334 -75.5 134.001 -75.5c63.333 0 113.833 26.333 151.5 79
s63.5 123.334 77.5 212.001l3 21c13.333 90.667 9.66602 161.834 -11.001 213.501s-65 77.5 -133 77.5z" />
    <glyph glyph-name="epsilon" unicode="&#x3b5;" horiz-adv-x="1159" 
d="M59 306c8.66699 63.333 33.999 116 75.999 158s98.333 73.667 169 95c-54 24 -95 56 -123 96s-38.333 83.667 -31 131c15.333 103.333 73.166 181.666 173.499 234.999s227.833 80 382.5 80c127.333 0 232.5 -30.167 315.5 -90.5s115.167 -139.166 96.5 -236.499l-2 -6
h-328c4.66699 31.333 -5.66602 54.666 -30.999 69.999s-61.666 23 -108.999 23c-48.667 0 -87.5 -10.667 -116.5 -32s-45.5 -46 -49.5 -74c-4.66699 -32 5.83301 -56.333 31.5 -73s63.167 -25 112.5 -25h175l-11 -69l-20 -138h-175c-54 0 -98.667 -9.16699 -134 -27.5
s-56 -47.166 -62 -86.499c-5.33301 -32.667 5 -60.167 31 -82.5s66.333 -33.5 121 -33.5c54 0 97.5 9.33301 130.5 28s51.833 42.667 56.5 72h326l2 -6c-13.333 -112.667 -71.166 -196.5 -173.499 -251.5s-220.5 -82.5 -354.5 -82.5c-147.333 0 -267.833 29.5 -361.5 88.5
s-132.834 138.167 -117.501 237.5z" />
    <glyph glyph-name="zeta" unicode="&#x3b6;" horiz-adv-x="1014" 
d="M1104 1456l-26 -177.995l-435 -435c-78 -78.667 -135 -146.334 -171 -203.001s-59.667 -123.334 -71 -200.001c-10 -64.667 -1.5 -111.834 25.5 -141.501s75.167 -44.5 144.5 -44.5h65c90 0 159.167 -26 207.5 -78s65.833 -123 52.5 -213
c-14.667 -88.667 -58.5 -169 -131.5 -241s-168.167 -121.667 -285.5 -149l-70 226c46 18 82.333 37.167 109 57.5s42.334 45.166 47.001 74.499c2.66699 22.667 -3.83301 39.834 -19.5 51.501s-44.834 17.5 -87.501 17.5h-48c-127.333 0 -222 37.667 -284 113
s-85 164.666 -69 267.999c18 120 53 219.667 105 299s135.333 178.666 250 297.999l210 214l-3 6h-465l38 258h912z" />
    <glyph glyph-name="eta" unicode="&#x3b7;" 
d="M480 934c43.333 53.333 93.334 94.667 150.001 124s117 44 181 44c102 0 178.333 -36.333 229 -109s64.667 -186.667 42 -342l-160 -1067h-338l160 1068c10.667 71.333 7.16699 120.833 -10.5 148.5s-47.834 41.5 -90.501 41.5c-35.333 0 -68.333 -6.83301 -99 -20.5
s-58 -32.5 -82 -56.5l-115 -765h-337l162 1082h317z" />
    <glyph glyph-name="theta" unicode="&#x3b8;" horiz-adv-x="1231" 
d="M1106 535c-27.333 -181.333 -93.8359 -319.333 -199.503 -414s-235.5 -142 -389.5 -142c-147.333 0 -261.5 49.5 -342.5 148.5s-108.5 234.833 -82.5 407.5l58 386c26.667 180.667 92.834 318.5 198.501 413.5s236.167 142.5 391.5 142.5
c146.667 0 260.334 -49.667 341.001 -149s108.334 -235 83.001 -407zM779.997 611h-340l-14 -97c-14.667 -94 -10.5 -163.333 12.5 -208s62.167 -67 117.5 -67c51.333 0 95.833 23.333 133.5 70s63.167 115 76.5 205zM477.997 858l340.001 -0.000976562l13 86
c13.333 92 8.5 160.5 -14.5 205.5s-61.5 67.5 -115.5 67.5c-52 0 -96.833 -23.667 -134.5 -71s-62.834 -114.666 -75.501 -201.999z" />
    <glyph glyph-name="iota" unicode="&#x3b9;" horiz-adv-x="685" 
d="M527 1081l-109 -730.999c-6.66699 -42 -4.5 -70.833 6.5 -86.5s32.5 -23.5 64.5 -23.5c20 0 35.5 0.666992 46.5 2s29.833 5 56.5 11l-15 -250c-32.667 -8.66699 -63 -14.834 -91 -18.501s-60.667 -5.5 -98 -5.5c-112.667 0 -197 31.5 -253 94.5
s-74.667 155.167 -56 276.5l109 731h339z" />
    <glyph glyph-name="kappa" unicode="&#x3ba;" horiz-adv-x="1242" 
d="M552 378h-121l-56 -378h-337l162 1082h337l-59 -389h91l283 389h425l2 -5l-426 -500l10 5l267 -582h-434z" />
    <glyph glyph-name="lambda" unicode="&#x3bb;" horiz-adv-x="1071" 
d="M271 0l-359.997 0.000976562l527 1072l-38 95c-8.66699 27.333 -24.5 49.166 -47.5 65.499s-51.167 24.5 -84.5 24.5c-9.33301 0 -21 -0.666992 -35 -2s-24.333 -2.66602 -31 -3.99902l27 241c36 9.33301 65.167 16 87.5 20s48.166 6 77.499 6
c109.333 0 188.5 -27 237.5 -81s82.5 -118.667 100.5 -194l234 -875c6.66699 -29.333 17.5 -54 32.5 -74s35.167 -33.667 60.5 -41c5.33301 -2 13.166 -3.33301 23.499 -4s20.5 -1 30.5 -1l-66 -252c-28.667 -4 -56.834 -6.5 -84.501 -7.5s-55.5 -0.166992 -83.5 2.5
c-88 8.66699 -151.667 48.167 -191 118.5s-66 148.166 -80 233.499l-63 314l-6 1l-17 -54z" />
    <glyph glyph-name="uni03BC" unicode="&#x3bc;" horiz-adv-x="1313" 
d="M552 1082l-92.999 -619.998c-13.333 -88 -9.33301 -146.5 12 -175.5s60.666 -43.5 117.999 -43.5c43.333 0 81.166 8.16699 113.499 24.5s59.833 40.166 82.5 71.499l111 743h337l-162 -1082h-317l3 49c-32 -23.333 -66.5 -40.833 -103.5 -52.5
s-76.167 -17.5 -117.5 -17.5c-27.333 0 -53.166 3.16699 -77.499 9.5s-46.5 15.166 -66.5 26.499l-64 -431h-338l224 1498h338z" />
    <glyph glyph-name="nu" unicode="&#x3bd;" horiz-adv-x="1053" 
d="M488 446l3 -115l6 -1l39 116l238 636h355l-514 -1082h-343l-190 1082h356z" />
    <glyph glyph-name="xi" unicode="&#x3be;" horiz-adv-x="1125" 
d="M1148 1456l-40 -270.001h-278c-64 -1.33301 -114.333 -12.666 -151 -33.999s-57.667 -51 -63 -89c-6.66699 -44.667 2.83301 -79.667 28.5 -105s70.167 -38 133.5 -38h155l-27 -183h-1l-13 -88h-143c-90.667 0 -164.334 -19.5 -221.001 -58.5
s-90.334 -94.5 -101.001 -166.5c-8.66699 -54 2.83301 -96.5 34.5 -127.5s79.834 -46.5 144.501 -46.5h152c95.333 0 168.5 -24.5 219.5 -73.5s69.5 -120.167 55.5 -213.5c-17.333 -104.667 -60.166 -191 -128.499 -259s-165.5 -118.667 -291.5 -152l-53 193
c39.333 16 74 35.167 104 57.5s48 51.5 54 87.5c4 29.333 -2.5 51.5 -19.5 66.5s-46.167 22.5 -87.5 22.5h-70c-154 0 -273.167 39.833 -357.5 119.5s-115.833 189.5 -94.5 329.5c13.333 88 48.5 161.5 105.5 220.5s134.5 103.5 232.5 133.5
c-57.333 20.667 -99.833 49.167 -127.5 85.5s-37.5 79.833 -29.5 130.5c6.66699 44.667 24.667 82.167 54 112.5s68.333 53.5 117 69.5l-3 6h-200l40 270h870z" />
    <glyph glyph-name="omicron" unicode="&#x3bf;" 
d="M54 551c24.667 168.667 89.998 302.667 195.998 402s242.333 149 409 149c158.667 0 277.834 -51.667 357.501 -155s107.834 -235.333 84.501 -396l-3 -21c-26 -169.333 -91.833 -303.5 -197.5 -402.5s-241.5 -148.5 -407.5 -148.5c-159.333 0 -279 51.5 -359 154.5
s-107.667 235.167 -83 396.5zM388.998 530c-14.667 -93.333 -11.667 -165.169 9 -215.502s65.334 -75.5 134.001 -75.5c63.333 0 113.833 26.333 151.5 79s63.5 123.334 77.5 212.001l3 21c13.333 90.667 9.66602 161.834 -11.001 213.501s-65 77.5 -133 77.5
c-64 0 -115 -27 -153 -81s-63 -124 -75 -210z" />
    <glyph glyph-name="pi" unicode="&#x3c0;" horiz-adv-x="1440" 
d="M1322 840l-230 0.000976562l-73 -490c-6.66699 -42 -4.5 -70.833 6.5 -86.5s32.5 -23.5 64.5 -23.5c20 0 35.5 0.666992 46.5 2s29.833 5 56.5 11l-15 -250c-32.667 -8.66699 -63 -14.834 -91 -18.501s-60.667 -5.5 -98 -5.5c-112.667 0 -197 31.5 -253 94.5
s-74.667 155.167 -56 276.5l73 490h-131l-126 -840h-337l126 840h-161l36 242h1198z" />
    <glyph glyph-name="rho" unicode="&#x3c1;" 
d="M1097 518c-26 -168 -82.5 -299.832 -169.5 -395.499s-197.833 -143.5 -332.5 -143.5c-51.333 0 -95.666 10.667 -132.999 32s-68.333 52.666 -93 93.999l-77 -521h-338l149 995c23.333 157.333 87.166 283.833 191.499 379.5s239.166 143.5 404.499 143.5
c146.667 0 256.334 -52.333 329.001 -157s96.667 -240 72 -406zM762 539.001c13.333 94 10.668 167.999 -7.99902 221.999s-57.334 81 -116.001 81c-52 0 -95.333 -26.833 -130 -80.5s-58.667 -126.167 -72 -217.5l-1 -1l-35 -234c12 -23.333 30.5 -40.833 55.5 -52.5
s56.833 -17.5 95.5 -17.5c57.333 0 102.833 24.833 136.5 74.5s57.5 117.834 71.5 204.501z" />
    <glyph glyph-name="sigma1" unicode="&#x3c2;" horiz-adv-x="1027" 
d="M642 1102c132 0 234.501 -38.667 307.501 -116s98.5 -181.666 76.5 -312.999l-2 -5h-309c8 52.667 2.66699 94.834 -16 126.501s-50.667 47.5 -96 47.5c-63.333 0 -112.333 -26.667 -147 -80s-58.334 -123.333 -71.001 -210l-4 -23
c-14 -92.667 -5.33301 -158.334 26 -197.001s91.666 -64.667 180.999 -78c126 -20.667 214.667 -54.5 266 -101.5s70 -117.167 56 -210.5c-15.333 -88.667 -59.5 -169 -132.5 -241s-167.833 -121.667 -284.5 -149l-71 226c46.667 18.667 83.167 38.167 109.5 58.5
s41.833 45.166 46.5 74.499c2.66699 25.333 -6.16602 44.833 -26.499 58.5s-53.5 25.5 -99.5 35.5c-162 24 -276.333 79.333 -343 166s-88.334 206 -65.001 358l4 23c24.667 168.667 88.334 302.5 191.001 401.5s237 148.5 403 148.5z" />
    <glyph glyph-name="sigma" unicode="&#x3c3;" horiz-adv-x="1176" 
d="M1193 822l-247 -0.00292969c44 -41.333 77.667 -89.166 101 -143.499s31 -110.5 23 -168.5l-4 -21c-24 -157.333 -86.167 -281.666 -186.5 -372.999s-229.833 -137 -388.5 -137c-159.333 0 -279 51.5 -359 154.5s-107.667 235.167 -83 396.5l3 21
c24 162.667 88.667 291.834 194 387.501s241.333 143.5 408 143.5v-1h1v1h577zM386 529.997c-14.667 -93.333 -11.5 -165.167 9.5 -215.5s65.833 -75.5 134.5 -75.5c56 0 100.833 26.333 134.5 79s57.5 123.334 71.5 212.001l3 21c12 82.667 10 147.667 -6 195
s-52 72.666 -108 75.999h-9c-64 0 -115 -25.333 -153 -76s-62.667 -115.667 -74 -195z" />
    <glyph glyph-name="tau" unicode="&#x3c4;" horiz-adv-x="1077" 
d="M1096 824h-343l-123 -824h-338l123 824h-336l38 258h1017z" />
    <glyph glyph-name="upsilon" unicode="&#x3c5;" 
d="M518 1082l-91.002 -611.997c-14 -86.667 -9.83301 -146.834 12.5 -180.501s56.833 -50.5 103.5 -50.5c56.667 0 103.167 31.667 139.5 95s61.5 140.666 75.5 231.999c10.667 86 14.834 172.167 12.501 258.5s-10.833 172.166 -25.5 257.499h313
c23.333 -68.667 39 -146.167 47 -232.5s4.33301 -180.833 -11 -283.5c-28.667 -189.333 -88.167 -334.5 -178.5 -435.5s-224.166 -151.5 -401.499 -151.5c-150 0 -264.333 41.167 -343 123.5s-105.667 205.5 -81 369.5l91 610h337z" />
    <glyph glyph-name="phi" unicode="&#x3c6;" horiz-adv-x="1567" 
d="M1026 1082l-123.003 -818.002l5 -3c80 14.667 141.333 46.334 184 95.001s70 111.667 82 189c11.333 84 1.33301 151.167 -30 201.5s-83.666 75.5 -156.999 75.5l38 253l6 2c180 2 309.833 -52.667 389.5 -164s109.834 -234 90.501 -368
c-23.333 -152.667 -86.833 -278.667 -190.5 -378s-256.834 -159.333 -459.501 -180l-69 -465h-338l70 470c-187.333 28 -319 98.5 -395 211.5s-102.333 247.5 -79 403.5c14.667 98 40 185.5 76 262.5s79.667 147.833 131 212.5h301
c-43.333 -85.333 -79.666 -167 -108.999 -245s-50 -154.667 -62 -230c-15.333 -97.333 -10.166 -174.166 15.501 -230.499s78.167 -92.833 157.5 -109.5l5 1l123 814h338z" />
    <glyph glyph-name="chi" unicode="&#x3c7;" horiz-adv-x="1071" 
d="M232 1099c110 0 189.504 -26.832 238.504 -80.499s82.833 -118.5 101.5 -194.5l31 -110l6 -1l234 369h343l-476 -738l114 -395c5.33301 -28 15.833 -52.167 31.5 -72.5s35.834 -34.5 60.501 -42.5c5.33301 -2 13.166 -3.5 23.499 -4.5s20.5 -1.5 30.5 -1.5l-64 -251
c-28 -4.66699 -55.833 -7.5 -83.5 -8.5s-56.167 0.166992 -85.5 3.5c-72.667 9.33301 -124.834 46.666 -156.501 111.999s-58.5 145.333 -80.5 240l-17 58l-6 1l-257 -399h-327l484 764l-115 400c-8 31.333 -26 54.166 -54 68.499s-62 21.5 -102 21.5
c-9.33301 0 -20.833 -0.666992 -34.5 -2s-23.834 -2.66602 -30.501 -3.99902l27 241c35.333 9.33301 64.166 16 86.499 20s48.166 6 77.499 6z" />
    <glyph glyph-name="psi" unicode="&#x3c8;" horiz-adv-x="1569" 
d="M1027 1082l-121.001 -810.999l5 -2c78.667 18.667 140.334 57.167 185.001 115.5s74 132.5 88 222.5c10.667 76 13 153 7 231s-18 159.333 -36 244h301c30.667 -63.333 52.5 -134.833 65.5 -214.5s12.833 -166.5 -0.5 -260.5
c-25.333 -168 -90.666 -307.167 -195.999 -417.5s-259.333 -177.5 -462 -201.5l-70 -466h-337l70 470c-166.667 24 -291.834 85.167 -375.501 183.5s-112.167 235.5 -85.5 411.5l74 495h338l-74 -498c-15.333 -96.667 -8.33301 -170.334 21 -221.001s75.333 -82.667 138 -96
l5 1l123 814h337z" />
    <glyph glyph-name="omega" unicode="&#x3c9;" horiz-adv-x="1770" 
d="M614 1082c-52.667 -86 -96.5 -172.168 -131.5 -258.501s-59.833 -172.166 -74.5 -257.499c-14.667 -97.333 -15.167 -176.166 -1.5 -236.499s47.5 -90.5 101.5 -90.5c43.333 0 82.5 21 117.5 63s59.5 108.333 73.5 199l56 371h361l-56 -371
c-14 -95.333 -10.167 -162.833 11.5 -202.5s55.5 -59.5 101.5 -59.5c50.667 0 92.834 31.667 126.501 95s57.5 140.666 71.5 231.999c10 86.667 10.333 173.167 1 259.5s-27.333 171.833 -54 256.5h312c36 -68 61.667 -145.333 77 -232s15.333 -181.334 0 -284.001
c-28.667 -189.333 -86.834 -334.5 -174.501 -435.5s-217.167 -151.5 -388.5 -151.5c-72.667 0 -135.5 17.833 -188.5 53.5s-92.833 87.5 -119.5 155.5c-46 -69.333 -101.167 -121.5 -165.5 -156.5s-134.833 -52.5 -211.5 -52.5c-163.333 0 -275.666 53 -336.999 159
s-78.333 248.667 -51 428c16 106 44.167 200.833 84.5 284.5s89.166 160.834 146.499 231.501h312z" />
    <glyph glyph-name="iotadieresis" unicode="&#x3ca;" horiz-adv-x="685" 
d="M527 1081l-109 -730.999c-6.66699 -42 -4.5 -70.833 6.5 -86.5s32.5 -23.5 64.5 -23.5c20 0 35.5 0.666992 46.5 2s29.833 5 56.5 11l-15 -250c-32.667 -8.66699 -63 -14.834 -91 -18.501s-60.667 -5.5 -98 -5.5c-112.667 0 -197 31.5 -253 94.5
s-74.667 155.167 -56 276.5l109 731h339zM798 1257h-290l29 204h290zM283 1257h-290l29 204h290z" />
    <glyph glyph-name="upsilondieresis" unicode="&#x3cb;" 
d="M518 1082l-91.002 -611.997c-14 -86.667 -9.83301 -146.834 12.5 -180.501s56.833 -50.5 103.5 -50.5c56.667 0 103.167 31.667 139.5 95s61.5 140.666 75.5 231.999c10.667 86 14.834 172.167 12.501 258.5s-10.833 172.166 -25.5 257.499h313
c23.333 -68.667 39 -146.167 47 -232.5s4.33301 -180.833 -11 -283.5c-28.667 -189.333 -88.167 -334.5 -178.5 -435.5s-224.166 -151.5 -401.499 -151.5c-150 0 -264.333 41.167 -343 123.5s-105.667 205.5 -81 369.5l91 610h337zM1099 1258h-290l29 204h290zM583.998 1258
h-290l29 204h290z" />
    <glyph glyph-name="omicrontonos" unicode="&#x3cc;" 
d="M54 551c24.667 168.667 89.998 302.667 195.998 402s242.333 149 409 149c158.667 0 277.834 -51.667 357.501 -155s107.834 -235.333 84.501 -396l-3 -21c-26 -169.333 -91.833 -303.5 -197.5 -402.5s-241.5 -148.5 -407.5 -148.5c-159.333 0 -279 51.5 -359 154.5
s-107.667 235.167 -83 396.5zM388.998 530c-14.667 -93.333 -11.667 -165.169 9 -215.502s65.334 -75.5 134.001 -75.5c63.333 0 113.833 26.333 151.5 79s63.5 123.334 77.5 212.001l3 21c13.333 90.667 9.66602 161.834 -11.001 213.501s-65 77.5 -133 77.5
c-64 0 -115 -27 -153 -81s-63 -124 -75 -210zM650.998 1478h305l2 -5l-256 -281h-171z" />
    </font>
</defs>
</svg>
